<svg xmlns="http://www.w3.org/2000/svg" viewBox="0 0 100 100"><defs><style>.cls-1{fill:none;stroke:#231f20;stroke-linecap:round;stroke-linejoin:round;stroke-width:2px;}</style></defs><title>2. Cycle</title><g id="Layer_3" data-name="Layer 3"><path class="cls-1" d="M80.57,30.49l-.1.06a5.12,5.12,0,0,1-6.64-.94A30.62,30.62,0,0,0,20.37,50h4.71l-10,13.73L5,50h5.11A40.87,40.87,0,0,1,81.58,22.9,5.08,5.08,0,0,1,80.57,30.49Z"/><path class="cls-1" d="M19.43,69.51l.1-.06a5.12,5.12,0,0,1,6.64.94A30.62,30.62,0,0,0,79.63,50H74.92l10-13.73L95,50H89.89A40.87,40.87,0,0,1,18.42,77.1,5.08,5.08,0,0,1,19.43,69.51Z"/></g></svg>