<svg fill="none" height="60" viewBox="0 0 60 60" width="60" xmlns="http://www.w3.org/2000/svg"><g clip-rule="evenodd" fill="#40addc" fill-rule="evenodd"><path d="m4.01465 24.9612c0-11.5739 9.38245-20.95632 20.95635-20.95632 11.5686.0126 20.9437 9.38772 20.9563 20.95632 0 11.5739-9.3824 20.9564-20.9563 20.9564s-20.95635-9.3825-20.95635-20.9564zm36.44005-10.9073c-3.5432-5.04407-9.3196-8.04831-15.4837-8.05318-8.9274.0131-16.63997 6.24358-18.52941 14.96878h3.70231c.4535-1.7622 2.0433-2.993 3.8629-2.9907 2.2002.0027 3.9815 1.7885 3.9787 3.9887-.0035.7104-.1989 1.4065-.5658 2.0148l4.5386 4.5385c1.2373-.7544 2.7923-.7544 4.0296 0l6.5344-6.5344c-.3669-.6082-.5624-1.3044-.5659-2.0148 0-2.2045 1.7872-3.9917 3.9917-3.9917.7097.0049 1.4047.2015 2.0118.5688zm-2.5107 5.9177c0 1.1023-.8936 1.9959-1.9959 1.9959s-1.9958-.8936-1.9958-1.9959.8935-1.9958 1.9958-1.9958 1.9959.8935 1.9959 1.9958zm-13.9709 13.9709c1.1023 0 1.9958-.8935 1.9958-1.9958 0-1.1024-.8935-1.9959-1.9958-1.9959-1.1024 0-1.9959.8935-1.9959 1.9959 0 1.1023.8935 1.9958 1.9959 1.9958zm-7.9834-11.975c0 1.1023-.8935 1.9958-1.9958 1.9958-1.1024 0-1.9959-.8935-1.9959-1.9958 0-1.1024.8935-1.9959 1.9959-1.9959 1.1023 0 1.9958.8935 1.9958 1.9959zm8.9813 21.9541c3.2235.0029 6.3944-.8169 9.2125-2.3817 9.1469-5.0786 12.4447-16.6107 7.366-25.7577l-2.1755 2.1745c.3668.6082.5623 1.3044.5658 2.0148 0 2.2045-1.7871 3.9917-3.9917 3.9917-.7104-.0035-1.4066-.199-2.0148-.5658l-6.5344 6.5343c.3669.6083.5624 1.3045.5659 2.0148 0 2.2046-1.7872 3.9917-3.9917 3.9917-2.2046 0-3.9917-1.7871-3.9917-3.9917.0035-.7103.1989-1.4065.5658-2.0148l-4.5385-4.5385c-.6083.3669-1.3044.5623-2.0148.5658-1.8146-.0068-3.3963-1.2368-3.85-2.9937h-4.02663c-.0716.6714-.10728 1.3464-.10678 2.0217.00711 10.4645 8.49601 18.9417 18.96051 18.9346z"/><path d="m49.9187 9.99242c1.8146-.00686 3.3963-1.23667 3.85-2.99376h6.1292v-1.99584h-6.1292c-.4537-1.75709-2.0354-2.9869-3.85-2.99376-2.2045 0-3.9917 1.78715-3.9917 3.99168.0035.7104.199 1.40657.5659 2.0148l-1.7534 1.75335c-8.3894-10.92985-24.0508-12.98931-34.98062-4.59992-10.92985 8.38943-12.98931 24.05093-4.59992 34.98073 7.91904 10.3169 22.43514 12.8196 33.35154 5.7499l3.0117 3.0117 1.4111 1.4111 8.0332 8.0333c2.0431 2.0431 5.3555 2.0431 7.3986 0 2.0431-2.0432 2.0431-5.3555 0-7.3986l-8.0332-8.0333-1.4111-1.411-3.0117-3.0118c5.3462-8.2348 5.3462-18.8446 0-27.0796l1.9958-1.99579c.6079.36698 1.3038.56282 2.0138.56681zm0-5.98752c1.1023 0 1.9959.89351 1.9959 1.99584s-.8936 1.99584-1.9959 1.99584-1.9958-.89351-1.9958-1.99584.8936-1.99584 1.9958-1.99584zm7.0874 52.9397c1.2494-1.2781 1.226-3.3271-.052-4.5765l-8.0333-8.0332-4.5765 4.5764 8.0333 8.0333c.0172.0176.0344.0349.052.052 1.2781 1.2494 3.3271 1.2261 4.5765-.052zm-9.4964-14.0208-4.5764 4.5765-2.7623-2.7623c.0805-.0616.1581-.1269.2357-.1922.0581-.0488.1161-.0977.1755-.1451.1387-.1107.2993-.2435.448-.3682.2186-.1836.4341-.3692.6457-.5598.068-.0624.1341-.1248.2001-.1872.0396-.0374.0792-.0748.1192-.1122.4092-.3832.8053-.7794 1.1885-1.1885.0375-.0401.0749-.0797.1123-.1193l.0004-.0004c.0622-.0659.1245-.1318.1867-.1997.1906-.2115.3762-.4271.5599-.6456.1251-.1477.2478-.297.3682-.4481.0472-.0592.096-.1173.1449-.1754l.0003-.0004c.0648-.077.1297-.1542.1911-.2343zm-4.8509-3.352c.3423-.4141.6667-.8442.981-1.2833 5.7107-7.9936 5.7107-18.7327 0-26.7263-7.3803-10.33065-21.7377-12.72217-32.0682-5.34192-10.33047 7.38022-12.72212 21.73772-5.34187 32.06822 7.38027 10.3305 21.73767 12.7221 32.06817 5.3418.4391-.3143.8692-.6386 1.2834-.9809.0624-.0521.1238-.1064.185-.1605.057-.0504.1139-.1007.1712-.1489.3566-.3053.7012-.6207 1.0339-.946.1463-.1417.2903-.2858.4321-.4321.3253-.3339.6406-.6786.946-1.0338.0363-.042.0732-.0838.1101-.1256.0673-.0763.1347-.1527.1992-.2307z"/></g></svg>