<svg fill="none" height="60" viewBox="0 0 60 60" width="60" xmlns="http://www.w3.org/2000/svg"><g fill="#40addc"><path clip-rule="evenodd" d="m59.6566 11.0058-10.664-10.662558c-.2197-.219726-.5178-.343242-.8285-.343242h-34.8047c-1.9385 0-3.51565 1.57711-3.51565 3.51562v2.23407c-5.75684 2.2582-9.84375 7.86921-9.84375 14.41721 0 .6471.524766 1.1719 1.17188 1.1719h14.30752c.6471 0 1.1719-.5248 1.1719-1.1719v-14.30752c0-.64711-.5248-1.17188-1.1719-1.17188-1.1294 0-2.2305.1227-3.2919.35355v-1.52543c0-.64617.5257-1.17187 1.1719-1.17187h33.6328v7.14844c0 1.93851 1.5771 3.51561 3.5156 3.51561h7.1484v43.4766c0 .6461-.5257 1.1718-1.1718 1.1718h-43.125c-.6462 0-1.1719-.5257-1.1719-1.1718v-10.0391c0-.6471-.5248-1.1719-1.1719-1.1719s-1.17185.5248-1.17185 1.1719v10.0391c0 1.9385 1.57715 3.5156 3.51565 3.5156h43.125c1.9385 0 3.5156-1.5771 3.5156-3.5156v-44.65c0-.3108-.1235-.6089-.3434-.8286zm-45.3492-3.92264v11.91184h-11.91185c.56027-6.3103 5.60168-11.35156 11.91185-11.91184zm35.0285 2.40903c0 .64621.5257 1.17191 1.1719 1.17191h5.4924l-6.6643-6.66332z" fill-rule="evenodd"/><path d="m11.844 41.359c-.2178-.2181-.5202-.3434-.8284-.3434s-.6105.1253-.8285.3434c-.21796.218-.34335.5203-.34335.8285s.12527.6105.34335.8284c.218.2181.5203.3435.8285.3435s.6106-.1254.8284-.3435c.2181-.2179.3435-.5202.3435-.8284s-.1254-.6105-.3435-.8285z"/><path clip-rule="evenodd" d="m19.6766 8.88501c-.6471 0-1.1719.52477-1.1719 1.17189v13.1355h-13.13556c-.64711 0-1.17187.5248-1.17187 1.1719 0 8.5354 6.94393 15.4794 15.47933 15.4794 8.5353 0 15.4794-6.944 15.4794-15.4794 0-8.5353-6.9441-15.47929-15.4794-15.47929zm1.1718 2.39569c2.7434.2435 5.2466 1.3345 7.2464 3.0082l-7.2464 7.2463zm-14.25547 14.2555c.59449 6.6963 6.23557 11.9638 13.08367 11.9638 7.243 0 13.1356-5.8927 13.1356-13.1357 0-3.2004-1.1506-6.1371-3.0597-8.4184l-9.2472 9.247-.0005.0004c-.2121.2119-.5048.3429-.8282.3429z" fill-rule="evenodd"/><path clip-rule="evenodd" d="m51.3371 36.985c-1.9385 0-3.5157 1.5771-3.5157 3.5156 0 .4859.0992.9489.2781 1.3702l-6.7515 6.7515c-.4639-.2261-.9847-.3532-1.5346-.3532-.5368 0-1.0456.1214-1.5011.3374l-4.4834-4.4834c.1554-.3966.2416-.8277.2416-1.2789 0-1.9385-1.5771-3.5156-3.5156-3.5156s-3.5156 1.5771-3.5156 3.5156c0 .5253.1166 1.0236.324 1.4716l-4.3002 4.3002c-.4581-.2192-.9706-.3421-1.5113-.3421-1.9386 0-3.5157 1.5771-3.5157 3.5156s1.5771 3.5156 3.5157 3.5156c1.9385 0 3.5156-1.5771 3.5156-3.5156 0-.5434-.124-1.0583-.345-1.518l4.2762-4.2762c.4695.233.9978.3646 1.5566.3646.631 0 1.2232-.168 1.7356-.4602l4.3569 4.3569c-.224.4623-.3499.9807-.3499 1.5281 0 1.9385 1.5771 3.5156 3.5156 3.5156 1.9386 0 3.5157-1.5771 3.5157-3.5156 0-.5341-.1203-1.0406-.3344-1.4944l6.6885-6.6884c.4932.2641 1.0563.4143 1.6539.4143 1.9385 0 3.5156-1.5771 3.5156-3.5156s-1.5771-3.5156-3.5156-3.5156zm-29.7855 15.9765c-.6461 0-1.1718-.5257-1.1718-1.1719 0-.6461.5257-1.1718 1.1718-1.1718.3147 0 .6.1252.8107.3277l.0061.0067c.0024.0029.0049.0057.0075.0083.0033.0032.0066.0062.01.0091l.0075.0066c.2039.211.3301.4976.3301.8134 0 .6461-.5257 1.1719-1.1719 1.1719zm7.8314-10.1173c0 .6462.5258 1.1719 1.1719 1.1719.6462 0 1.1719-.5257 1.1719-1.1719 0-.6461-.5257-1.1718-1.1719-1.1718-.6461 0-1.1719.5257-1.1719 1.1718zm10.4302 10.1124c-.6462 0-1.1719-.5257-1.1719-1.1719s.5257-1.1719 1.1719-1.1719 1.1719.5257 1.1719 1.1719-.5257 1.1719-1.1719 1.1719zm10.3518-12.4561c0 .6462.5257 1.1719 1.1718 1.1719.6462 0 1.1719-.5257 1.1719-1.1719s-.5257-1.1719-1.1719-1.1719c-.646 0-1.1718.5257-1.1718 1.1719z" fill-rule="evenodd"/><path d="m45.479 27.5391h-6.1851c-.6471 0-1.1718.5247-1.1718 1.1718s.5246 1.1719 1.1718 1.1719h6.1851c.6471 0 1.1719-.5248 1.1719-1.1719s-.5248-1.1718-1.1719-1.1718z"/><path d="m51.6429 27.8824c-.2179-.2179-.5202-.3433-.8284-.3433s-.6106.1252-.8286.3433c-.2179.218-.3433.5203-.3433.8285s.1253.6106.3433.8284c.218.218.5192.3435.8286.3435.3082 0 .6105-.1254.8284-.3435.2179-.2178.3434-.5202.3434-.8284s-.1254-.6105-.3434-.8285z"/><path d="m53.6089 16.2891h-14.315c-.6471 0-1.1718.5247-1.1718 1.1718s.5246 1.1719 1.1718 1.1719h14.315c.6471 0 1.1718-.5248 1.1718-1.1719s-.5247-1.1718-1.1718-1.1718z"/><path d="m53.6089 21.9141h-14.315c-.6471 0-1.1718.5247-1.1718 1.1718s.5246 1.1719 1.1718 1.1719h14.315c.6471 0 1.1718-.5248 1.1718-1.1719s-.5247-1.1718-1.1718-1.1718z"/></g></svg>