<svg xmlns="http://www.w3.org/2000/svg" viewBox="0 0 100 100"><defs><style>.cls-1,.cls-2{fill:#deF2fa;}.cls-2,.cls-3{stroke:#40ADDC;stroke-linecap:round;stroke-linejoin:round;stroke-width:2px;}.cls-3{fill:none;}</style></defs><title>4. Bank 2</title><g id="Layer_17" data-name="Layer 17"><circle class="cls-1" cx="50" cy="50" r="45"/><path class="cls-2" d="M82,53.09c0,7.45-4,14.14-10.34,18.64l-1.54,9.89H62.81L59.7,76.9a34.85,34.85,0,0,1-7.38.77A43,43,0,0,1,45,77.05L41.9,81.62H34.22l-1.13-9a21.92,21.92,0,0,1-9.33-12l-5.76-1V46.59l6.6-2.05C28.87,35.82,39.68,30.4,52.32,30.4,68.71,30.4,82,39.5,82,53.09Z"/><path class="cls-2" d="M31.61,39.51c.3-6.94-2.85-9.8-2.85-9.8s11.55-.46,13.45,4.78"/><circle class="cls-2" cx="63.69" cy="31.02" r="12.64"/><path class="cls-2" d="M66.85,27.86h0a3.17,3.17,0,0,0-3.16-3.16h0a3.16,3.16,0,0,0-3.16,3.16h0A3.15,3.15,0,0,0,63.69,31h0a3.17,3.17,0,0,1,3.16,3.16h0a3.17,3.17,0,0,1-3.16,3.17h0a3.16,3.16,0,0,1-3.16-3.17h0"/><line class="cls-2" x1="63.69" y1="23.02" x2="63.69" y2="39.03"/><path class="cls-2" d="M48.23,41.05s14.89-1.73,22.27,6.68"/><path class="cls-3" d="M82,53.09s4.42-2.35,6.27,1.59c2.86,6.1-2.65,6.43-2.65,6.43s-3.73.07-.62-4.59"/></g></svg>
