<svg fill="none" height="64" viewBox="0 0 60 64" width="60" xmlns="http://www.w3.org/2000/svg"><g fill="#40addc"><path clip-rule="evenodd" d="m55.9835 60.7408h2.7078c.6818 0 1.2345.5527 1.2345 1.2345 0 .6819-.5527 1.2346-1.2345 1.2346h-57.38251c-.681855 0-1.2345712-.5527-1.2345712-1.2346 0-.6818.5527162-1.2345 1.2345712-1.2345h2.85382v-11.1363c0-1.8299 1.48877-3.3188 3.31877-3.3188h6.05242c1.8299 0 3.3188 1.4888 3.3188 3.3188v11.1363h6.8756v-21.5031c0-1.8299 1.4887-3.3188 3.3187-3.3188h6.0524c1.83 0 3.3187 1.4888 3.3187 3.3188v21.5031h6.8756v-39.3166c0-1.8298 1.4888-3.3187 3.3188-3.3187h6.0523c1.8299 0 3.3188 1.4887 3.3188 3.3187zm-49.35187 0h7.75157v-11.1363c0-.4685-.3811-.8496-.8496-.8496h-6.05234c-.46852 0-.84963.3811-.84963.8496zm27.31717 0h-7.7516v-21.5031c0-.4685.3811-.8496.8496-.8496h6.0524c.4684 0 .8496.3811.8496.8496zm11.8139 0h7.7516v-39.3166c0-.4685-.3811-.8496-.8496-.8496h-6.0523c-.4686 0-.8497.3811-.8497.8496z" fill-rule="evenodd"/><path d="m55.9806 1.29827c.0173-.336912-.1012-.679505-.3585-.936789-.2573-.257283-.5999-.3759254-.9368-.35851804-.0199-.00086419-.0395-.00296296-.0597-.00296296h-7.4692c-.6818 0-1.2345.552716-1.2345 1.23457 0 .68185.5527 1.23457 1.2345 1.23457h4.612l-12.2046 12.20466-4.6024-4.6024c-.2315-.23152-.5456-.36165-.873-.36165s-.6415.13013-.873.36165l-22.1937 22.1938c-.4821.4821-.4821 1.2638 0 1.746.2411.2409.5571.3614.873.3614s.632-.1205.873-.3616l21.3207-21.3209 4.6025 4.6025c.4821.4821 1.2638.4821 1.746 0l13.0775-13.07741v4.17407c0 .68185.5528 1.23457 1.2346 1.23457.6819 0 1.2346-.55272 1.2346-1.23457v-7.03124c0-.02012-.0021-.03975-.003-.05975z"/><path d="m7.73359 38.6802c.68183 0 1.23457-.5527 1.23457-1.2346 0-.6818-.55274-1.2345-1.23457-1.2345s-1.23457.5527-1.23457 1.2345c0 .6819.55274 1.2346 1.23457 1.2346z"/></g></svg>