<svg fill="none" height="60" viewBox="0 0 31 60" width="31" xmlns="http://www.w3.org/2000/svg"><path clip-rule="evenodd" d="m23.9084 8.74054h5.294c.9747 0 1.7651.79028 1.7654 1.76456v9.9179c0 7.6731-5.794 14.0089-13.2356 14.8862v21.9687c0 .9743-.7902 1.7646-1.7646 1.7646-.9743 0-1.7646-.7899-1.7646-1.7646v-21.9689c-7.44141-.8772-13.235227-7.2131-13.235227-14.8862v-9.9177c0-.97428.790127-1.76456 1.764837-1.76456h5.29377v-6.976c0-.974267.79013-1.76454 1.76484-1.76454.97428 0 1.76468.790126 1.76468 1.76454v6.976h8.8232v-6.976c0-.974267.7902-1.76454 1.7646-1.76454.9748 0 1.7647.790126 1.7647 1.76454zm-7.941 23.15296c6.3245 0 11.4703-5.1461 11.4703-11.4707v-8.1527h-22.9407v8.1527c0 6.3246 5.14588 11.4707 11.4704 11.4707z" fill="#40addc" fill-rule="evenodd"/></svg>