<svg fill="none" height="40" viewBox="0 0 60 40" width="60" xmlns="http://www.w3.org/2000/svg"><path clip-rule="evenodd" d="m34.085 0c8.943 0 16.362 7.194 16.891 16.194 5.197 1.366 9.024 6.289 9.024 11.778 0 6.632-5.396 12.028-12.028 12.028h-9.803c-.105 0-.207-.006-.309-.014l-.134-.008-.062.008c-.104.008-.207.014-.311.014h-24.508c-7.083 0-12.845-5.763-12.845-12.846 0-4.755 2.857-9.505 7.016-11.773v-.004c-.008-.125-.016-.25-.016-.377 0-4.963 4.037-9 9-9 .341 0 .677.023 1.009.06.0653.00704.1294.01778.1936.02853.036.00604.0721.01208.1084.01747.232.035.462.074.687.125.0971.02177.1929.04775.289.07383.0186.00506.0373.01013.056.01517.21.057.416.12.619.191.115.04.229.081.343.126.205.082.406.173.604.269.0326.01543.0657.0292.0988.04298.0442.01837.0883.03673.1312.05902 3.258-4.345 8.516-7.008 13.946-7.008zm4.084 38h9.803c5.529 0 10.028-4.499 10.028-10.028 0-4.811-3.51-9.1-8.166-9.985-.136-.019-2.457-.335-4.684.002-.05.008-.101.012-.151.012-.486 0-.912-.355-.987-.85-.083-.546.292-1.056.838-1.139 1.531-.233 3.061-.196 4.083-.124-.671-7.753-7.103-13.888-14.848-13.888-4.697 0-9.418 2.379-12.285 6.129 1.954 1.652 3.2 4.117 3.2 6.871 0 .553-.447 1-1 1s-1-.447-1-1c0-2.462-1.281-4.627-3.208-5.875-.227-.147-.462-.277-.702-.396-.0191-.00926-.038-.01859-.057-.02791-.0507-.02493-.1013-.0498-.153-.07309-.272-.124-.55-.234-.835-.321-.0175-.005-.0353-.00925-.053-.0135-.0178-.00425-.0355-.0085-.053-.0135-.259-.075-.522-.133-.789-.177-.077-.013-.155-.026-.233-.036-.303-.04-.608-.067-.917-.067-3.859 0-7 3.141-7 7 0 .082.006.163.012.244l.012.21-.009.16c-.00083.0153-.00166.0306-.0025.0459-.00628.1145-.0125.2281-.0125.3401v.63l-.567.271c-3.728 1.787-6.433 6.099-6.433 10.253 0 5.981 4.865 10.846 10.845 10.846h24.508c.049 0 .0979-.0036.1463-.0071.0089-.0006.0178-.0013.0267-.0019l.198-.011.271.011c.01.0007.0199.0014.0298.0021.0479.0035.0953.0069.1442.0069z" fill="#40addc" fill-rule="evenodd"/></svg>