<svg fill="none" height="60" viewBox="0 0 60 60" width="60" xmlns="http://www.w3.org/2000/svg"><g fill="#40addc"><g clip-rule="evenodd" fill-rule="evenodd"><path d="m25.8506 36.4692v15.3457c1.8275.4335 3.1915 2.078 3.1915 4.0362 0 2.2878-1.8612 4.1489-4.1489 4.1489-2.2878 0-4.149-1.8611-4.149-4.1489 0-1.9582 1.3641-3.6027 3.1915-4.0362v-14.3883h-5.4255c-.5289 0-.9575-.4285-.9575-.9574s.4286-.9575.9575-.9575h6.383c.5289 0 .9574.4286.9574.9575zm-3.1915 19.3819c0 1.2318 1.0023 2.234 2.2341 2.234 1.2317 0 2.234-1.0022 2.234-2.234s-1.0023-2.2341-2.234-2.2341c-1.2318 0-2.2341 1.0023-2.2341 2.2341z"/><path d="m36.0634 36.4692v15.3457c1.8274.4335 3.1915 2.078 3.1915 4.0362 0 2.2878-1.8612 4.1489-4.149 4.1489s-4.1489-1.8611-4.1489-4.1489c0-1.9582 1.364-3.6027 3.1915-4.0362v-14.3883h-5.4254c-.5289 0-.9575-.4285-.9575-.9574s.4286-.9575.9575-.9575h6.3828c.5289 0 .9575.4286.9575.9575zm-3.1915 19.3819c0 1.2318 1.0022 2.234 2.234 2.234s2.2341-1.0022 2.2341-2.234-1.0023-2.2341-2.2341-2.2341-2.234 1.0023-2.234 2.2341z"/><path d="m48.304 48.5107c.4335-1.8275 2.078-3.1915 4.0362-3.1915 2.2878 0 4.149 1.8611 4.149 4.1489s-1.8612 4.1489-4.149 4.1489c-1.9582 0-3.6027-1.364-4.0362-3.1915h-2.9851c-.5289 0-.9574-.4285-.9574-.9574v-12.0415h-5.4255c-.5289 0-.9575-.4285-.9575-.9574s.4286-.9575.9575-.9575h6.3829c.5289 0 .9575.4286.9575.9575v12.0415zm1.8022.9574c0 1.2318 1.0022 2.234 2.234 2.234s2.2341-1.0022 2.2341-2.234-1.0023-2.234-2.2341-2.234-2.234 1.0022-2.234 2.234z"/><path d="m52.727 17.2296c1.9501.6056 3.7027 1.7926 4.9931 3.3947 1.4702 1.8251 2.2799 4.1237 2.2799 6.472 0 5.6961-4.6342 10.3303-10.3302 10.3303h-.5209c-.5289 0-.9574-.4286-.9574-.9574 0-.5289.4285-.9575.9574-.9575h.521c4.6403 0 8.4153-3.7751 8.4153-8.4154 0-3.9386-2.6772-7.3091-6.5106-8.1962-.431-.0997-.7376-.4816-.7416-.9241-.0799-8.85626-7.3509-16.06111-16.2084-16.06111-5.8988 0-11.3383 3.2109-14.1959 8.37981-.2384.4314-.7656.6114-1.2182.4154-.7985-.3455-1.6471-.5208-2.5221-.5208-3.1805 0-5.8897 2.375-6.3019 5.5244-.0532.4073-.3604.7351-.76314.8149-4.46655.8858-7.70847 4.8388-7.70847 9.3992 0 5.2846 4.29932 9.5839 9.58381 9.5839h3.1822c.5288 0 .9574.4286.9574.9575v12.9989c0 .5289-.4286.9574-.9574.9574h-2.9851c-.4335 1.8275-2.07806 3.1915-4.03623 3.1915-2.28778 0-4.14893-1.8611-4.14893-4.1489s1.86115-4.149 4.14893-4.149c1.95817 0 3.60273 1.3641 4.03623 3.1915h2.0276v-11.084h-2.2247c-6.34049 0-11.4987-5.1583-11.4987-11.4988 0-5.2485 3.58009-9.8265 8.60298-11.1295.81102-3.7633 4.17432-6.52404 8.08542-6.52404.8501 0 1.6813.12727 2.481.3794 3.2885-5.35851 9.1359-8.65366 15.4552-8.65366 4.8123 0 9.3442 1.866 12.7611 5.25434 3.2413 3.21421 5.1217 7.44296 5.3413 11.97526zm-47.30147 32.2385c0 1.2318 1.00226 2.234 2.23404 2.234 1.23179 0 2.23405-1.0022 2.23405-2.234s-1.00226-2.2341-2.23405-2.2341c-1.23178 0-2.23404 1.0023-2.23404 2.2341z"/></g><path d="m46.6841 18.9708h.0088c.5288-.0048.9535-.4373.9488-.9661-.0143-1.5771-.312-3.1204-.8848-4.5869-.1925-.4925-.7476-.736-1.2402-.5436-.4927.1924-.736.7476-.5436 1.2402.4879 1.249.7414 2.5638.7536 3.9077.005.5259.4326.9487.9574.9487z"/><path d="m43.1841 11.0752c.1894.2293.4629.3477.7387.3477.2148 0 .4308-.0719.6092-.2193.4076-.3368.4652-.9402.1284-1.34796-2.4932-3.01825-6.1513-4.74932-10.036-4.74932-.5289 0-.9574.42856-.9574.95745s.4285.95745.9574.95745c3.3115 0 6.4314 1.47753 8.5597 4.05398z"/></g></svg>