<svg xmlns="http://www.w3.org/2000/svg" viewBox="0 0 100 100"><defs><style>.cls-1,.cls-2{fill:#deF2fa;}.cls-2{stroke:#40ADDC;stroke-linecap:round;stroke-linejoin:round;stroke-width:2px;}</style></defs><title>2. Cycle 2</title><g id="Layer_15" data-name="Layer 15"><circle class="cls-1" cx="50" cy="50" r="45"/><path class="cls-2" d="M75.52,33.71l-.08,0A4.26,4.26,0,0,1,69.89,33,25.57,25.57,0,0,0,25.26,50h3.93L20.83,61.46,12.43,50h4.26A34.13,34.13,0,0,1,76.37,27.37,4.24,4.24,0,0,1,75.52,33.71Z"/><path class="cls-2" d="M24.48,66.29l.08-.05a4.26,4.26,0,0,1,5.55.79A25.57,25.57,0,0,0,74.74,50H70.81l8.36-11.46L87.57,50H83.31A34.13,34.13,0,0,1,23.63,72.63,4.24,4.24,0,0,1,24.48,66.29Z"/></g></svg>
