<svg width="21" height="25" viewBox="0 0 21 25" fill="none" xmlns="http://www.w3.org/2000/svg">
<path d="M6.51916 24.7333C6.87475 25.0889 7.45128 25.0889 7.80687 24.7333L20.0402 12.5L7.80687 0.266695C7.45128 -0.0888983 6.87475 -0.0888983 6.51916 0.266695C6.16356 0.622288 6.16356 1.19882 6.51916 1.55441L17.4647 12.5L6.51916 23.4456C6.16356 23.8012 6.16356 24.3777 6.51916 24.7333Z" fill="black"/>
<path d="M0.266695 24.7333C0.622288 25.0889 1.19882 25.0889 1.55441 24.7333L13.7877 12.5L1.55441 0.266695C1.19882 -0.0888983 0.622288 -0.0888983 0.266695 0.266695C-0.0888982 0.622288 -0.0888982 1.19882 0.266695 1.55441L11.2123 12.5L0.266695 23.4456C-0.0888982 23.8012 -0.0888982 24.3777 0.266695 24.7333Z" fill="black"/>
</svg>
