<svg fill="none" height="56" viewBox="0 0 56 56" width="56" xmlns="http://www.w3.org/2000/svg"><path clip-rule="evenodd" d="m39.889 2.631c3.51-3.508 9.219-3.508 12.729 0 3.509 3.509 3.509 9.219-.001 12.729l-36.063 36.063c-.0013.0013-.0026.0024-.0039.0035-.0013.001-.0025.002-.0038.0029l-.0053.0036c-.003.002-.0059.004-.0088.0062-.0014.0012-.0028.0024-.0042.0038-.0137.0125-.0281.0225-.0426.0326-.0098.0069-.0197.0137-.0294.0214-.062.049-.129.09-.201.123-.033.015-.065.028-.099.039-.0104.0036-.0205.0082-.0306.0127-.0151.0069-.0302.0137-.0464.0173l-14.85 3.535c-.076.018-.154.027-.231.027-.129 0-.258-.025-.379-.075s-.233-.123-.328-.218c-.086-.086-.147-.189-.196-.296-.011-.024-.021-.046-.03-.071-.039-.107-.064-.218-.065-.332 0-.0065.001-.0128.002-.019.001-.0063.002-.0125.002-.019.002-.067.006-.135.022-.202l3.535-14.85c.0015-.005.00375-.01.006-.015s.0045-.01.006-.015c.00406-.0151.01013-.0291.01627-.0433l.00002-.0001c.00445-.0103.00893-.0207.01271-.0316.031-.086.072-.165.125-.239l.01038-.0143c.01533-.0212.03047-.0421.04762-.0617.0063-.0076.01172-.0156.01714-.0237.00749-.0112.015-.0224.02486-.0323zm11.965 10.551c2.05-2.74 1.838-6.648-.65-9.137-2.488-2.488-6.396-2.7-9.137-.65zm-5.6 5.713-9.9-9.9 1.414-1.414 9.9 9.9zm-42.707 31.393c.391-.391 1.023-.391 1.414 0 .39.391.39 1.024 0 1.414l-.757.757 10.729-2.554.491-4.422-5.122.569c-.036.004-.073.006-.109.006h-.001-.001-.001-.001c-.037 0-.073-.002-.109-.006-.022-.0028-.0415-.0107-.0611-.0187-.0152-.0062-.03037-.0124-.0469-.0163-.072-.017-.141-.035-.207-.066-.05-.024-.093-.053-.138-.084-.057-.04-.109-.083-.157-.134-.038-.04-.069-.081-.1-.127-.038-.057-.069-.116-.095-.181-.021-.054-.038-.107-.05-.165-.00306-.014-.00805-.0271-.01301-.0401-.00638-.0167-.01274-.0333-.01499-.0519-.00224-.0213.00116-.0413.00459-.0615.0027-.0158.00541-.0318.00541-.0485 0-.0162-.00267-.0319-.00534-.0477-.00345-.0204-.00691-.0409-.00466-.0623l.569-5.122-4.422.491-2.554 10.728zm13.964-5.479 22.378-22.379c.391-.391.391-1.023 0-1.414s-1.023-.391-1.414 0l-22.378 22.379-4.773.53.53-4.773 22.38-22.378c.391-.391.391-1.023 0-1.414s-1.023-.391-1.414 0l-22.38 22.378-3.183.354 27.683-27.683 9.9 9.9-27.683 27.683zm21.671-38.642 9.9 9.9 1.415-1.415-9.9-9.9z" fill="#40addc" fill-rule="evenodd"/></svg>