<svg fill="none" height="20" viewBox="0 0 20 20" width="20" xmlns="http://www.w3.org/2000/svg"><path clip-rule="evenodd" d="m17.2958 0h-14.60216c-1.48763 0-2.69364 1.20597-2.69364 2.69364v14.60226c0 1.4877 1.20597 2.6936 2.69364 2.6936h7.20171l.01228-7.1431h-1.8558c-.24117 0-.43692-.1951-.43784-.4362l-.0089-2.3026c-.00093-.24247.1954-.43953.43789-.43953h1.85242v-2.22484c0-2.58191 1.5769-3.98778 3.8801-3.98778h1.89c.2418 0 .4379.19604.4379.4379v1.94152c0 .24176-.196.43775-.4377.43789l-1.1598.00054c-1.2526 0-1.4951.59521-1.4951 1.4687v1.92612h2.7523c.2622 0 .4657.22899.4348.48948l-.2729 2.3025c-.0261.2203-.213.3864-.4348.3864h-2.4672l-.0122 7.1431h4.2851c1.4876 0 2.6936-1.2059 2.6936-2.6936v-14.60236c-.0001-1.48767-1.206-2.69364-2.6937-2.69364z" fill="#fff" fill-rule="evenodd"/></svg>