<svg fill="none" height="60" viewBox="0 0 48 60" width="48" xmlns="http://www.w3.org/2000/svg"><g fill="#40addc"><path d="m39 25h-25c-.552 0-1 .447-1 1s.448 1 1 1h25c.552 0 1-.447 1-1s-.448-1-1-1z"/><path d="m14 19h10c.552 0 1-.447 1-1s-.448-1-1-1h-10c-.552 0-1 .447-1 1s.448 1 1 1z"/><path d="m39 33h-25c-.552 0-1 .447-1 1s.448 1 1 1h25c.552 0 1-.447 1-1s-.448-1-1-1z"/><path d="m39 41h-25c-.552 0-1 .447-1 1s.448 1 1 1h25c.552 0 1-.447 1-1s-.448-1-1-1z"/><path d="m39 49h-25c-.552 0-1 .447-1 1s.448 1 1 1h25c.552 0 1-.447 1-1s-.448-1-1-1z"/><path clip-rule="evenodd" d="m43 0v14.586l5 5v40.414h-43v-5h-5v-55zm0 17.414-9-9v10.586h10.586zm-41 35.586v-51h39v10.586l-7.586-7.586h-28.414v48zm5 2v3h39v-37h-14v-14h-25z" fill-rule="evenodd"/></g></svg>