<svg xmlns="http://www.w3.org/2000/svg" viewBox="0 0 100 100"><defs><style>.cls-1,.cls-2{fill:#deF2fa;}.cls-2{stroke:#40ADDC;stroke-linecap:round;stroke-linejoin:round;stroke-width:2px;}</style></defs><title>1. Gear 2</title><g id="Layer_14" data-name="Layer 14"><circle class="cls-1" cx="50" cy="50" r="45"/><path class="cls-2" d="M80,55.46l0-10.82L73.7,43.32a23.7,23.7,0,0,0-2.25-5.39L75,32.54l-7.65-7.65-5.44,3.6a24.79,24.79,0,0,0-5.29-2.16L55.35,20H44.53l-1.31,6.45a23.94,23.94,0,0,0-5.13,2.14l-5.45-3.63L25,32.54l3.63,5.53a24.57,24.57,0,0,0-2.14,5.18L20,44.54l0,10.82,6.49,1.34A24.69,24.69,0,0,0,28.61,62L25,67.46l7.65,7.65,5.5-3.64a24.22,24.22,0,0,0,5.22,2.16L44.65,80H55.47l1.31-6.41A24.87,24.87,0,0,0,62,71.49l5.39,3.59L75,67.46,71.48,62a24.59,24.59,0,0,0,2.21-5.31Z"/><circle class="cls-2" cx="50" cy="50" r="13.96"/></g></svg>
