<svg xmlns="http://www.w3.org/2000/svg" viewBox="0 0 100 100"><defs><style>.cls-1,.cls-2{fill:#deF2fa;}.cls-2{stroke:#40ADDC;stroke-linecap:round;stroke-linejoin:round;stroke-width:2px;}</style></defs><title>8. Process 2</title><g id="Layer_21" data-name="Layer 21"><circle class="cls-1" cx="50" cy="50" r="45"/><path class="cls-2" d="M56,73,59,66.12l-3.66-2.63a16.75,16.75,0,0,0,.09-4.06L59.25,57l-2.7-7-4.47.75a17.29,17.29,0,0,0-2.75-2.86l1-4.41-6.87-3-2.65,3.72a16.64,16.64,0,0,0-3.86-.08l-2.44-3.85-7,2.67.75,4.54a16.67,16.67,0,0,0-2.82,2.69l-4.47-1L17.83,56l3.74,2.69a17,17,0,0,0-.1,4l-3.85,2.46,2.7,7,4.51-.75a17.73,17.73,0,0,0,2.71,2.84l-1,4.44,6.87,3L36.07,78a17,17,0,0,0,3.9.1l2.41,3.81,7-2.67-.73-4.46A16.75,16.75,0,0,0,51.58,72Z"/><circle class="cls-2" cx="38.43" cy="61.05" r="9.7"/><path class="cls-2" d="M82.36,36.53l0-5.61-3.29-.69a12.75,12.75,0,0,0-1.17-2.8l1.85-2.79-4-4L73,22.54a13,13,0,0,0-2.75-1.12l-.67-3.3H64l-.68,3.34a13.23,13.23,0,0,0-2.66,1.11L57.8,20.69l-4,3.95,1.88,2.87a12.49,12.49,0,0,0-1.11,2.69l-3.35.66,0,5.61,3.36.7a12.37,12.37,0,0,0,1.13,2.73l-1.88,2.85,4,4,2.85-1.88A12.89,12.89,0,0,0,63.35,46L64,49.27h5.61L70.31,46A13.33,13.33,0,0,0,73,44.84L75.8,46.7l4-4-1.84-2.82a12.55,12.55,0,0,0,1.14-2.75Z"/><circle class="cls-2" cx="66.8" cy="33.69" r="7.24"/></g></svg>
