<?xml version="1.0" encoding="UTF-8"?>
<svg width="125px" height="125px" viewBox="0 0 125 125" version="1.1" xmlns="http://www.w3.org/2000/svg" xmlns:xlink="http://www.w3.org/1999/xlink">
    <!-- Generator: Sketch 62 (91390) - https://sketch.com -->
    <title>Group 13</title>
    <desc>Created with Sketch.</desc>
    <g id="Page-1" stroke="none" stroke-width="1" fill="none" fill-rule="evenodd">
        <g id="Group-13">
            <circle id="Oval-Copy-18" fill="#DEF2FA" cx="62.5" cy="62.5" r="62.5"></circle>
            <g id="cloud" transform="translate(30.000000, 41.000000)" fill="#40ADDC" fill-rule="nonzero">
                <path d="M55.224,17.5435 C54.6509167,7.7935 46.6136667,0 36.9254167,0 C31.0429167,0 25.34675,2.88491667 21.81725,7.592 C21.736,7.54975 21.6504167,7.5205 21.5680833,7.4815 C21.3535833,7.3775 21.1358333,7.27891667 20.91375,7.19008333 C20.79025,7.14133333 20.66675,7.09691667 20.5421667,7.05358333 C20.32225,6.97666667 20.0990833,6.90841667 19.8715833,6.84666667 C19.747,6.81308333 19.6235,6.77841667 19.4978333,6.75025 C19.2540833,6.695 19.0049167,6.65275 18.7535833,6.61483333 C18.6441667,6.59858333 18.5369167,6.57691667 18.4264167,6.565 C18.06675,6.52491667 17.70275,6.5 17.3333333,6.5 C11.95675,6.5 7.58333333,10.8734167 7.58333333,16.25 C7.58333333,16.3875833 7.592,16.523 7.60066667,16.6584167 L7.60066667,16.66275 C3.09508333,19.11975 0,24.2655833 0,29.4168333 C0,37.0900833 6.24216667,43.3333333 13.9154167,43.3333333 L40.46575,43.3333333 C40.5784167,43.3333333 40.69,43.3268333 40.8026667,43.3181667 L40.8698333,43.3095 L41.015,43.3181667 C41.1255,43.3268333 41.236,43.3333333 41.34975,43.3333333 L51.9696667,43.3333333 C59.1543333,43.3333333 65,37.4876667 65,30.303 C65,24.3565833 60.8540833,19.0233333 55.224,17.5435 Z M51.9696667,41.1666667 L41.34975,41.1666667 C41.2858333,41.1666667 41.2240833,41.16125 41.16125,41.1569167 L40.8676667,41.145 L40.6531667,41.1569167 C40.5914167,41.16125 40.5285833,41.1666667 40.46575,41.1666667 L13.9154167,41.1666667 C7.43708333,41.1666667 2.16666667,35.89625 2.16666667,29.4168333 C2.16666667,24.9166667 5.09708333,20.2453333 9.13575,18.3094167 L9.75,18.0158333 L9.75,17.3333333 C9.75,17.19575 9.75866667,17.056 9.76625,16.9151667 L9.776,16.7418333 L9.763,16.5143333 C9.7565,16.4265833 9.75,16.3388333 9.75,16.25 C9.75,12.0694167 13.15275,8.66666667 17.3333333,8.66666667 C17.6680833,8.66666667 17.9985,8.69591667 18.32675,8.73925 C18.41125,8.75008333 18.49575,8.76416667 18.5791667,8.77825 C18.8684167,8.82591667 19.1533333,8.88875 19.4339167,8.97 C19.4718333,8.98083333 19.5108333,8.98841667 19.54875,8.99925 C19.8575,9.0935 20.1586667,9.21266667 20.4533333,9.347 C20.53025,9.38166667 20.605,9.41958333 20.6808333,9.45641667 C20.9408333,9.58533333 21.1954167,9.72616667 21.4413333,9.88541667 C23.5289167,11.2374167 24.9166667,13.5828333 24.9166667,16.25 C24.9166667,16.8490833 25.4009167,17.3333333 26,17.3333333 C26.5990833,17.3333333 27.0833333,16.8490833 27.0833333,16.25 C27.0833333,13.2665 25.7335,10.5960833 23.6166667,8.80641667 C26.7225833,4.74391667 31.837,2.16666667 36.9254167,2.16666667 C45.3158333,2.16666667 52.2838333,8.81291667 53.01075,17.212 C51.9035833,17.134 50.2460833,17.0939167 48.5875,17.3463333 C47.996,17.43625 47.58975,17.98875 47.6796667,18.58025 C47.7609167,19.1165 48.2224167,19.5010833 48.7489167,19.5010833 C48.8030833,19.5010833 48.8583333,19.49675 48.9125,19.4880833 C51.3250833,19.123 53.8395,19.4653333 53.9868333,19.4859167 C59.0308333,20.4446667 62.8333333,25.0910833 62.8333333,30.303 C62.8333333,36.29275 57.9594167,41.1666667 51.9696667,41.1666667 Z" id="Shape"></path>
            </g>
        </g>
    </g>
</svg>