<?xml version="1.0" encoding="UTF-8"?>
<svg width="125px" height="125px" viewBox="0 0 125 125" version="1.1" xmlns="http://www.w3.org/2000/svg" xmlns:xlink="http://www.w3.org/1999/xlink">
    <!-- Generator: Sketch 62 (91390) - https://sketch.com -->
    <title>Group 7</title>
    <desc>Created with Sketch.</desc>
    <g id="Page-1" stroke="none" stroke-width="1" fill="none" fill-rule="evenodd">
        <g id="Group-7">
            <circle id="Oval-Copy-11" fill="#DEF2FA" cx="62.5" cy="62.5" r="62.5"></circle>
            <g id="magic-wand" transform="translate(34.000000, 34.000000)" fill="#40ADDC" fill-rule="nonzero">
                <path d="M31.02,21.428 C31.02,21.428 31.019,21.428 31.019,21.429 C31.019,21.429 31.018,21.43 31.018,21.43 L0.092,52.355 L4.335,56.597 L44.676,16.255 L40.434,12.013 L31.02,21.428 Z M4.334,53.77 L2.92,52.355 L31.725,23.55 L33.139,24.964 L4.334,53.77 Z M34.554,23.55 L33.14,22.136 L40.434,14.842 L41.848,16.256 L34.554,23.55 Z" id="Shape"></path>
                <path d="M40.506,9 C41.058,9 41.506,8.553 41.506,8 L41.506,1 C41.506,0.447 41.058,0 40.506,0 C39.954,0 39.506,0.447 39.506,1 L39.506,8 C39.506,8.553 39.954,9 40.506,9 Z" id="Path"></path>
                <path d="M40.506,23 C39.954,23 39.506,23.447 39.506,24 L39.506,31 C39.506,31.553 39.954,32 40.506,32 C41.058,32 41.506,31.553 41.506,31 L41.506,24 C41.506,23.447 41.058,23 40.506,23 Z" id="Path"></path>
                <path d="M55.506,15 L48.506,15 C47.954,15 47.506,15.447 47.506,16 C47.506,16.553 47.954,17 48.506,17 L55.506,17 C56.058,17 56.506,16.553 56.506,16 C56.506,15.447 56.058,15 55.506,15 Z" id="Path"></path>
                <path d="M25.506,17 L32.506,17 C33.058,17 33.506,16.553 33.506,16 C33.506,15.447 33.058,15 32.506,15 L25.506,15 C24.954,15 24.506,15.447 24.506,16 C24.506,16.553 24.954,17 25.506,17 Z" id="Path"></path>
                <path d="M46.506,11 C46.762,11 47.018,10.902 47.213,10.707 L52.163,5.757 C52.554,5.366 52.554,4.734 52.163,4.343 C51.772,3.952 51.14,3.952 50.749,4.343 L45.799,9.293 C45.408,9.684 45.408,10.316 45.799,10.707 C45.994,10.902 46.25,11 46.506,11 Z" id="Path"></path>
                <path d="M47.213,21.293 C46.822,20.902 46.19,20.902 45.799,21.293 C45.408,21.684 45.408,22.316 45.799,22.707 L50.749,27.657 C50.944,27.852 51.2,27.95 51.456,27.95 C51.712,27.95 51.968,27.852 52.163,27.657 C52.554,27.266 52.554,26.634 52.163,26.243 L47.213,21.293 Z" id="Path"></path>
                <path d="M33.799,10.707 C33.994,10.902 34.25,11 34.506,11 C34.762,11 35.018,10.902 35.213,10.707 C35.604,10.316 35.604,9.684 35.213,9.293 L30.263,4.343 C29.872,3.952 29.24,3.952 28.849,4.343 C28.458,4.734 28.458,5.366 28.849,5.757 L33.799,10.707 Z" id="Path"></path>
            </g>
        </g>
    </g>
</svg>