<?xml version="1.0" encoding="UTF-8"?>
<svg width="125px" height="125px" viewBox="0 0 125 125" version="1.1" xmlns="http://www.w3.org/2000/svg" xmlns:xlink="http://www.w3.org/1999/xlink">
    <!-- Generator: Sketch 62 (91390) - https://sketch.com -->
    <title>Group 14</title>
    <desc>Created with Sketch.</desc>
    <g id="Page-1" stroke="none" stroke-width="1" fill="none" fill-rule="evenodd">
        <g id="Group-14">
            <circle id="Oval-Copy-9" fill="#DEF2FA" cx="62.5" cy="62.5" r="62.5"></circle>
            <g id="piggy-bank" transform="translate(33.000000, 32.000000)" fill="#40ADDC" fill-rule="nonzero">
                <path d="M46.8507858,18.0500731 C46.4514802,17.8554458 46.0252193,17.6649305 45.5852522,17.4771565 C48.1368786,12.5287829 46.9412463,6.47432386 42.7005665,2.86641076 C38.4598867,-0.74104538 32.2921235,-0.950292398 27.8166118,2.36111111 C23.3406433,5.67297146 21.7374818,11.6324013 23.9473684,16.7429642 C23.3118604,16.9832785 22.688231,17.2496345 22.0741959,17.5351791 C19.6249087,15.294682 15.7835344,15.014163 14.1566154,15.0050256 C13.1729715,15 12.3314145,15.710435 12.1715095,16.6808297 C12.024397,17.6210709 11.9650036,18.5731908 11.9947004,19.524397 C11.1938048,19.5687135 10.3970212,19.6687683 9.60937497,19.8236477 C8.64172152,20.0118786 7.95458702,20.8753655 7.9888524,21.860837 C8.02997076,23.8153326 8.5380117,25.731451 9.47002924,27.4497441 C9.3562683,27.5767544 9.24113673,27.702394 9.12828947,27.8289474 C8.49095392,28.5398392 7.8312317,29.2744883 7.15826023,29.953856 C5.86805556,30.9429825 4.30875368,31.5181835 2.68503287,31.6036185 C1.83479532,31.7192069 1.06999275,32.1820175 0.573373567,32.8814876 C0.0762975439,33.5814145 -0.108735439,34.4554094 0.0621345029,35.2965095 L1.68494152,43.4608005 C1.80783988,44.1493055 2.46756211,44.6943531 3.64309216,45.4568713 L3.78289474,45.5487025 C4.66557018,46.1188779 5.61494877,46.5780337 6.61047146,46.9147478 C7.23821275,47.1386147 7.85087719,47.4031433 8.44480994,47.7065058 C9.81131216,48.4452668 10.9973502,49.4782529 11.9170322,50.7305373 C12.0828765,50.9630848 12.2592288,51.1855812 12.453856,51.4121894 C14.2178363,53.2501827 16.4825475,54.5294225 18.9674708,55.0909174 L18.9674708,56.9234283 C18.9674708,58.5768457 20.3079312,59.9173063 21.9613487,59.9173063 L28.9478253,59.9173063 C30.6012427,59.9173063 31.9421601,58.5768457 31.9421601,56.9234283 L31.9421601,56.7964181 C32.7773209,56.8352522 33.611568,56.8745432 34.4540387,56.9024123 C34.911367,56.9184028 35.3664108,56.9252559 35.8164291,56.9252559 C36.5350877,56.9252559 37.2363853,56.8992142 37.9303729,56.8603801 L37.9303729,56.9234283 C37.9303729,58.5768457 39.2708333,59.9173063 40.9242508,59.9173063 L47.9107274,59.9173063 C49.5646016,59.9173063 50.9050621,58.5768457 50.9050621,56.9234283 L50.9050621,53.0578399 C56.1942618,49.8446637 59.5559211,44.2269737 59.8871527,38.0473319 C60.2713815,29.9040571 55.1535088,22.0531799 46.8507858,18.0500731 L46.8507858,18.0500731 Z M34.936038,2.03027674 C39.5901864,2.01434573 43.6353253,5.22203953 44.6797332,9.75740129 C45.7236842,14.2927632 43.4891264,18.9469116 39.2964181,20.9676536 C36.0754751,20.2718385 32.7686404,20.0635051 29.4855628,20.3485929 C25.7853619,17.9408808 24.1104715,13.3854166 25.3696089,9.15387427 C26.6282895,4.92278877 30.5212902,2.02394012 34.936038,2.03027674 Z M14.1506761,17.0010965 C16.2431469,16.9576937 18.3072917,17.4894919 20.1178727,18.5393823 C19.165753,19.080318 18.2049525,19.7039474 17.2496345,20.3787463 C16.2203034,19.9127375 15.1169591,19.6331323 13.9898574,19.5522661 C13.9569627,18.6988304 14.0108736,17.8440241 14.1506761,17.0010965 Z M9.99680187,21.7799708 C10.9914108,21.5826023 12.0038377,21.4866594 13.0180922,21.4935124 C13.0359101,21.4935124 13.0509869,21.5026498 13.0678911,21.5026498 C13.0847953,21.5026498 13.1295687,21.5026498 13.160636,21.4962537 C15.0571089,21.3939145 16.896473,22.166027 18.1510416,23.5923794 C18.9839181,24.4572368 19.2196637,25.7360198 18.7495432,26.8411916 C17.9349415,28.1565241 16.5031067,28.962902 14.9561404,28.9779788 C12.7302632,28.9779788 10.2261513,26.7251462 9.98583696,21.7799708 L9.99680187,21.7799708 Z M57.8910819,37.9523027 C57.6224415,43.0500731 55.0278691,47.7416849 50.8529788,50.6793677 C50.7433297,50.2457967 50.3545322,49.9406068 49.9067982,49.9369518 C49.3558115,49.9369518 48.9089912,50.3837719 48.9089912,50.9347588 L48.9089912,56.9234283 C48.9089912,57.4744152 48.462171,57.9212353 47.9107274,57.9212353 L40.9242508,57.9212353 C40.3732639,57.9212353 39.9264437,57.4744152 39.9264437,56.9234283 L39.9264437,53.9290936 C39.9264437,53.3781067 39.4796235,52.9312865 38.9281799,52.9312865 C38.377193,52.9312865 37.9303729,53.3781067 37.9303729,53.9290936 L37.9303729,54.8524305 C36.8242873,54.91822 35.6885051,54.9520285 34.5198282,54.9072551 C33.6554276,54.8784723 32.7992508,54.8391813 31.9421601,54.7994335 L31.9421601,53.9290936 C31.9421601,53.3781067 31.494883,52.9312865 30.9438961,52.9312865 C30.3924525,52.9312865 29.9456323,53.3781067 29.9456323,53.9290936 L29.9456323,56.9234283 C29.9456323,57.4744152 29.4988122,57.9212353 28.9478253,57.9212353 L21.9613487,57.9212353 C21.4103619,57.9212353 20.9635416,57.4744152 20.9635416,56.9234283 L20.9635416,51.9330227 C20.9635416,51.3820358 20.5167215,50.9347588 19.9652778,50.9347588 C19.414291,50.9347588 18.9674708,51.3820358 18.9674708,51.9330227 L18.9674708,53.0080409 C17.0582054,52.5360929 15.3239218,51.5291484 13.9670139,50.1055373 C13.8153326,49.9287281 13.6737025,49.751462 13.5329861,49.5545504 C12.4351242,48.0587537 11.0188232,46.8256579 9.38596491,45.9448099 C8.71801895,45.6003289 8.02814327,45.3006213 7.32090643,45.0466009 C6.4738669,44.7628837 5.66429099,44.3772843 4.90953942,43.8989401 L4.72907532,43.7801535 C4.33159719,43.544408 3.95879018,43.2689145 3.61705041,42.957785 L2.02028515,34.8994883 C1.95769368,34.5961257 2.0248538,34.2804276 2.2062317,34.0291484 C2.37984281,33.7819811 2.64894012,33.6188779 2.94864772,33.5786732 C4.74506573,33.3424708 7.18019006,32.7645285 8.57775953,31.3559942 C9.28499637,30.6405336 9.96207965,29.8871527 10.6144919,29.1607274 L10.6976426,29.0675256 C11.8028143,30.2503655 13.337902,30.9375 14.9561404,30.9740497 C17.2619701,30.962628 19.3877924,29.7272478 20.5391082,27.7293495 C21.352796,25.9493787 21.0425804,23.8569078 19.7468933,22.389894 C19.5266813,22.1011513 19.2817982,21.832054 19.0149854,21.5853436 C19.7409539,21.0951206 20.4664656,20.6313963 21.1851242,20.2261513 C22.3812135,19.5609467 23.6298428,18.9935124 24.9177632,18.5293311 C25.4244335,19.3050987 26.0188232,20.0196455 26.6890533,20.6592654 C25.5633223,20.8278509 24.850603,20.9872989 24.7309028,21.0142544 C24.1936221,21.1385234 23.8582785,21.6744335 23.9825475,22.212171 C24.1063596,22.7494517 24.6427265,23.0847953 25.1800073,22.9605263 C25.3047332,22.9308297 37.8033626,20.1461988 45.3156981,25.7803363 C45.7565789,26.1106543 46.3824926,26.0215643 46.7132676,25.5806835 C47.0440423,25.1393457 46.9544957,24.5138889 46.5136147,24.183114 C45.1000549,23.1400767 43.540296,22.3122258 41.8845943,21.7260599 C42.8787463,21.0165387 43.7577668,20.1580774 44.4892178,19.1799159 C45.0146199,19.3987573 45.5153509,19.6171418 45.9795322,19.8428363 C53.5635965,23.5037463 58.2396747,30.610837 57.8910819,37.9523027 Z" id="Shape"></path>
                <path d="M31.9421601,15.2266082 C31.9421601,14.6756213 31.494883,14.2288012 30.9438961,14.2288012 C30.3924525,14.2288012 29.9456323,14.6756213 29.9456323,15.2266082 C29.9456323,17.4406068 32.1843019,19.2420504 34.936038,19.2420504 C37.6877742,19.2420504 39.9264437,17.4451754 39.9264437,15.2266082 C39.9264437,13.28856 38.2086075,11.6666667 35.9343019,11.2943165 L35.9343019,7.30217474 C37.0819627,7.5877193 37.9303729,8.33424702 37.9303729,9.1927083 C37.9303729,9.7436952 38.377193,10.1905153 38.9281799,10.1905153 C39.4796235,10.1905153 39.9264437,9.7436952 39.9264437,9.1927083 C39.9264437,7.25328947 38.2086075,5.63230994 35.9343019,5.25904608 L35.9343019,5.02467111 C35.9343019,4.47322737 35.4874818,4.02640713 34.936038,4.02640713 C34.3850512,4.02640713 33.938231,4.47322737 33.938231,5.02467111 L33.938231,5.26133041 C31.6634685,5.63459427 29.9456323,7.25740129 29.9456323,9.19453579 C29.9456323,11.1316703 31.6634685,12.7544773 33.938231,13.1277413 L33.938231,17.119883 C32.7901133,16.8315972 31.9421601,16.0850695 31.9421601,15.2266082 L31.9421601,15.2266082 Z M37.9303729,15.2266082 C37.9303729,16.0850695 37.0819627,16.8315972 35.9343019,17.1171418 L35.9343019,13.3374451 C37.0819627,13.622076 37.9303729,14.3686037 37.9303729,15.2266082 Z M31.9421601,9.19453579 C31.9421601,8.33607462 32.7901133,7.58954678 33.938231,7.30400222 L33.938231,11.0846126 C32.7901133,10.7995249 31.9421601,10.0529971 31.9421601,9.19453579 Z" id="Shape"></path>
            </g>
        </g>
    </g>
</svg>