<?xml version="1.0" encoding="UTF-8"?>
<svg width="125px" height="125px" viewBox="0 0 125 125" version="1.1" xmlns="http://www.w3.org/2000/svg" xmlns:xlink="http://www.w3.org/1999/xlink">
    <!-- Generator: Sketch 62 (91390) - https://sketch.com -->
    <title>Group 8</title>
    <desc>Created with Sketch.</desc>
    <g id="Page-1" stroke="none" stroke-width="1" fill="none" fill-rule="evenodd">
        <g id="Group-8">
            <circle id="Oval-Copy-12" fill="#DEF2FA" cx="62.5" cy="62.5" r="62.5"></circle>
            <g id="analytics" transform="translate(33.000000, 32.000000)" fill="#40ADDC" fill-rule="nonzero">
                <path d="M59.7070318,0.29285166 C59.5195322,0.10535166 59.2651186,0 58.9998066,0 L0.99995908,0 C0.734764286,0 0.480350721,0.105234473 0.292851088,0.29285166 C0.105234267,0.48035166 0,0.734765723 0,0.999961035 L0,58.999922 C0,59.2651173 0.105234267,59.5195313 0.292851088,59.7071485 C0.480350721,59.8946485 0.734764286,60 1.00007627,60 L58.9999238,60 C59.2651186,60 59.5195322,59.8947657 59.707149,59.7071485 C59.8946486,59.5196485 60,59.2652345 60,58.999922 L60,0.999961035 C60,0.734765723 59.8946486,0.48035166 59.7070318,0.29285166 Z M57.9999648,57.999961 L2.00003525,57.999961 L2.00003525,2.00003916 L57.9999648,2.00003916 L57.9999648,57.999961 L57.9999648,57.999961 Z" id="Shape"></path>
                <path d="M4.07617095,44.3826547 C4.23097599,44.7562489 4.59554715,45 4.99996215,45 C5.26527527,45.0003507 5.51968992,44.8948818 5.70695598,44.70703 L14.5000232,35.9139733 L18.7930801,40.207025 C18.9805805,40.3946424 19.234878,40.5 19.5000739,40.5 C19.7652698,40.5 20.0195673,40.3946424 20.2070677,40.207025 L35.500072,24.9140391 L38.2931253,27.7070891 C38.4806257,27.8947065 38.7349232,28.0000582 39.0001191,28.0000582 C39.2653151,28.0000582 39.5196125,27.8947065 39.707113,27.7070891 L53.0000735,14.4140273 L53.0000735,20.0000101 C53.0000735,20.5523154 53.447848,20.9999722 54.0000367,20.9999722 C54.5522255,20.9999722 55,20.5523154 55,20.0000101 L55,11.9999621 C54.9980078,11.4484771 54.5514052,11.0019922 54.0000367,11 L45.9999791,11 C45.4476732,11 45.0000159,11.4476568 45.0000159,11.9999621 C45.0000159,12.5522674 45.4477903,12.9999241 45.9999791,12.9999241 L51.5859686,12.9999241 L39,25.5858758 L36.2069486,22.7929429 C36.0194482,22.6053255 35.7651507,22.4999739 35.4999548,22.4999739 C35.2347588,22.4999739 34.9804614,22.6053255 34.7929609,22.7929429 L19.4999567,38.0859289 L15.2068999,33.7928772 C15.0193995,33.6052598 14.765102,33.4999081 14.4999061,33.4999081 C14.2347101,33.4999081 13.9804127,33.6052598 13.7929122,33.7928772 L4.29285114,43.2929269 C4.00691297,43.5789819 3.9213659,44.0090605 4.07617095,44.3826547 Z" id="Path"></path>
                <path d="M8.00005859,12 C10.2091494,12 12,10.2091494 12,8.00005859 C12,5.79096782 10.2091494,4 8.00005859,4 C5.79096782,4 4,5.79085063 4,8.00005859 C4.00234374,10.2082119 5.79190531,11.9976563 8.00005859,12 Z M8.00005859,6.0000293 C9.10466257,6.0000293 10.0000879,6.89545461 10.0000879,8.00005859 C10.0000879,9.10466257 9.10466257,10.0000879 8.00005859,10.0000879 C6.89545461,10.0000879 6.0000293,9.10454539 6.0000293,8.00005859 C6.00131835,6.89592336 6.89592336,6.00131835 8.00005859,6.0000293 Z" id="Shape"></path>
                <path d="M8.00005859,22 C10.2091494,22 12,20.2091231 12,18 C12,15.7908769 10.2091494,14 8.00005859,14 C5.79096782,14 4,15.7908769 4,18 C4.00234374,20.2081856 5.79190531,21.9976562 8.00005859,22 Z M8.00005859,15.9999414 C9.10466257,15.9999414 10.0000879,16.8953798 10.0000879,18 C10.0000879,19.1046202 9.10466257,20.0000586 8.00005859,20.0000586 C6.89545461,20.0000586 6.0000293,19.1046202 6.0000293,18 C6.00131835,16.8959658 6.89592336,16.0012305 8.00005859,15.9999414 Z" id="Shape"></path>
                <path d="M8,32 C10.2091231,32 12,30.2091494 12,28.0000586 C12,25.7909678 10.2091231,24 8,24 C5.79087686,24 4,25.7908506 4,27.9999414 C4.00222658,30.2080947 5.79181437,31.9976563 8,32 Z M8,26.0000293 C9.10462016,26.0000293 10.0000586,26.8954546 10.0000586,28.0000586 C10.0000586,29.1046626 9.10450297,29.9999707 8,29.9999707 C6.89549703,29.9999707 5.99994141,29.1045454 5.99994141,27.9999414 C6.00123048,26.8959234 6.89584859,26.0012012 8,26.0000293 Z" id="Shape"></path>
                <path d="M6.00011714,47 C5.73491148,46.9998829 5.4804875,47.1052345 5.29286299,47.2928517 C5.10535567,47.4803517 5,47.7347657 5,48.0000782 L5,55.0000391 C5,55.5523438 5.44767372,56 6,56 C6.55232619,56 7,55.5523438 7,55.0000391 L7,47.999961 C7.00011709,47.7347657 6.89476142,47.4803517 6.70713691,47.2927345 C6.51974679,47.1052345 6.2653228,46.9998829 6.00011714,47 Z" id="Path"></path>
                <path d="M11.0001171,43 C10.7349115,43 10.4804875,43.1052338 10.292863,43.2928499 C10.1053557,43.4803488 10,43.7347613 10,44.0000722 L10,55.0000451 C10,55.5523464 10.4476737,56 11,56 C11.5523262,56 12,55.5523464 12,55.0000451 L12,44.0000722 C12.0001171,43.7348785 11.8947614,43.480466 11.7071369,43.2928499 C11.5197468,43.105351 11.2653228,43 11.0001171,43 Z" id="Path"></path>
                <path d="M16.0001171,43 C15.7349115,43 15.4804875,43.1052338 15.292863,43.2928499 C15.1052385,43.480466 15,43.7347613 15,44.0000722 L15,55.0000451 C15,55.5523464 15.4476737,56 16,56 C16.5523262,56 17,55.5523464 17,55.0000451 L17,44.0000722 C17.0001171,43.7348785 16.8947614,43.480466 16.7071369,43.2928499 C16.519864,43.105351 16.26544,43 16.0001171,43 Z" id="Path"></path>
                <path d="M21.0001171,43 C20.7349115,43 20.4804875,43.1052338 20.292863,43.2928499 C20.1053557,43.4803488 20,43.7347613 20,44.0000722 L20,55.0000451 C20,55.5523464 20.4476737,56 21,56 C21.5523262,56 22,55.5523464 22,55.0000451 L22,44.0000722 C22.0001171,43.7348785 21.8947614,43.480466 21.7071369,43.2928499 C21.5197468,43.105351 21.2653228,43 21.0001171,43 Z" id="Path"></path>
                <path d="M26.0001171,39 C25.7349115,39 25.4804875,39.1052342 25.292863,39.292851 C25.1053557,39.4803506 25,39.734764 25,40.0000759 L25,55.0000414 C25,55.5523448 25.4476737,56 26,56 C26.5523262,56 27,55.5523448 27,55.0000414 L27,40.0000759 C27.0001171,39.7348812 26.8947614,39.4804677 26.7071369,39.292851 C26.5197468,39.1052342 26.2653228,39 26.0001171,39 Z" id="Path"></path>
                <path d="M31.0001171,34 C30.7349115,34 30.4804875,34.1052341 30.292863,34.2928506 C30.1053557,34.48035 30,34.7347631 30,35.0000747 L30,55.0000426 C30,55.5523453 30.4476737,56 31,56 C31.5523262,56 32,55.5523453 32,55.0000426 L32,35.0000747 C32.0001171,34.7348803 31.8947614,34.4804671 31.7071369,34.2928506 C31.519864,34.1053513 31.26544,34 31.0001171,34 Z" id="Path"></path>
                <path d="M36.0001171,31 C35.7349115,31 35.4804875,31.1052341 35.292863,31.2928507 C35.1053557,31.4803502 35,31.7347634 35,32.0000751 L35,55.0000422 C35,55.5523452 35.4476737,56 36,56 C36.5523262,56 37,55.5523452 37,55.0000422 L37,32.0000751 C37.0001171,31.7348806 36.8947614,31.4804673 36.7071369,31.2928507 C36.5197468,31.1053513 36.2653228,31 36.0001171,31 Z" id="Path"></path>
                <path d="M46.0001171,26 C45.7349115,26 45.4804875,26.1052345 45.292863,26.2928517 C45.1053557,26.4803517 45,26.7347657 45,27.0000782 L45,55.0000391 C45,55.5523438 45.4477909,56 46,56 C46.5523262,56 47,55.5523438 47,55.0000391 L47,26.999961 C47.0001171,26.7347657 46.8947614,26.4803517 46.7071369,26.2927345 C46.519864,26.1052345 46.26544,26 46.0001171,26 Z" id="Path"></path>
                <path d="M51.0001171,22 C50.7349115,22 50.4804875,22.1052342 50.292863,22.292851 C50.1053557,22.4803506 50,22.734764 50,23.0000759 L50,55.0000414 C50,55.5523448 50.4476737,56 51,56 C51.5523262,56 52,55.5523448 52,55.0000414 L52,23.0000759 C52.0001171,22.7348812 51.8947614,22.4804677 51.7071369,22.292851 C51.5197468,22.1053514 51.2653228,22 51.0001171,22 Z" id="Path"></path>
                <path d="M41.0001171,33 C40.7349115,33 40.4804875,33.1052343 40.292863,33.2928512 C40.1053557,33.4803508 40,33.7347645 40,34.0000765 L40,55.0000408 C40,55.5523445 40.4476737,56 41,56 C41.5523262,56 42,55.5523445 42,55.0000408 L42,34.0000765 C42.0001171,33.7348817 41.8947614,33.480468 41.7071369,33.2928512 C41.5197468,33.1052343 41.2653228,33 41.0001171,33 Z" id="Path"></path>
            </g>
        </g>
    </g>
</svg>