<?xml version="1.0" encoding="UTF-8"?>
<svg width="125px" height="125px" viewBox="0 0 125 125" version="1.1" xmlns="http://www.w3.org/2000/svg" xmlns:xlink="http://www.w3.org/1999/xlink">
    <!-- Generator: Sketch 62 (91390) - https://sketch.com -->
    <title>Group 5</title>
    <desc>Created with Sketch.</desc>
    <g id="Page-1" stroke="none" stroke-width="1" fill="none" fill-rule="evenodd">
        <g id="Group-5">
            <circle id="Oval-Copy-8" fill="#DEF2FA" cx="62.5" cy="62.5" r="62.5"></circle>
            <g id="settings" transform="translate(36.000000, 35.000000)" fill="#40ADDC" fill-rule="nonzero">
                <path d="M27,13 C19.28,13 13,19.28 13,27 C13,34.72 19.28,41 27,41 C34.72,41 41,34.72 41,27 C41,19.28 34.72,13 27,13 Z M27,39 C20.383,39 15,33.617 15,27 C15,20.383 20.383,15 27,15 C33.617,15 39,20.383 39,27 C39,33.617 33.617,39 27,39 Z" id="Shape"></path>
                <path d="M51.22,21 L49.202,21 C48.687,19.088 47.93,17.258 46.942,15.543 L48.368,14.117 C48.893,13.592 49.182,12.893 49.182,12.151 C49.182,11.408 48.893,10.71 48.368,10.184 L43.815,5.631 C42.765,4.582 40.934,4.58 39.882,5.631 L38.456,7.057 C36.74,6.07 34.911,5.313 33,4.798 L33,2.78 C33,1.247 31.753,0 30.22,0 L23.78,0 C22.247,0 21,1.247 21,2.78 L21,4.798 C19.089,5.313 17.26,6.07 15.543,7.058 L14.117,5.632 C13.066,4.58 11.234,4.582 10.184,5.632 L5.631,10.185 C5.106,10.71 4.817,11.409 4.817,12.152 C4.817,12.894 5.106,13.592 5.631,14.118 L7.057,15.544 C6.07,17.258 5.312,19.088 4.798,21 L2.78,21 C1.247,21 0,22.247 0,23.78 L0,30.219 C0,31.753 1.247,33 2.78,33 L4.798,33 C5.313,34.911 6.07,36.74 7.058,38.457 L5.632,39.883 C5.107,40.408 4.818,41.107 4.818,41.849 C4.818,42.592 5.107,43.29 5.632,43.816 L10.185,48.369 C11.235,49.42 13.067,49.421 14.118,48.369 L15.544,46.943 C17.261,47.93 19.09,48.688 21.001,49.203 L21.001,51.221 C21.001,52.754 22.248,54.001 23.781,54.001 L30.22,54.001 C31.753,54.001 33,52.754 33,51.221 L33,49.203 C34.911,48.688 36.74,47.931 38.457,46.943 L39.883,48.369 C40.935,49.421 42.765,49.419 43.816,48.369 L48.369,43.816 C48.894,43.291 49.183,42.592 49.183,41.849 C49.183,41.107 48.894,40.409 48.369,39.883 L46.943,38.457 C47.93,36.74 48.688,34.911 49.203,33 L51.221,33 C52.754,33 54.001,31.753 54.001,30.22 L54.001,23.78 C54,22.247 52.753,21 51.22,21 Z M52,30.22 C52,30.65 51.65,31 51.22,31 L47.628,31 L47.448,31.773 C46.927,34.01 46.049,36.133 44.835,38.084 L44.415,38.758 L46.954,41.297 C47.259,41.602 47.259,42.097 46.954,42.401 L42.401,46.954 C42.097,47.258 41.602,47.26 41.297,46.954 L38.758,44.415 L38.084,44.835 C36.134,46.049 34.011,46.928 31.773,47.448 L31,47.628 L31,51.22 C31,51.65 30.65,52 30.22,52 L23.78,52 C23.35,52 23,51.65 23,51.22 L23,47.628 L22.227,47.448 C19.99,46.927 17.867,46.049 15.916,44.835 L15.242,44.415 L12.703,46.954 C12.397,47.26 11.902,47.258 11.599,46.954 L7.046,42.401 C6.741,42.096 6.741,41.601 7.046,41.297 L9.585,38.758 L9.165,38.084 C7.951,36.134 7.072,34.011 6.552,31.773 L6.372,31 L2.78,31 C2.35,31 2,30.65 2,30.22 L2,23.78 C2,23.35 2.35,23 2.78,23 L6.372,23 L6.552,22.227 C7.073,19.989 7.951,17.866 9.165,15.916 L9.585,15.242 L7.046,12.703 C6.741,12.398 6.741,11.903 7.046,11.599 L11.599,7.046 C11.903,6.742 12.398,6.74 12.703,7.046 L15.242,9.585 L15.916,9.165 C17.866,7.951 19.989,7.072 22.227,6.552 L23,6.372 L23,2.78 C23,2.35 23.35,2 23.78,2 L30.219,2 C30.65,2 31,2.35 31,2.78 L31,6.372 L31.773,6.552 C34.01,7.073 36.133,7.951 38.084,9.165 L38.758,9.585 L41.297,7.046 C41.603,6.74 42.098,6.742 42.401,7.046 L46.954,11.599 C47.259,11.904 47.259,12.399 46.954,12.703 L44.415,15.242 L44.835,15.916 C46.049,17.865 46.928,19.988 47.448,22.227 L47.628,23 L51.22,23 C51.65,23 52,23.35 52,23.78 L52,30.22 Z" id="Shape"></path>
                <path d="M27,17 C21.486,17 17,21.486 17,27 C17,32.514 21.486,37 27,37 C32.514,37 37,32.514 37,27 C37,21.486 32.514,17 27,17 Z M27,35 C22.589,35 19,31.411 19,27 C19,22.589 22.589,19 27,19 C31.411,19 35,22.589 35,27 C35,31.411 31.411,35 27,35 Z" id="Shape"></path>
            </g>
        </g>
    </g>
</svg>