<?xml version="1.0" encoding="UTF-8"?>
<svg width="125px" height="125px" viewBox="0 0 125 125" version="1.1" xmlns="http://www.w3.org/2000/svg" xmlns:xlink="http://www.w3.org/1999/xlink">
    <!-- Generator: Sketch 62 (91390) - https://sketch.com -->
    <title>Group 6</title>
    <desc>Created with Sketch.</desc>
    <g id="Page-1" stroke="none" stroke-width="1" fill="none" fill-rule="evenodd">
        <g id="Group-6">
            <circle id="Oval-Copy-10" fill="#DEF2FA" cx="62.5" cy="62.5" r="62.5"></circle>
            <g id="users" transform="translate(33.000000, 32.000000)" fill="#40ADDC" fill-rule="nonzero">
                <path d="M55.014,43.389 L45.461,38.613 C44.56,38.162 44,37.256 44,36.248 L44,32.867 C44.229,32.587 44.47,32.268 44.719,31.916 C45.958,30.166 46.951,28.218 47.673,26.117 C49.084,25.47 50,24.075 50,22.5 L50,18.5 C50,17.537 49.64,16.604 49,15.875 L49,10.556 C49.056,10.006 49.276,6.732 46.908,4.031 C44.854,1.688 41.521,0.5 37,0.5 C32.479,0.5 29.146,1.688 27.092,4.03 C25.657,5.667 25.174,7.511 25.028,8.835 C23.314,7.949 21.294,7.5 19,7.5 C8.611,7.5 8.006,16.355 8,16.5 L8,21.079 C7.352,21.785 7,22.6 7,23.409 L7,26.863 C7,27.942 7.483,28.948 8.311,29.628 C9.136,32.738 11.165,35.088 11.955,35.913 L11.955,38.656 C11.955,39.443 11.527,40.165 10.784,40.571 L4.131,44.744 C1.583,46.134 0,48.801 0,51.703 L0,55.5 L14,55.5 L16,55.5 L60,55.5 L60,51.457 C60,48.019 58.089,44.927 55.014,43.389 Z M14,51.262 L14,53.5 L2,53.5 L2,51.703 C2,49.533 3.184,47.539 5.141,46.47 L11.793,42.297 C13.126,41.57 13.954,40.176 13.954,38.656 L13.954,35.065 L13.636,34.768 C13.61,34.744 10.953,32.234 10.168,28.813 L10.077,28.417 L9.735,28.197 C9.275,27.899 9,27.4 9,26.863 L9,23.409 C9,23.049 9.245,22.621 9.671,22.235 L10,21.938 L9.998,16.558 C10.016,16.271 10.537,9.5 19,9.5 C21.393,9.5 23.408,10.053 25,11.144 L25,15.875 C24.36,16.604 24,17.537 24,18.5 L24,22.5 C24,22.804 24.035,23.103 24.101,23.393 C24.128,23.509 24.182,23.615 24.219,23.727 C24.274,23.895 24.318,24.068 24.395,24.227 C24.396,24.229 24.397,24.23 24.398,24.232 C24.654,24.76 25.027,25.232 25.497,25.609 C25.502,25.628 25.508,25.645 25.513,25.663 C25.573,25.892 25.636,26.12 25.704,26.343 L25.785,26.604 C25.799,26.65 25.816,26.697 25.831,26.743 C25.866,26.851 25.9,26.958 25.936,27.064 C25.996,27.239 26.059,27.42 26.132,27.617 C26.163,27.699 26.197,27.773 26.229,27.854 C26.311,28.063 26.393,28.265 26.479,28.465 C26.5,28.513 26.518,28.565 26.539,28.612 L26.595,28.738 C26.621,28.796 26.648,28.848 26.674,28.905 C26.772,29.119 26.868,29.326 26.968,29.526 C26.984,29.558 26.999,29.593 27.015,29.625 C27.078,29.75 27.141,29.868 27.204,29.988 C27.312,30.194 27.418,30.388 27.524,30.576 C27.576,30.668 27.627,30.758 27.678,30.845 C27.822,31.091 27.959,31.317 28.092,31.527 C28.121,31.572 28.149,31.619 28.177,31.662 C28.419,32.037 28.629,32.341 28.803,32.578 C28.849,32.641 28.889,32.695 28.928,32.748 C28.95,32.777 28.98,32.819 28.999,32.845 L28.999,36.154 C28.999,37.122 28.471,38.01 27.622,38.474 L24.976,39.917 L24.515,39.876 L24.327,40.271 L18.701,43.34 C15.801,44.924 14,47.958 14,51.262 Z M58,53.5 L16,53.5 L16,51.262 C16,48.691 17.402,46.328 19.659,45.098 L28.58,40.232 C30.073,39.417 31,37.854 31,36.155 L31,32.137 L31,32.136 L30.806,31.904 L30.768,31.859 C30.766,31.856 30.704,31.781 30.603,31.649 C30.597,31.641 30.591,31.633 30.584,31.625 C30.531,31.556 30.469,31.473 30.398,31.374 C30.397,31.372 30.396,31.371 30.395,31.369 C30.246,31.162 30.059,30.893 29.851,30.569 C29.846,30.562 29.842,30.554 29.837,30.547 C29.739,30.394 29.635,30.227 29.529,30.05 C29.521,30.037 29.513,30.024 29.505,30.01 C29.279,29.631 29.039,29.202 28.8,28.727 C28.8,28.727 28.799,28.726 28.799,28.725 C28.672,28.47 28.545,28.202 28.421,27.923 L28.421,27.923 C28.404,27.884 28.386,27.846 28.369,27.807 L28.369,27.807 C28.314,27.682 28.259,27.551 28.203,27.416 C28.183,27.367 28.163,27.316 28.143,27.266 C28.091,27.135 28.038,27.003 27.982,26.852 C27.88,26.58 27.784,26.296 27.692,26.003 L27.637,25.825 C27.631,25.805 27.624,25.785 27.618,25.764 C27.524,25.448 27.434,25.125 27.358,24.793 L27.267,24.397 L26.926,24.177 C26.346,23.803 26,23.176 26,22.5 L26,18.5 C26,17.939 26.238,17.416 26.67,17.025 L27,16.728 L27,10.5 L27,10.146 L26.973,10.125 C26.939,9.403 26.982,7.19 28.596,5.349 C30.253,3.458 33.081,2.5 37,2.5 C40.905,2.5 43.727,3.451 45.386,5.328 C47.333,7.529 47.011,10.345 47.009,10.369 L47,16.728 L47.33,17.026 C47.762,17.416 48,17.939 48,18.5 L48,22.5 C48,23.373 47.428,24.137 46.578,24.399 L46.08,24.552 L45.92,25.047 C45.251,27.128 44.298,29.05 43.086,30.76 C42.789,31.181 42.5,31.554 42.249,31.839 L42,32.123 L42,36.248 C42,38.018 42.983,39.609 44.566,40.401 L54.119,45.177 C56.513,46.374 58,48.78 58,51.457 L58,53.5 Z" id="Shape"></path>
            </g>
        </g>
    </g>
</svg>