<?xml version="1.0" encoding="UTF-8"?>
<svg width="125px" height="125px" viewBox="0 0 125 125" version="1.1" xmlns="http://www.w3.org/2000/svg" xmlns:xlink="http://www.w3.org/1999/xlink">
    <!-- Generator: Sketch 62 (91390) - https://sketch.com -->
    <title>Group 15</title>
    <desc>Created with Sketch.</desc>
    <g id="Page-1" stroke="none" stroke-width="1" fill="none" fill-rule="evenodd">
        <g id="Group-15">
            <circle id="Oval-Copy-18" fill="#DEF2FA" cx="62.5" cy="62.5" r="62.5"></circle>
            <g id="product" transform="translate(33.000000, 32.000000)" fill="#40ADDC" fill-rule="nonzero">
                <path d="M54.0629032,41.1106452 L48.8893548,35.936129 L46.8222581,37.1758065 L46.2396774,34.8387097 L43.5483871,34.8387097 L43.5483871,32.9032258 L12.5806452,32.9032258 L12.5806452,46.4516129 L30,46.4516129 L30,51.0783871 L32.3370968,51.6619355 L31.0983871,53.7280645 L36.2719355,58.9025806 L38.3390323,57.6629032 L38.9216129,60 L46.2396774,60 L46.8232258,57.6619355 L48.8903226,58.9016129 L54.063871,53.7270968 L52.8251613,51.6609677 L55.1612903,51.0783871 L55.1612903,43.7603226 L52.8232258,43.1767742 L54.0629032,41.1106452 Z M43.5483871,47.4193548 C43.5483871,47.9525806 43.1148387,48.3870968 42.5806452,48.3870968 C42.0464516,48.3870968 41.6129032,47.9525806 41.6129032,47.4193548 C41.6129032,46.886129 42.0464516,46.4516129 42.5806452,46.4516129 C43.1148387,46.4516129 43.5483871,46.886129 43.5483871,47.4193548 Z M41.6129032,44.516129 L22.2580645,44.516129 L22.2580645,40.6451613 L41.6129032,40.6451613 L41.6129032,44.516129 Z M37.8541935,46.4516129 L39.8564516,46.4516129 C39.7470968,46.7554839 39.6774194,47.0787097 39.6774194,47.4193548 C39.6774194,49.02 40.98,50.3225806 42.5806452,50.3225806 C44.1812903,50.3225806 45.483871,49.02 45.483871,47.4193548 C45.483871,46.1593548 44.6719355,45.0948387 43.5483871,44.6941935 L43.5483871,42.6783871 C45.753871,43.1283871 47.4193548,45.0822581 47.4193548,47.4193548 C47.4193548,50.0874194 45.2487097,52.2580645 42.5806452,52.2580645 C39.9125806,52.2580645 37.7419355,50.0874194 37.7419355,47.4193548 C37.7419355,47.096129 37.7864516,46.7729032 37.8541935,46.4516129 Z M41.6129032,38.7096774 L22.2580645,38.7096774 L22.2580645,34.8387097 L41.6129032,34.8387097 L41.6129032,38.7096774 Z M20.3225806,34.8387097 L20.3225806,38.7096774 L14.516129,38.7096774 L14.516129,34.8387097 L20.3225806,34.8387097 Z M14.516129,40.6451613 L20.3225806,40.6451613 L20.3225806,44.516129 L14.516129,44.516129 L14.516129,40.6451613 Z M53.2258065,45.2719355 L53.2258065,49.5667742 L51.3396774,50.0380645 L50.8229032,50.2335484 L50.3729032,51.3387097 L51.6270968,53.4290323 L48.5893548,56.4658065 L46.5,55.2116129 L45.3193548,55.6983871 L44.7280645,58.0645161 L40.4332258,58.0645161 L39.8419355,55.6974194 L38.6612903,55.2106452 L36.5719355,56.4648387 L33.5341935,53.4280645 L34.7883871,51.3377419 L34.3083871,50.1590323 L31.9354839,49.5667742 L31.9354839,46.4516129 L35.8906452,46.4516129 C35.8432258,46.7729032 35.8064516,47.0951613 35.8064516,47.4193548 C35.8064516,51.1548387 38.846129,54.1935484 42.5806452,54.1935484 C46.3151613,54.1935484 49.3548387,51.1548387 49.3548387,47.4193548 C49.3548387,44.013871 46.8251613,41.1948387 43.5483871,40.7225806 L43.5483871,36.7741935 L44.7280645,36.7741935 L45.3193548,39.1412903 L46.5,39.6280645 L48.5893548,38.373871 L51.6270968,41.4106452 L50.3729032,43.4990323 L50.8529032,44.6796774 L53.2258065,45.2719355 Z" id="Shape"></path>
                <path d="M29.0322581,19.3548387 L29.0322581,29.0322581 L60,29.0322581 L60,19.3548387 L29.0322581,19.3548387 Z M30.9677419,21.2903226 L36.7741935,21.2903226 L36.7741935,27.0967742 L30.9677419,27.0967742 L30.9677419,21.2903226 Z M58.0645161,27.0967742 L38.7096774,27.0967742 L38.7096774,21.2903226 L58.0645161,21.2903226 L58.0645161,27.0967742 Z" id="Shape"></path>
                <polygon id="Path" points="26.1290323 48.3870968 28.0645161 48.3870968 28.0645161 50.3225806 26.1290323 50.3225806"></polygon>
                <polygon id="Path" points="22.2580645 48.3870968 24.1935484 48.3870968 24.1935484 50.3225806 22.2580645 50.3225806"></polygon>
                <path d="M1.93548387,45.483871 L1.93548387,28.0645161 C1.93548387,26.463871 3.23806452,25.1612903 4.83870968,25.1612903 L17.4193548,25.1612903 L17.4193548,29.6303226 L28.2929032,24.1935484 L17.4193548,18.7567742 L17.4193548,23.2258065 L4.83870968,23.2258065 C2.17064516,23.2258065 0,25.3964516 0,28.0645161 L0,45.483871 C0,48.1519355 2.17064516,50.3225806 4.83870968,50.3225806 L20.3225806,50.3225806 L20.3225806,48.3870968 L4.83870968,48.3870968 C3.23806452,48.3870968 1.93548387,47.0845161 1.93548387,45.483871 Z M19.3548387,21.8883871 L23.9651613,24.1935484 L19.3548387,26.4987097 L19.3548387,21.8883871 Z" id="Shape"></path>
                <path d="M36.7741935,0 L5.80645161,0 L5.80645161,13.5483871 L36.7741935,13.5483871 L36.7741935,0 Z M34.8387097,5.80645161 L15.483871,5.80645161 L15.483871,1.93548387 L34.8387097,1.93548387 L34.8387097,5.80645161 Z M13.5483871,1.93548387 L13.5483871,5.80645161 L7.74193548,5.80645161 L7.74193548,1.93548387 L13.5483871,1.93548387 Z M7.74193548,7.74193548 L13.5483871,7.74193548 L13.5483871,11.6129032 L7.74193548,11.6129032 L7.74193548,7.74193548 Z M15.483871,11.6129032 L15.483871,7.74193548 L34.8387097,7.74193548 L34.8387097,11.6129032 L15.483871,11.6129032 Z" id="Shape"></path>
                <polygon id="Path" points="46.4516129 23.2258065 48.3870968 23.2258065 48.3870968 25.1612903 46.4516129 25.1612903"></polygon>
                <polygon id="Path" points="50.3225806 23.2258065 52.2580645 23.2258065 52.2580645 25.1612903 50.3225806 25.1612903"></polygon>
                <polygon id="Path" points="54.1935484 23.2258065 56.1290323 23.2258065 56.1290323 25.1612903 54.1935484 25.1612903"></polygon>
                <polygon id="Path" points="38.7096774 5.80645161 40.6451613 5.80645161 40.6451613 7.74193548 38.7096774 7.74193548"></polygon>
                <path d="M52.2580645,8.70967742 L52.2580645,11.6129032 L48.3870968,11.6129032 L53.2258065,18.0648387 L58.0645161,11.6129032 L54.1935484,11.6129032 L54.1935484,8.70967742 C54.1935484,7.10903226 52.8909677,5.80645161 51.2903226,5.80645161 L42.5806452,5.80645161 L42.5806452,7.74193548 L51.2903226,7.74193548 C51.8245161,7.74193548 52.2580645,8.17645161 52.2580645,8.70967742 Z M53.2258065,14.8383871 L52.2580645,13.5483871 L54.1935484,13.5483871 L53.2258065,14.8383871 Z" id="Shape"></path>
            </g>
        </g>
    </g>
</svg>