<?xml version="1.0" encoding="UTF-8"?>
<svg width="125px" height="125px" viewBox="0 0 125 125" version="1.1" xmlns="http://www.w3.org/2000/svg" xmlns:xlink="http://www.w3.org/1999/xlink">
    <!-- Generator: Sketch 62 (91390) - https://sketch.com -->
    <title>Group 12</title>
    <desc>Created with Sketch.</desc>
    <g id="Page-1" stroke="none" stroke-width="1" fill="none" fill-rule="evenodd">
        <g id="Group-12">
            <circle id="Oval-Copy-16" fill="#DEF2FA" cx="62.5" cy="62.5" r="62.5"></circle>
            <g id="target" transform="translate(33.000000, 32.000000)" fill="#40ADDC" fill-rule="nonzero">
                <path d="M59.8828125,8.01086426 C59.6195984,7.25509641 58.9622497,6.72821039 58.1666565,6.63619992 L53.8604736,6.13952637 L53.3633423,1.83380133 C53.2717896,1.03820801 52.7453613,0.380401641 51.9891357,0.1171875 C51.2333679,-0.146484375 50.4121399,0.0416565234 49.8458862,0.607910156 L41.3337708,9.12002566 C40.8847045,9.5690918 40.6686401,10.188446 40.7414245,10.8197021 L41.3571166,16.1563111 L39.4610596,18.0528259 C30.091095,9.96002203 15.8738708,10.359192 6.98226926,19.2507935 C-2.32727051,28.5603333 -2.32727051,43.7081909 6.98226926,53.0177307 C16.2918091,62.3272705 31.4396667,62.3272705 40.7492065,53.0177307 C49.640808,44.1261292 50.039978,29.908905 41.9471741,20.5393982 L43.8436889,18.6428834 L49.1802979,19.2585755 C49.8110962,19.3313599 50.4309082,19.1157532 50.8799743,18.6662292 L59.3920898,10.1541138 C59.9583435,9.58786008 60.1460266,8.76663211 59.8828125,8.01086426 L59.8828125,8.01086426 Z M38.2626342,50.5316162 C30.3240967,58.4701537 17.4069213,58.4701537 9.46838379,50.5316162 C1.52984625,42.5926208 1.52984625,29.6759033 9.46838379,21.7369079 C16.9885254,14.2172241 28.9755248,13.8208008 36.9667054,20.5471802 L33.7518311,23.7620544 C27.5395202,18.7907409 18.4222412,19.1825866 12.6681518,24.9366761 C6.49383539,31.1109925 6.49383539,41.1575318 12.6681518,47.3318482 C18.8424682,53.5061646 28.8890075,53.5061646 35.0633239,47.3318482 C40.8174134,41.5777588 41.2092591,32.4604798 36.2379456,26.2481689 L39.4528198,23.0332946 C46.1791992,31.0244752 45.7827759,43.0114746 38.2626342,50.5316162 Z M22.9371643,37.0628357 C23.6238098,37.7494812 24.7370911,37.7494812 25.4237366,37.0628357 L27.7610779,34.7250366 C28.2856751,36.1857605 27.9638672,37.8845215 26.7956543,39.0527344 C25.1834107,40.6654358 22.5595092,40.6654358 20.9472656,39.0527344 C19.3345642,37.4404908 19.3345642,34.8170471 20.9472656,33.2043457 C22.1150208,32.0361328 23.8142395,31.7143249 25.2745056,32.2389221 L22.9371643,34.5767213 C22.2505188,35.2629089 22.2505188,36.3761902 22.9371643,37.0628357 Z M27.8942871,29.6191406 C24.9449157,27.7963256 21.016388,28.1625366 18.4606934,30.7182312 C15.4774475,33.7014771 15.4774475,38.5560608 18.4606934,41.5393066 C21.4439392,44.5225525 26.2985229,44.5230103 29.2817688,41.5393066 C31.8374634,38.983612 32.2036744,35.0550843 30.3808594,32.1057129 L33.7316895,28.7544251 C37.342987,33.5765075 36.9584655,40.4640198 32.5767517,44.8457337 C27.7734375,49.6490479 19.9575806,49.6490479 15.1542663,44.8457337 C10.3509521,40.0424194 10.3509521,32.2265625 15.1542663,27.4232483 C19.5355225,23.0415345 26.4234925,22.6565552 31.2451172,26.2683105 L27.8942871,29.6191406 Z M48.8882447,15.6852722 L44.7880554,15.2119446 L44.3147278,11.1117553 L50.2139283,5.21255496 L50.5114746,7.78839117 C50.6149291,8.68515012 51.3134766,9.38461301 52.2116088,9.48898313 L54.787445,9.78607172 L48.8882447,15.6852722 Z" id="Shape"></path>
            </g>
        </g>
    </g>
</svg>