<?xml version="1.0" encoding="UTF-8"?>
<svg width="125px" height="125px" viewBox="0 0 125 125" version="1.1" xmlns="http://www.w3.org/2000/svg" xmlns:xlink="http://www.w3.org/1999/xlink">
    <!-- Generator: Sketch 62 (91390) - https://sketch.com -->
    <title>Group 10</title>
    <desc>Created with Sketch.</desc>
    <g id="Page-1" stroke="none" stroke-width="1" fill="none" fill-rule="evenodd">
        <g id="Group-10">
            <circle id="Oval-Copy-14" fill="#DEF2FA" cx="62.5" cy="62.5" r="62.5"></circle>
            <g id="layers" transform="translate(35.000000, 35.000000)" fill="#40ADDC" fill-rule="nonzero">
                <circle id="Oval" cx="45.021" cy="25.976" r="1"></circle>
                <circle id="Oval" cx="9.021" cy="25.976" r="1"></circle>
                <circle id="Oval" cx="12.021" cy="28.976" r="1"></circle>
                <circle id="Oval" cx="18.021" cy="28.976" r="1"></circle>
                <circle id="Oval" cx="15.021" cy="31.976" r="1"></circle>
                <circle id="Oval" cx="21.021" cy="31.976" r="1"></circle>
                <circle id="Oval" cx="24.021" cy="34.976" r="1"></circle>
                <circle id="Oval" cx="30.021" cy="34.976" r="1"></circle>
                <circle id="Oval" cx="33.021" cy="31.976" r="1"></circle>
                <circle id="Oval" cx="27.021" cy="37.976" r="1"></circle>
                <circle id="Oval" cx="36.021" cy="28.976" r="1"></circle>
                <circle id="Oval" cx="42.021" cy="28.976" r="1"></circle>
                <circle id="Oval" cx="39.021" cy="31.976" r="1"></circle>
                <path d="M45.559,32.796 L54.953,27.429 L45.297,21.946 L54.953,16.429 L27.477,0.826 L0,16.429 L9.656,21.946 L0,27.429 L9.656,32.946 L0,38.429 L27.477,54.127 L54.954,38.429 L45.298,32.946 L45.369,32.905 C45.439,32.879 45.497,32.837 45.559,32.796 Z M27.477,3.125 L50.913,16.434 L43.276,20.798 L43.276,20.798 L27.478,29.824 L4.041,16.434 L27.477,3.125 Z M11.129,23.409 C11.291,23.742 11.626,23.976 12.021,23.976 C12.291,23.976 12.533,23.867 12.713,23.693 L14.975,24.985 C14.445,25.01 14.021,25.44 14.021,25.976 C14.021,26.528 14.469,26.976 15.021,26.976 C15.573,26.976 16.021,26.528 16.021,25.976 C16.021,25.803 15.966,25.649 15.889,25.507 L26.219,31.409 C26.103,31.572 26.021,31.761 26.021,31.976 C26.021,32.528 26.469,32.976 27.021,32.976 C27.573,32.976 28.021,32.528 28.021,31.976 C28.021,31.925 28,31.882 27.992,31.833 L38.044,26.09 C38.103,26.586 38.509,26.975 39.021,26.975 C39.573,26.975 40.021,26.527 40.021,25.975 C40.021,25.65 39.856,25.374 39.615,25.192 L41.817,23.934 C41.885,23.949 41.949,23.975 42.021,23.975 C42.465,23.975 42.828,23.681 42.959,23.281 L43.279,23.098 L50.913,27.433 L48.93,28.566 C48.773,28.219 48.427,27.975 48.022,27.975 C47.47,27.975 47.022,28.423 47.022,28.975 C47.022,29.191 47.105,29.38 47.221,29.543 L43.276,31.797 L43.276,31.797 L36.888,35.447 C36.966,35.305 37.022,35.149 37.022,34.975 C37.022,34.423 36.574,33.975 36.022,33.975 C35.47,33.975 35.022,34.423 35.022,34.975 C35.022,35.512 35.448,35.942 35.979,35.966 L33.716,37.259 C33.536,37.085 33.293,36.975 33.022,36.975 C32.47,36.975 32.022,37.423 32.022,37.975 C32.022,38.055 32.05,38.126 32.068,38.201 L27.478,40.823 L21.961,37.671 C21.831,37.27 21.467,36.975 21.022,36.975 C20.949,36.975 20.884,37.002 20.816,37.017 L18.615,35.76 C18.856,35.577 19.022,35.302 19.022,34.976 C19.022,34.424 18.574,33.976 18.022,33.976 C17.51,33.976 17.103,34.367 17.045,34.863 L6.991,29.12 C6.998,29.071 7.02,29.027 7.02,28.976 C7.02,28.424 6.572,27.976 6.02,27.976 C5.781,27.976 5.571,28.071 5.399,28.211 L4.04,27.435 L11.129,23.409 Z M50.912,38.434 L27.476,51.824 L4.041,38.434 L11.674,34.099 L27.477,43.127 L43.279,34.099 L50.912,38.434 Z" id="Shape"></path>
            </g>
        </g>
    </g>
</svg>