<?xml version="1.0" encoding="UTF-8"?>
<svg width="125px" height="125px" viewBox="0 0 125 125" version="1.1" xmlns="http://www.w3.org/2000/svg" xmlns:xlink="http://www.w3.org/1999/xlink">
    <!-- Generator: Sketch 62 (91390) - https://sketch.com -->
    <title>Group 11</title>
    <desc>Created with Sketch.</desc>
    <g id="Page-1" stroke="none" stroke-width="1" fill="none" fill-rule="evenodd">
        <g id="Group-11">
            <circle id="Oval-Copy-15" fill="#DEF2FA" cx="62.5" cy="62.5" r="62.5"></circle>
            <g id="profiles" transform="translate(35.000000, 30.000000)" fill="#40ADDC" fill-rule="nonzero">
                <path d="M41.2517676,0 L3.92754883,0 C1.82749023,0 0.118955078,1.70853516 0.118955078,3.80859375 L0.118955078,16.7578125 C0.118955078,17.4589746 0.687451172,18.0273438 1.38848633,18.0273438 C2.08952148,18.0273438 2.65801758,17.4589746 2.65801758,16.7578125 L2.65801758,3.80859375 C2.65801758,3.10857422 3.2275293,2.5390625 3.92754883,2.5390625 L41.2517676,2.5390625 C41.9517871,2.5390625 42.5212988,3.10857422 42.5212988,3.80859375 L42.5212988,51.0351562 C42.5212988,51.7351758 41.9517871,52.3046875 41.2517676,52.3046875 L3.92754883,52.3046875 C3.2275293,52.3046875 2.65801758,51.7351758 2.65801758,51.0351562 L2.65801758,27.4641504 C2.65801758,26.7629883 2.08952148,26.1946191 1.38848633,26.1946191 C0.687451172,26.1946191 0.118955078,26.7629883 0.118955078,27.4641504 L0.118955078,51.0351562 C0.118955078,53.1352148 1.82749023,54.84375 3.92754883,54.84375 L41.2517676,54.84375 C43.3518262,54.84375 45.0603613,53.1352148 45.0603613,51.0351562 L45.0603613,3.80859375 C45.0603613,1.70853516 43.3518262,0 41.2517676,0 Z" id="Path"></path>
                <path d="M2.28591797,21.5439453 C2.04991211,21.3078125 1.72237305,21.1732422 1.38848633,21.1732422 C1.05459961,21.1732422 0.727060547,21.3078125 0.490927734,21.5439453 C0.254667969,21.7813477 0.118955078,22.1088867 0.118955078,22.4415039 C0.118955078,22.7766602 0.254794922,23.1029297 0.490927734,23.340332 C0.727060547,23.5764648 1.05459961,23.7123047 1.38848633,23.7123047 C1.72224609,23.7123047 2.04978516,23.5764648 2.28591797,23.340332 C2.52217773,23.1041992 2.65801758,22.7766602 2.65801758,22.4415039 C2.65801758,22.1076172 2.52205078,21.7813477 2.28591797,21.5439453 Z" id="Path"></path>
                <path d="M7.37166016,57.7624023 C7.13552734,57.5262695 6.80938477,57.3904297 6.47410156,57.3904297 C6.14021484,57.3904297 5.81267578,57.5262695 5.57666992,57.7624023 C5.34041016,57.9985352 5.20457031,58.3260742 5.20457031,58.6599609 C5.20457031,58.9951172 5.34053711,59.3213867 5.57666992,59.5575195 C5.81267578,59.7949219 6.14021484,59.9294922 6.47410156,59.9294922 C6.80938477,59.9294922 7.13552734,59.7949219 7.37166016,59.5575195 C7.60791992,59.3213867 7.74363281,58.9951172 7.74363281,58.6599609 C7.74363281,58.3260742 7.60779297,57.9985352 7.37166016,57.7624023 Z" id="Path"></path>
                <path d="M48.8769531,5.08612305 C48.175918,5.08612305 47.6074219,5.65449219 47.6074219,6.3556543 L47.6074219,56.1212793 C47.6074219,56.8212988 47.0379102,57.3908105 46.3378906,57.3908105 L11.5527344,57.3908105 C10.8516992,57.3908105 10.2832031,57.9591797 10.2832031,58.6603418 C10.2832031,59.3615039 10.8516992,59.929873 11.5527344,59.929873 L46.3378906,59.929873 C48.4379492,59.929873 50.1464844,58.2213379 50.1464844,56.1212793 L50.1464844,6.3556543 C50.1464844,5.65449219 49.5779883,5.08612305 48.8769531,5.08612305 Z" id="Path"></path>
                <path d="M53.9630762,10.15625 C53.262041,10.15625 52.6935449,10.7246191 52.6935449,11.4257812 L52.6935449,61.1914062 C52.6935449,61.8914258 52.1240332,62.4609375 51.4240137,62.4609375 L11.5607324,62.4609375 C10.8596973,62.4609375 10.2912012,63.0293066 10.2912012,63.7304688 C10.2912012,64.4316309 10.8596973,65 11.5607324,65 L51.4240137,65 C53.5240723,65 55.2326074,63.2914648 55.2326074,61.1914062 L55.2326074,11.4257812 C55.2326074,10.7246191 54.6641113,10.15625 53.9630762,10.15625 Z" id="Path"></path>
                <path d="M20.6853613,9.39453125 L8.49786133,9.39453125 C7.79682617,9.39453125 7.22833008,9.96290039 7.22833008,10.6640625 L7.22833008,22.8515625 C7.22833008,23.5527246 7.79682617,24.1210938 8.49786133,24.1210938 L20.6853613,24.1210938 C21.3863965,24.1210938 21.9548926,23.5527246 21.9548926,22.8515625 L21.9548926,10.6640625 C21.9548926,9.96290039 21.3863965,9.39453125 20.6853613,9.39453125 Z M19.4158301,21.5820312 L9.76739258,21.5820312 L9.76739258,11.9335938 L19.4158301,11.9335938 L19.4158301,21.5820312 Z" id="Shape"></path>
                <path d="M16.6005176,29.8850195 C16.1046387,29.3893945 15.3010254,29.3892676 14.8050195,29.8850195 L11.4302246,33.2598145 L9.86108398,31.6905469 C9.36533203,31.1947949 8.56171875,31.1949219 8.06558594,31.6905469 C7.56983398,32.1862988 7.56983398,32.990166 8.06558594,33.485918 L10.5325391,35.9528711 C10.7707031,36.1909082 11.0935449,36.3247168 11.4302246,36.3247168 C11.7670312,36.3247168 12.0897461,36.1909082 12.3280371,35.9528711 L16.6005176,31.6803906 C17.0962695,31.1846387 17.0962695,30.3807715 16.6005176,29.8850195 Z" id="Path"></path>
                <path d="M37.4008984,31.6113281 L22.5896582,31.6113281 C21.888623,31.6113281 21.320127,32.1796973 21.320127,32.8808594 C21.320127,33.5820215 21.888623,34.1503906 22.5896582,34.1503906 L37.4008984,34.1503906 C38.1019336,34.1503906 38.6704297,33.5820215 38.6704297,32.8808594 C38.6704297,32.1796973 38.1019336,31.6113281 37.4008984,31.6113281 Z" id="Path"></path>
                <path d="M36.6814551,9.39453125 L27.7947363,9.39453125 C27.0937012,9.39453125 26.5252051,9.96290039 26.5252051,10.6640625 C26.5252051,11.3652246 27.0937012,11.9335938 27.7947363,11.9335938 L36.6814551,11.9335938 C37.3824902,11.9335938 37.9509863,11.3652246 37.9509863,10.6640625 C37.9509863,9.96290039 37.3824902,9.39453125 36.6814551,9.39453125 Z" id="Path"></path>
                <path d="M36.6814551,15.4882812 L27.7947363,15.4882812 C27.0937012,15.4882812 26.5252051,16.0566504 26.5252051,16.7578125 C26.5252051,17.4589746 27.0937012,18.0273438 27.7947363,18.0273438 L36.6814551,18.0273438 C37.3824902,18.0273438 37.9509863,17.4589746 37.9509863,16.7578125 C37.9509863,16.0566504 37.3824902,15.4882812 36.6814551,15.4882812 Z" id="Path"></path>
                <path d="M36.6814551,21.5820312 L27.7947363,21.5820312 C27.0937012,21.5820312 26.5252051,22.1504004 26.5252051,22.8515625 C26.5252051,23.5527246 27.0937012,24.1210938 27.7947363,24.1210938 L36.6814551,24.1210938 C37.3824902,24.1210938 37.9509863,23.5527246 37.9509863,22.8515625 C37.9509863,22.1504004 37.3824902,21.5820312 36.6814551,21.5820312 Z" id="Path"></path>
                <path d="M16.6005176,39.5800488 C16.1046387,39.0844238 15.3010254,39.0842969 14.8050195,39.5800488 L11.4302246,42.9548437 L9.86108398,41.3855762 C9.36533203,40.8898242 8.56171875,40.8899512 8.06558594,41.3855762 C7.56983398,41.8813281 7.56983398,42.6851953 8.06558594,43.1809473 L10.5325391,45.6479004 C10.7707031,45.8859375 11.0935449,46.0197461 11.4302246,46.0197461 C11.7670312,46.0197461 12.0897461,45.8859375 12.3280371,45.6479004 L16.6005176,41.3754199 C17.0962695,40.879668 17.0962695,40.0758008 16.6005176,39.5800488 Z" id="Path"></path>
                <path d="M37.4008984,41.2597656 L22.5896582,41.2597656 C21.888623,41.2597656 21.320127,41.8281348 21.320127,42.5292969 C21.320127,43.230459 21.888623,43.7988281 22.5896582,43.7988281 L37.4008984,43.7988281 C38.1019336,43.7988281 38.6704297,43.230459 38.6704297,42.5292969 C38.6704297,41.8281348 38.1019336,41.2597656 37.4008984,41.2597656 Z" id="Path"></path>
            </g>
        </g>
    </g>
</svg>