<?xml version="1.0" encoding="UTF-8"?>
<svg width="125px" height="125px" viewBox="0 0 70 67" version="1.1" xmlns="http://www.w3.org/2000/svg" xmlns:xlink="http://www.w3.org/1999/xlink">
    <!-- Generator: Sketch 62 (91390) - https://sketch.com -->
    <title>Group 3</title>
    <desc>Created with Sketch.</desc>
    <g id="Page-1" stroke="none" stroke-width="1" fill="none" fill-rule="evenodd">
        <g id="Group-3">
            <circle id="Oval-Copy-4" fill="#DEF2FA" cx="62.5" cy="62.5" r="62.5"></circle>
            <g id="share" transform="translate(34.000000, 33.000000)" fill="#40ADDC" fill-rule="nonzero">
                <path d="M54.319,37.839 C54.762,35.918 55,33.96 55,32 C55,22.905 50.369,14.623 42.611,9.847 C42.138,9.557 41.524,9.704 41.235,10.174 C40.945,10.645 41.092,11.26 41.562,11.55 C48.724,15.96 53,23.604 53,32 C53,33.726 52.8,35.451 52.427,37.147 C51.966,37.051 51.489,37 51,37 C47.14,37 44,40.141 44,44 C44,47.859 47.14,51 51,51 C54.86,51 58,47.859 58,44 C58,41.341 56.509,39.024 54.319,37.839 Z M51,49 C48.243,49 46,46.757 46,44 C46,41.243 48.243,39 51,39 C53.757,39 56,41.243 56,44 C56,46.757 53.757,49 51,49 Z" id="Shape"></path>
                <path d="M38.171,54.182 C35.256,55.388 32.171,56 29,56 C22.615,56 16.473,53.425 11.983,48.908 C13.229,47.643 14,45.911 14,44 C14,40.141 10.86,37 7,37 C3.14,37 0,40.141 0,44 C0,47.859 3.14,51 7,51 C8.226,51 9.378,50.681 10.381,50.125 C15.26,55.136 21.994,58 29,58 C32.435,58 35.778,57.337 38.936,56.029 C39.446,55.818 39.689,55.233 39.478,54.722 C39.267,54.213 38.681,53.971 38.171,54.182 Z M2,44 C2,41.243 4.243,39 7,39 C9.757,39 12,41.243 12,44 C12,46.757 9.757,49 7,49 C4.243,49 2,46.757 2,44 Z" id="Shape"></path>
                <path d="M4,31.213 C4.024,31.215 4.048,31.216 4.071,31.216 C4.592,31.216 5.03,30.814 5.068,30.286 C5.78,20.197 12.654,11.766 22.288,8.972 C23.142,11.874 25.825,14 29,14 C32.86,14 36,10.859 36,7 C36,3.141 32.86,0 29,0 C25.149,0 22.015,3.127 22.001,6.975 C11.42,9.922 3.851,19.12 3.073,30.146 C3.034,30.696 3.449,31.175 4,31.213 Z M29,2 C31.757,2 34,4.243 34,7 C34,9.757 31.757,12 29,12 C26.243,12 24,9.757 24,7 C24,4.243 26.243,2 29,2 Z" id="Shape"></path>
            </g>
        </g>
    </g>
</svg>