<?xml version="1.0" encoding="UTF-8"?>
<svg width="125px" height="125px" viewBox="0 0 125 125" version="1.1" xmlns="http://www.w3.org/2000/svg" xmlns:xlink="http://www.w3.org/1999/xlink">
    <!-- Generator: Sketch 62 (91390) - https://sketch.com -->
    <title>Group 9</title>
    <desc>Created with Sketch.</desc>
    <g id="Page-1" stroke="none" stroke-width="1" fill="none" fill-rule="evenodd">
        <g id="Group-9">
            <circle id="Oval-Copy-13" fill="#DEF2FA" cx="62.5" cy="62.5" r="62.5"></circle>
            <g id="scrum" transform="translate(32.000000, 32.000000)" fill="#40ADDC" fill-rule="nonzero">
                <path d="M48.3870968,44.516129 L48.3870968,48.3870968 L41.606129,48.3870968 C50.6941935,44.5896774 57.0967742,35.61 57.0967742,25.1612903 C57.0967742,11.2867742 45.81,0 31.9354839,0 C18.386129,0 7.30354839,10.7670968 6.79258065,24.1935484 L3.74032258,24.1935484 L10.6451613,32.4793548 L17.55,24.1935484 L14.5432258,24.1935484 C15.0464516,15.0367742 22.6548387,7.74193548 31.9354839,7.74193548 C41.5403226,7.74193548 49.3548387,15.5564516 49.3548387,25.1612903 C49.3548387,34.766129 41.5403226,42.5806452 31.9354839,42.5806452 L25.1612903,42.5806452 L25.1612903,34.8387097 L0,34.8387097 L0,60 L25.1612903,60 L25.1612903,54.1935484 L48.3870968,54.1935484 L48.3870968,58.0645161 L60,58.0645161 L60,44.516129 L48.3870968,44.516129 Z M31.9354839,44.516129 C42.6077419,44.516129 51.2903226,35.8335484 51.2903226,25.1612903 C51.2903226,14.4890323 42.6077419,5.80645161 31.9354839,5.80645161 C21.2632258,5.80645161 12.5806452,14.4890323 12.5806452,25.1612903 L12.5806452,26.1290323 L13.4177419,26.1290323 L10.6451613,29.456129 L7.87258065,26.1290323 L8.70967742,26.1290323 L8.70967742,25.1612903 C8.70967742,12.3551613 19.1293548,1.93548387 31.9354839,1.93548387 C44.7416129,1.93548387 55.1612903,12.3551613 55.1612903,25.1612903 C55.1612903,37.9674194 44.7416129,48.3870968 31.9354839,48.3870968 L25.1612903,48.3870968 L25.1612903,44.516129 L31.9354839,44.516129 Z M23.2258065,58.0645161 L1.93548387,58.0645161 L1.93548387,36.7741935 L23.2258065,36.7741935 L23.2258065,58.0645161 Z M25.1612903,52.2580645 L25.1612903,50.3225806 L48.3870968,50.3225806 L48.3870968,52.2580645 L25.1612903,52.2580645 Z M58.0645161,56.1290323 L50.3225806,56.1290323 L50.3225806,46.4516129 L58.0645161,46.4516129 L58.0645161,56.1290323 Z" id="Shape"></path>
                <polygon id="Path" points="52.2580645 48.3870968 56.1290323 48.3870968 56.1290323 50.3225806 52.2580645 50.3225806"></polygon>
                <polygon id="Path" points="52.2580645 52.2580645 56.1290323 52.2580645 56.1290323 54.1935484 52.2580645 54.1935484"></polygon>
                <polygon id="Path" points="3.87096774 38.7096774 5.80645161 38.7096774 5.80645161 40.6451613 3.87096774 40.6451613"></polygon>
                <polygon id="Path" points="7.74193548 38.7096774 9.67741935 38.7096774 9.67741935 40.6451613 7.74193548 40.6451613"></polygon>
                <polygon id="Path" points="11.6129032 38.7096774 21.2903226 38.7096774 21.2903226 40.6451613 11.6129032 40.6451613"></polygon>
                <polygon id="Path" points="3.87096774 42.5806452 21.2903226 42.5806452 21.2903226 44.516129 3.87096774 44.516129"></polygon>
                <polygon id="Path" points="3.87096774 46.4516129 21.2903226 46.4516129 21.2903226 48.3870968 3.87096774 48.3870968"></polygon>
                <polygon id="Path" points="3.87096774 50.3225806 21.2903226 50.3225806 21.2903226 52.2580645 3.87096774 52.2580645"></polygon>
                <polygon id="Path" points="19.3548387 54.1935484 21.2903226 54.1935484 21.2903226 56.1290323 19.3548387 56.1290323"></polygon>
                <polygon id="Path" points="15.483871 54.1935484 17.4193548 54.1935484 17.4193548 56.1290323 15.483871 56.1290323"></polygon>
                <polygon id="Path" points="3.87096774 54.1935484 13.5483871 54.1935484 13.5483871 56.1290323 3.87096774 56.1290323"></polygon>
                <path d="M24.1935484,25.1612903 C24.1935484,31.0306452 28.9693548,35.8064516 34.8387097,35.8064516 C40.7080645,35.8064516 45.483871,31.0306452 45.483871,25.1612903 C45.483871,19.2919355 40.7080645,14.516129 34.8387097,14.516129 L33.8709677,14.516129 L33.8709677,24.1935484 L24.1935484,24.1935484 L24.1935484,25.1612903 Z M43.4893548,24.1935484 L35.8064516,24.1935484 L35.8064516,16.5058065 C39.8370968,16.9529032 43.0412903,20.1629032 43.4893548,24.1935484 Z M34.8387097,26.1290323 L35.8064516,26.1290323 L43.4912903,26.1290323 C43.0083871,30.4770968 39.3145161,33.8709677 34.8387097,33.8709677 C30.3629032,33.8709677 26.666129,30.4780645 26.1832258,26.1290323 L34.8387097,26.1290323 Z" id="Shape"></path>
                <path d="M20.3225806,21.2903226 L20.3225806,22.2580645 L31.9354839,22.2580645 L31.9354839,10.6451613 L30.9677419,10.6451613 C25.0983871,10.6451613 20.3225806,15.4209677 20.3225806,21.2903226 Z M30,20.3225806 L22.3122581,20.3225806 C22.7593548,16.2919355 25.9693548,13.0819355 30,12.6348387 L30,20.3225806 Z" id="Shape"></path>
                <polygon id="Path" points="30 28.0645161 31.9354839 28.0645161 31.9354839 30 30 30"></polygon>
                <polygon id="Path" points="33.8709677 28.0645161 35.8064516 28.0645161 35.8064516 30 33.8709677 30"></polygon>
                <polygon id="Path" points="37.7419355 28.0645161 39.6774194 28.0645161 39.6774194 30 37.7419355 30"></polygon>
            </g>
        </g>
    </g>
</svg>