<svg fill="none" height="20" viewBox="0 0 20 20" width="20" xmlns="http://www.w3.org/2000/svg"><path clip-rule="evenodd" d="m18.4877 0h-17.00862c-.816909 0-1.47908.643048-1.47908 1.43165v17.10595c0 .7862.662171 1.4275 1.47908 1.4275h17.00782c.8177 0 1.4782-.6413 1.4782-1.4275v-17.10595c0-.788602-.6605-1.43165-1.4774-1.43165zm-12.4333 16.7117h-3.01553v-9.01182h3.01558v9.01182zm-1.5298-10.24135h.01996c1.05231 0 1.70618-.69712 1.70534-1.55895-.01912-.88597-.65386-1.55896-1.68622-1.55896-1.03152 0-1.70618.67299-1.70618 1.55896 0 .86183.6547 1.55895 1.6671 1.55895zm12.4017 10.24135h-3.0098v-4.82c0-1.2112-.4425-2.04389-1.534-2.04389-.8377 0-1.3276.56069-1.5431 1.10469-.079.1847-.0998.4551-.0998.7263v5.0328h-3.01727s.03825-8.16821 0-9.01176h3.01727v1.27779c.396-.61311 1.113-1.49073 2.7144-1.49073 1.9865 0 3.4723 1.2886 3.4723 4.0571zm-6.1605-7.72702c-.0207.01912-.0286.03664-.0334.05416h.0334z" fill="#1e77b5" fill-rule="evenodd"/></svg>