<svg enable-background="new 0 0 31.012 31.012" height="512" viewBox="0 0 31.012 31.012" width="512" xmlns="http://www.w3.org/2000/svg"><g fill="#ccaa16"><path d="m28.512 26.529h-26.012c-1.378 0-2.5-1.121-2.5-2.5v-17.047c0-1.379 1.122-2.5 2.5-2.5h26.012c1.378 0 2.5 1.121 2.5 2.5v17.047c0 1.379-1.122 2.5-2.5 2.5zm-26.012-21.047c-.827 0-1.5.673-1.5 1.5v17.047c0 .827.673 1.5 1.5 1.5h26.012c.827 0 1.5-.673 1.5-1.5v-17.047c0-.827-.673-1.5-1.5-1.5z"/><path d="m15.506 18.018c-.665 0-1.33-.221-1.836-.662l-12.779-11.137c-.208-.182-.23-.497-.048-.705.182-.21.498-.23.706-.049l12.778 11.137c.64.557 1.72.556 2.358 0l12.775-11.136c.207-.183.522-.162.706.049.182.208.16.523-.048.705l-12.776 11.135c-.506.442-1.171.663-1.836.663z"/></g></svg>