<svg enable-background="new 0 0 70.07 70.07" height="512" viewBox="0 0 70.07 70.07" width="512" xmlns="http://www.w3.org/2000/svg"><g fill="#ccaa16"><path d="m65.094 32.195h-6.982-.934c-2.064 0-3.738 1.674-3.738 3.745v.406c0 2.073 1.674 3.748 3.741 3.748h6.989.924c2.068 0 3.747-1.682 3.747-3.748l-.004-.411c.004-2.066-1.675-3.74-3.743-3.74z"/><path d="m65.098 22.852h-1.649v-18.118c0-2.604-2.13-4.734-4.735-4.734h-31.239c-2.604 0-4.734 2.131-4.734 4.734v12.999c-6.301 3.562-12.8 7.283-12.814 7.292-3.528 1.452-8.697 6.137-8.697 17.2 0 .988.065 1.9.156 2.781.029.258.061.506.096.755.091.647.205 1.266.341 1.854.049.21.087.429.14.63.183.68.395 1.318.633 1.925.12.301.25.575.381.857.14.297.281.589.432.862.175.329.35.646.542.947.046.07.096.134.143.205 4.556 6.887 12.961 6.918 12.961 6.918h5.686v5.379c0 2.601 2.13 4.731 4.734 4.731h31.238c2.605 0 4.735-2.131 4.735-4.731v-6.561h.722v-.004h.921c2.071 0 3.75-1.675 3.746-3.746l.004-.408c-.004-2.068-1.679-3.738-3.747-3.738h-.924-6.059-.934c-2.068 0-3.738 1.674-3.738 3.741v.415c0 2.062 1.674 3.743 3.741 3.743h2.974v2.534h-34.12v-33.991c1.714-1.087 3.301-2.133 4.206-2.834 4.585-3.546 8.937-6.37 9.526-8.931.767-3.323-1.784-6.123-6.209-3.824-1.394.724-4.255 2.311-7.523 4.146v-8.378l34.12.005v15.343h-2.043v.004h-.929c-2.069 0-3.748 1.674-3.748 3.747v.406c0 2.072 1.679 3.742 3.743 3.742h.929 6.059.931c2.066 0 3.741-1.674 3.741-3.742v-.417c.004-2.059-1.67-3.738-3.739-3.738zm-22.008 40.124c1.312 0 2.37 1.059 2.37 2.368 0 1.312-1.059 2.367-2.37 2.367-1.307 0-2.363-1.058-2.363-2.367.002-1.305 1.061-2.368 2.363-2.368zm5.003-58.418h-9.996c-.314 0-.574-.255-.574-.57 0-.32.26-.575.574-.575h9.996c.314 0 .57.254.57.575 0 .314-.256.57-.57.57z"/><path d="m65.094 41.538h-.924-6.992c-2.064 0-3.743 1.679-3.743 3.746v.41c0 2.069 1.675 3.743 3.743 3.743h.929 6.059.926c2.071 0 3.741-1.674 3.746-3.743v-.41c-.001-2.067-1.671-3.746-3.744-3.746z"/></g></svg>