<svg height="430pt" preserveAspectRatio="xMidYMid meet" viewBox="0 0 430 430" width="430pt" xmlns="http://www.w3.org/2000/svg"><g transform="matrix(.1 0 0 -.1 0 430)"><path d="m1666 4195c-149-61-235-197-223-354 2-36 8-73 11-82 7-16 3-19-600-413l-135-88-22 20c-53 49-159 84-229 76-107-13-198-77-245-171-36-75-38-184-5-253 39-78 118-149 186-166l28-7-7-61c-4-33-8-70-10-81s-4-39-4-62c-1-36-4-41-18-37-15 5-15 4 1-6 15-10 16-14 5-21-9-6-10-9-2-9s9-9 3-30c-5-16-6-30-2-30s0-5-8-10c-11-7-11-10-2-10 7 0 10-5 7-10-4-6-7-32-7-57 0-31-3-42-8-32-8 12-11 12-22 0-7-8-8-11-2-8 7 4 15-1 19-11 14-30 13-39-2-39-8 0-12 6-8 16 3 8 3 12-1 8s-13 1-20 11c-7 9-14 12-14 6s11-23 24-37c21-23 24-34 21-84-4-70-17-222-21-243-1-8-3-17-3-20-1-3-25-16-53-30-59-27-156-117-183-170-53-101-64-227-30-329 12-36 13-55 6-69-6-11-8-22-4-25 3-4 0-13-6-21-14-17-13-122 2-151 6-11 12-26 13-34 3-18 75-102 99-115 11-6 22-13 25-16 4-5 34-20 74-38 5-3 6 2 2 9-4 8-1 6 7-4 18-22 146-51 163-36 7 5 15 6 18 1 9-16 105 3 121 24 13 16 14 16 9 2-8-22 5-23 34-2 12 8 22 13 22 9 0-3 18 4 39 15 49 25 131 98 131 118 0 10 9 13 35 10 24-3 34 0 31 7-2 7 2 12 10 12 7 0 11-4 9-8-7-11 16-16 73-15 28 1 52-2 52-6 0-5 5-8 11-8 5 0 8 4 5 8-2 4 4 8 14 8s16-4 14-8c-3-4 2-8 10-8 10 0 13 7 11 21-3 12-1 18 3 15 4-4 7-13 7-19 0-8 19-12 52-12 28 0 49-3 46-7-6-11 5-10 29 3 15 8 19 8 14 0-5-7 1-11 14-11 14 0 19 4 15 13-4 6 1 3 9-7 12-15 16-16 16-5 0 9 3 10 8 3 4-6 33-10 64-10 32 1 58-1 58-4s19-6 43-7c23-1 63-3 89-5 27-2 44 0 41 6-4 5 0 6 8 0 18-11 21-11 137-19 53-4 101-9 106-12 5-4 6 0 1 8-8 12-6 12 8 0 9-7 24-11 32-7 9 3 13 2 10-4-9-15 66-92 84-85 8 3 12 3 8-1-11-11 72-47 94-41 11 3 19 1 19-3 0-11 62-10 77 2 7 5 14 5 17-1 4-7 15-7 30-1 21 8 37-5 162-130 75-77 142-136 147-133 6 3 7 2 4-4-3-5 18-34 48-63 55-55 65-73 44-86-7-4-189-8-406-10-366-3-394-2-399 14-29 91-86 157-171 198-150 70-337-1-406-155-14-32-22-73-25-136-4-84-2-94 25-144 33-64 98-113 181-137 158-46 354 38 394 169l11 37h401 401l20-37c89-166 395-169 496-6 21 33 24 51 24 137l1 99 54 44c30 24 68 54 83 66 16 12 57 45 91 72 34 28 76 60 93 73 50 38 96 76 120 99 13 12 23 19 23 16 0-4 5-2 12 5 8 8 20 7 47-4 54-23 186-18 202 7 3 6 9 10 13 10 17-2 24 1 56 32 63 57 77 130 40 200-19 35-19 40-5 67 9 17 20 51 24 76 17 91-42 212-120 244l-31 13 7 66c4 36 9 86 11 111 4 33 1 47-11 56-14 11-14 12 0 18 9 3 13 2 10-4s-1-10 5-10 10 8 8 17c-1 10 1 23 5 29 4 7 0 15-9 18-8 3-12 2-9-3s0-13-6-17c-8-4-9-3-5 4s1 12-6 12c-10 0-9 3 2 9 8 6 17 8 21 5 4-2 11 5 14 16 5 14 1 27-12 38-20 19-30 48-12 36 8-4 9 1 4 17-4 17-3 20 3 10 5-7 12-9 14-5 3 5 3 2 0-6-8-28-7-43 3-46 6-2 11 16 12 40 2 35-1 43-14 42-10 0-17 8-18 21-1 15 3 19 14 15 14-5 13-2-2 21-16 25-16 26 0 20s17-5 3 12c-9 11-10 16-2 11 13-8 17 6 5 18-9 9-13 36-5 35 19-3 29 3 29 16 0 8-4 15-9 15-4 0-8-4-8-10 0-5-5-10-11-10s-7 5-2 13c4 6 9 30 10 52s5 65 8 95c4 30 6 75 6 100-2 74 4 87 47 94 21 3 57 19 79 35 83 60 124 144 118 239-19 267-367 345-502 114-23-39-28-59-28-117 0-38 4-86 8-105l8-35-182-97-182-97-51 46c-72 65-166 105-253 106-7 0-13 7-14 16 0 10-2 12-6 4-2-7-9-13-14-13-6 0-7 5-4 10 3 6 1 10-4 10-6 0-11-6-11-13 0-16-52-18-62-3-5 7-8 5-8-6s-6-15-20-11c-12 3-20 0-20-8 0-7-3-10-6-6-4 3-13-1-21-9-14-13-18-13-39 7-29 27-23 40 6 14 11-10 23-16 26-12 3 3-4 11-16 17-16 9-19 15-11 23 6 6 11 15 11 19s-9-1-20-12-25-20-32-20c-6 0 2-11 18-25 15-13 25-27 21-31-11-12-78 63-71 80 4 11 0 16-12 16-11 0-15-4-9-8s11-16 13-27c2-18 0-17-17 5-26 31-27 51-3 43 13-5 14-3 5 7-13 14-33 5-33-16 0-8-4-14-10-14-5 0-10-5-10-11 0-8 4-8 14 0 20 17 53-34 35-55-7-9-8-14-1-14 6 0 13 9 17 19 6 19 8 18 35-7 15-15 26-30 23-35s-16 2-30 15c-15 14-22 17-18 7 9-23-25-21-52 4-13 11-25 18-28 15s6-13 20-22 25-21 25-26c0-6-11-3-24 6-19 12-29 13-43 5-10-6-14-11-9-11s3-7-4-15-16-12-22-9c-5 3-15 0-23-6-18-15-20 1-2 19 10 11 8 11-10 0-15-9-19-17-12-25s2-11-16-11c-14 0-25 3-25 8s5 9 11 9c5 0 7 5 3 11-10 16-26-15-18-35 5-13 9-14 20-5 17 14 18-2 2-21-7-8 0-4 17 10 16 14 33 29 36 34 4 5 11 6 17 2 5-3 15 1 22 9s16 12 21 9 6 2 3 10c-7 19 0 20 27 5 11-6 17-15 12-22-4-8-1-7 10 1 16 14 37 9 37-9 0-6-4-7-10-4s-7-1-4-9c3-9 2-16-3-16s-22-22-38-50c-29-49-31-50-70-44-22 3-42 7-45 9s-25 6-50 10-49 10-55 13c-5 4-19 8-30 9-11 2-21 8-23 13-2 6-8 10-13 10-6 0-7-5-3-12 5-7 3-8-7-2-8 4-23 7-35 6-11-2-63 6-115 17-51 12-103 22-114 24-111 18-218 43-220 52-1 5-7 25-13 43l-10 32 156 112c86 61 264 187 395 280l237 168 28-19c102-73 265-33 322 80 80 156-26 333-199 333-148-1-248-131-218-284l7-35-113-80c-61-44-237-169-391-278-273-194-279-198-302-182-14 9-22 19-20 24 3 4-4 7-16 7-27-1-29 17-17 134 6 52 12 133 15 179 2 47 9 90 15 98 9 9 8 13 0 13-7 0-9 5-5 11 4 7 8 37 9 68 4 75 16 240 20 260 2 9 4 32 4 52l1 37 60 10c74 13 116 33 169 79 166 141 171 379 13 529-94 88-248 117-366 69zm-13-653 48-22-5-42c-6-48-13-124-21-213-3-33-8-80-11-105-13-113-15-138-17-175-2-22-6-46-10-53-5-7-3-12 5-12s9-3 3-8c-5-4-11-41-13-82s-5-88-7-105c-2-16-4-38-4-47-1-11-9-18-21-18-25 0-77-25-105-50-19-18-22-17-113 37-70 40-92 59-88 70 5 13 4 14-9 3-11-9-15-9-15-1 0 7-4 10-8 7-12-7-63 29-55 39 5 4 3 5-4 2-18-11-45 4-38 21 4 11 2 12-7 4-10-8-57 15-190 91-168 97-177 103-175 131 2 32-40 2 557 393 113 74 214 141 225 148 11 8 22 13 25 12 3-2 27-13 53-25zm-808-769c64-36 119-72 122-80 3-7 10-10 16-6 5 3 16-2 24-12 7-11 13-15 13-11 0 5 8 0 18-11 9-10 13-12 7-4-9 12-7 12 13 2 12-7 20-17 16-23s-3-8 4-4c5 3 64-24 129-60 189-106 203-115 204-132 5-111 87-213 181-228 35-6 43-14 39-37-1-5 3-6 9-2 5 3 10 1 10-4 0-6-6-11-12-11-7-1-2-7 12-15l25-15-27 6c-17 4-28 2-28-5 0-6 6-8 13-5 21 8 16-22-6-36-17-10-19-10-14 4 3 8 1 18-5 22-7 4-8 3-4-4s3-12-3-12c-5 0-12 6-15 13-3 6-3 1 0-13 7-24 6-25-14-7-19 18-33 12-38-15-4-21-6-21-14-3s-9 18-9 2c-1-10-5-16-10-13-5 4-12 0-14-6-4-10-8-9-16 2-6 8-11 11-11 6s-8-2-17 5c-16 13-17 12-5-3s11-17-7-15c-12 1-20 6-17 12 2 6-5 17-16 24-15 9-18 9-13 0 5-7 3-10-6-7-8 3-13 11-11 17 1 7-2 10-7 7s-12 1-15 10c-6 15-8 15-28-2-20-19-21-19-14 6 6 19 5 21-3 10-10-14-15-7-12 13 1 5-3 6-9 2-5-3-10-1-10 4 0 6-5 11-11 11-8 0-8-4 1-14 9-12 8-15-9-13-13 1-20 6-17 14 3 7 1 13-3 13-5 0-11-7-15-15-3-8-11-15-17-15-8 0-7 5 2 17 12 14 12 16 0 8-11-6-13-4-8 8 4 11 2 14-9 10-9-3-14 0-12 7s-4 15-12 17c-13 4-13 3 0-7 13-9 12-11-5-8-11 2-20 10-20 18s-5 15-12 15c-6 0-14 3-18 7-9 9-35-2-35-14 0-6 6-6 14 2 12 9 15 8 13-9-2-24-2-24-28-10-13 6-18 16-15 26 6 14 4 14-10 2-13-11-15-11-14 2 5 34 1 42-15 29-13-10-19-10-35 5-11 10-20 14-20 9-1-5-10 2-21 15-19 23-20 23-33 6-12-17-11-21 11-38 31-25 23-34-11-12-14 10-26 14-26 10 0-5-9 2-20 15s-22 21-24 19c-3-2 12-22 31-44 20-22 34-32 30-22-3 9-3 17 2 17 16 0 20-13 10-34-9-19-9-19 4-4 17 22 31 11 15-11-8-10-4-9 10 3 23 20 31 10 10-13-9-9-9-12-1-7 6 3 13 0 16-6 3-7 5-4 5 7-1 11 3 29 7 40s3 16-2 10c-14-18-36-17-29 0 4 11-2 24-16 35-13 10-20 21-16 25s14 0 23-9 22-13 28-9 8 0 4-10c-4-11-2-14 7-11 17 6 26-28 14-50-6-10-5-22 2-33 9-15 10-14 4 7-6 22-5 23 9 12 9-8 13-20 10-28s0-14 7-14c6 0 9 4 6 9s2 19 12 32l19 22 39-37c38-37 39-37 12-34-29 4-51 18-28 18 11 0 11 4-2 16-9 9-21 13-27 10-12-8-10-41 4-53 4-5 5-2 1 5-4 6-3 12 3 12 5 0 15-8 20-17 7-12 10-13 11-4 0 9 5 7 18-6 9-10 13-12 7-4-8 12-6 13 8 8 11-4 16-3 12 3-3 6-1 10 6 10 6 0 9-8 6-20-3-11 0-23 5-27 6-3 8-2 5 3-3 6 3 15 14 22 10 7 19 8 19 3 0-6-5-13-10-16s-10-12-10-18c0-9 2-9 8 0s13 5 26-12c10-14 22-22 26-20 5 3 25-4 44-16 20-11 36-18 36-13 0 4 9-1 20-11s20-15 20-10c0 4 7 2 15-5s15-9 15-6c0 4 8 0 17-10 16-16 21-28 25-66 2-12 6-14 14-7 8 6 14 5 18-6 3-9 2-13-3-10s-12 1-15-3c-7-12 51-66 99-91 45-24 55-26 55-10 0 5-4 8-9 4-5-3-12-1-16 5s-12 7-18 3c-7-4-7 0 1 10 12 14 10 16-15 12-15-2-22-2-15 1 6 3 10 10 6 15-3 5 2 12 10 15 9 3 13 11 9 17s-16-1-31-19c-13-16-21-23-17-16s-1 22-11 33c-9 10-13 19-9 19s0 10-11 23c-10 12-15 19-10 15 12-10 38 11 29 25-3 6-1 7 5 3 8-5 10-2 6 8s-1 16 7 16 5 6-7 15c-16 13-16 14-1 9 10-4 17-1 17 6 0 6 5 8 11 4 8-4 7-9-2-15-8-5-9-9-3-9s23-17 37-37c15-21 27-33 27-27 0 7-7 17-15 24-17 14-20 30-4 30 5 0 8-4 5-9s2-15 12-22c16-13 16-13 2 6s-14 19 4 5c11-8 17-10 13-4-4 7 1 18 10 25 14 12 16 12 8-1s-7-13 10 0 18 13 10 0c-7-12-6-13 6-3s21 9 45-2l29-15-24 20c-13 11-20 20-15 20 4 0 17-8 28-17 19-16 19-16 7-1-11 15-10 17 9 13s20-2 8 12c-11 14-11 16 1 8 10-6 12-4 6 6-7 11-5 11 11-1 18-14 18-14 2 6-10 11-18 25-18 30s9-2 20-16 19-18 18-10c-2 8-7 18-13 22-5 4 0 6 12 5 12 0 19-5 17-9-3-4 3-5 13-2 11 3 14 2 8-3-9-7-11-16-6-39 0-4 9 0 18 7 12 10 15 10 9 1-9-15 14-12 27 3 5 6 7 3 3-7-3-10 0-18 6-18 7 0 3-7-8-16-10-8-13-12-5-8 9 5 12 3 7-5-4-6-4-11 1-10 4 1 15 1 23 0 12-1 12-3 2-10-10-6-10-10 3-21 11-9 18-10 28-1 8 6 16 10 18 8 2-1-2 4-10 11-8 6-11 12-6 12s17-8 28-17c11-10 17-13 14-6-6 9 7 11 31 4 1-1 3 0 5 1 1 1 12-4 24-10 14-8 24-9 28-2 4 6 10 8 15 5s11-1 15 5c3 5-4 10-17 10-69 0-118 6-118 13 0 5-11 6-25 3-15-4-25-2-25 4s-5 8-12 4c-7-5-9-2-5 8 3 9-1 27-8 42-13 25-13 28 10 38 14 6 25 15 25 20s5 6 11 3c5-4 18 0 27 8 9 9 23 17 31 19 26 6 49 31 44 47-5 13-3 14 7 4 10-9 19-9 41 3 16 8 29 18 29 23 0 4 7 8 15 9s21 3 29 4 12 7 9 15c-4 9 0 11 13 7 14-4 16-3 5 4-8 6-9 12-3 16 6 3 13 2 17-4 4-7 14-6 28 2 30 17 22 18 217-22l175-35 7-62c7-62 49-173 73-193 10-9 8-16-11-35-16-16-22-30-18-47 3-12 6-29 6-36 1-7 6-11 12-9 6 3 10 10 9 16-2 6-4 17-5 24-2 6-7 15-13 19-6 5-5 8 3 8 7 0 10 4 7 10-4 6 1 7 11 3 13-5 15-3 10 8-4 8-1 6 7-3 8-10 18-14 23-10 4 4 2-1-6-11-12-17-12-18 6-15 13 2 19-3 19-16 0-11 5-21 12-23 8-3 11 3 8 17-2 11 0 18 6 15 5-4 7-11 4-16-4-5-2-9 4-9s-1-11-14-25c-14-13-25-29-25-35s-10-4-23 5c-13 8-26 12-30 9-4-4-15 4-26 17s-20 19-21 14c0-6 4-15 9-20 6-6 0-17-16-29-15-11-23-15-20-9 9 15-3 44-15 37-5-3-4-13 4-22 12-15 11-16-5-3-13 10-14 17-6 27s6 13-10 11c-16-1-20-6-15-21s0-13-20 9c-27 30-27 30-22 5 3-14 3-19 0-12-4 10-9 10-20 2-14-12-38-4-30 9 3 4-8 8-24 8s-27-4-24-9c3-4-3-5-12-1-11 4-13 8-6 11 9 3 8 7-1 17-16 17-28 9-21-13 5-13 4-14-4-3-6 8-17 11-26 8-8-3-18-1-22 5s-3 8 2 5c6-3 15 3 22 14 7 10 9 19 5 19-15-1-43-27-43-40 0-7-7-10-15-7-8 4-17 2-20-4-4-5 6-9 22-10 57 0 93-3 93-9s37-10 113-13c20-1 37-6 37-10 0-5 6-7 13-4 18 6 47-11 47-28 0-8 4-15 8-15 14 0 52-40 51-53 0-9-2-9-5 0-3 7-11 11-17 9-7-1-8-1-4 2 9 4-11 32-23 32-4 0-5-11-2-25 2-14 8-25 13-25s6-6 3-14c-3-7 2-20 10-29 9-9 16-22 16-29 0-25 113-116 137-110 7 2 13-1 13-6 0-10 26-21 69-29 14-2 33-9 43-14 14-8 18-6 19 8 1 17 2 17 6 1 2-10 9-18 14-18 6 0 7 5 4 10-3 6-1 10 4 10 6 0 11-4 11-10 0-5 14-10 30-10 17 0 30 5 30 10 0 6 5 10 11 10 5 0 7-5 4-10-4-6 3-8 17-6 13 3 23 5 23 6 0 2 37 10 60 13 11 1 46 15 78 31 48 25 56 33 51 50-4 15-3 17 4 7s14-11 28-2c11 6 15 11 10 11s3 9 18 21c14 11 24 25 21 30-4 5-2 9 3 9 9 0 35 52 38 75 1 6 3 12 4 15 9 24 7 41-5 36-21-8-29 12-14 31 12 13 8 20-26 50-34 29-41 32-54 19-12-13-12-17 0-32 9-12 10-15 2-10-7 4-13 2-13-3 0-6-5-11-12-11-9 0-9 3-1 11 9 9 3 19-20 41s-26 27-10 19c19-10 25-8 35 8 9 15 15 17 25 9 9-7 13-7 13 0 0 6-8 16-17 22-17 11-17 11-1 6 31-10 49 3 37 26-7 13-7 18-1 14 6-3 13-2 17 4s10 8 15 5c13-8 41 6 33 18-4 6-1 7 7 2 9-5 11-4 6 4-6 9-11 9-22 0-8-6-14-8-14-3 0 4-5 3-12-4s-18-12-26-12c-10 0-9 7 6 27 54 79 74 209 48 309-9 34-16 64-16 67 0 6 51 35 173 101 37 20 97 52 134 72 53 30 69 35 82 25 9-6 35-21 59-33 41-21 42-23 39-65-4-43-23-77-37-68-5 3-11 1-15-5s-10-8-14-6c-4 3-19-6-33-19s-29-21-32-17c-4 3-4-2 0-12 5-12 4-17-3-13-14 9-42-24-45-54-2-13-7-27-11-30-5-3-1-9 8-12 10-5 14-3 9 5-4 6-3 8 3 5 5-3 10 0 10 8s-4 12-9 9c-4-3-8 0-8 6 0 7 7 9 16 6 10-4 13-2 8 6-4 6-3 8 4 4 6-3 15 2 21 11 8 14 10 15 11 3 0-13 2-13 9 0 6 8 7 18 4 24-4 5-1 6 7 1 7-5 11-4 7 1-3 5 1 17 8 27 11 15 14 15 25 2 10-12 10-18-1-32-12-16-12-17 2-6 9 7 18 11 21 8 7-7 3 29-5 41-3 6 2 19 13 29 12 10 20 13 20 7 0-7-4-12-8-12-5 0-8-21-7-46 1-32-2-47-13-52-12-4-12-7 4-19 10-7 13-13 7-13s-9-13-8-29c2-26 0-29-24-25s-25 3-6-9c11-6 21-20 23-30 3-15-1-17-17-12-12 4-21 2-21-4s3-10 8-10c28 5 32-3 11-21-13-10-19-19-13-20 5 0 16 6 24 13 12 10 12 9 4-3-6-8-9-33-8-55 2-22-1-80-6-130-5-49-12-117-15-150-21-211-21-212-53-218-34-7-108-69-128-109l-16-30-446 5c-246 3-502 6-569 6l-123 1-6 28c-47 222-319 306-476 147-21-21-43-51-50-67l-13-30-85 7c-47 4-96 8-110 10-14 1-61 6-105 9-44 4-98 9-120 11s-71 7-110 10c-38 3-90 8-115 11-117 12-140 14-215 20-44 4-87 8-95 10-8 1-27 3-41 3-24 1-27 6-32 51-14 114-114 246-232 305-33 16-63 29-66 28-8-2-5 64 3 72 4 4 4 13 1 21s0 14 7 14c6 0 8-5 4-12s-3-8 4-4 12 1 12-9c0-9-4-14-9-10-6 3-8-4-6-17 3-12 1-25-4-28s-3-11 4-17c11-10 14-9 13 5 0 9 3 30 7 46 4 21 1 34-14 50-13 14-19 31-16 46 5 26 24 42 39 33 5-3 6-1 2 5-4 7-3 12 2 12s9 7 9 15-3 13-5 10c-3-3-12 1-21 8-14 10-14 10-3-5 8-9 11-22 7-28-13-20-20-9-20 30 0 41 8 52 19 25 3-8 10-15 16-15s1 10-10 22c-15 16-20 34-18 61 1 21 6 41 10 43 4 3 8 10 8 15 0 6-4 8-9 4-6-3-6 6-1 25 5 17 6 38 3 47-4 9-2 14 3 11 5-4 7 13 5 39-2 36 0 44 10 37 12-7 12-5 1 9-14 17-8 42 8 32 5-3 12 0 16 6 5 8 3 9-6 4-10-6-12-4-6 10 5 15 4 16-9 5s-14-10-8 6c3 10 11 22 17 26 7 5 7 8 1 8-15 0-16 43-2 52 9 6 9 8 0 8-6 0-10 10-8 23 2 12 6 51 10 87 6 64 31 110 60 110 7 0 65-30 130-67zm1905-314c0-5-5-9-11-9-5 0-7-6-3-12 5-9 2-9-9 1-22 18-21 26 3 28 11 1 20-2 20-8zm1072-151c-9-9-9-15 1-27 8-11 5-10-10 2-20 18-21 17-42-11-11-16-17-33-13-37 4-5 2-5-5-1-6 3-16-2-22-11-8-14-10-15-11-3 0 13-1 13-10 0-5-8-10-10-10-4 0 12 20 32 33 33 4 0 19 14 33 31 14 16 30 28 34 25 5-3 11-1 15 5 3 5 9 10 13 10 3 0 1-5-6-12zm-1832-44c166-34 162-33 168-38 8-9-20-36-37-36-14 1-14 2 2 11 9 5 17 15 17 22s-4 6-10-3c-9-13-10-13-10 0 0 9-6 5-13-9-6-14-19-27-27-29-11-4-10 1 4 17 11 11 16 24 13 28-4 3-7 1-7-6s-5-9-10-6c-6 4-9 1-8-7 2-7-3-12-11-10-17 4-42-17-35-29 3-6-6-8-21-5-22 4-25 2-15-9 6-8 18-11 26-8s14-1 14-8c0-11 2-11 9 0 5 8 8 23 6 33-3 12 1 18 8 15s11-10 9-16c-2-9 3-9 17-2 10 6 22 7 26 3 5-4 5-1 1 5-5 9-2 11 9 7 23-9 6-19-38-23-5-1-5-5-2-11 4-6-1-7-11-3-11 4-15 2-11-4s0-13-8-17c-8-3-17-1-20 5-4 5-11 7-16 3-5-3-17 0-26 8-13 10-17 10-20 0-3-6-9-10-14-6-5 3-9 2-8-3 3-18-2-27-9-16-5 8-12 8-25-2-15-11-16-17-7-34 6-12 16-21 23-20 9 0 9 2 0 6-20 8-15 22 6 18 15-3 18 0 14 13-6 15-5 16 12 2 10-8 16-10 12-4-11 19 16 34 31 18 7-8 9-14 4-14s-26-11-47-25c-20-15-40-24-43-21s-11 1-18-5c-8-7-14-6-19 2-4 6-2 15 5 19s10 13 6 19c-9 14-56-8-56-27 0-12-2-12-17-1-14 12-16 12-9 0 6-9 5-12-5-9-8 3-13 11-11 17 1 6-3 11-8 11s-10-5-10-11c0-5-5-7-10-4-6 4-8 11-4 16 3 5 2 8-3 7-12-3-56 23-49 30 3 3 0 15-8 28-15 21-12 34 6 34 5 0 7-4 4-8-2-4 0-14 5-22 7-11 8-7 5 13-5 30-2 34 67 78 26 17 47 35 47 40 0 14 23 11 160-17zm-969-48c-10-11-8-16 10-21 19-6 20-9 6-22-20-21-36-9-33 25 4 33 4 32 17 32 8 0 8-4 0-14zm1177 1c14 4 14 3 2-5-16-12-30-7-29 11 0 9 2 9 5 0 3-7 13-9 22-6zm-1073-26c-3-5-1-12 5-16 17-10 11-25-7-18-15 6-16 5-3-9 8-9 17-12 18-7 2 5 9 6 14 3 7-4 8-2 4 4-11 18 10 14 25-5 10-11 10-14 2-9-8 4-13 2-13-4s-6-8-12-4c-7 4-9 3-5-2 4-4 35-9 67-9 46 0 63-5 73-19 12-16 14-16 26-2 11 13 16 12 38-15 20-23 28-27 34-17 5 7 9 9 9 3 0-17-14-31-30-30-8 0-14 8-14 18 2 23-13 22-21-2-6-20-36-22-43-3-2 6 5 10 17 7 21-4 37 20 19 31-6 4-8 3-5-3 4-6 0-14-8-17-9-3-18 1-22 9-4 12-9 13-19 4-17-14-18 2-1 21 10 12 9 12-5 2-13-10-17-10-22 0-3 7-4 4-1-8 4-14 0-21-10-21-11 0-13 6-9 21 4 12 5 19 2 16-27-34-27-36 2-54 28-16 29-16 23 1-5 15-4 16 8 5 8-7 14-17 14-22 0-6 4-10 9-9 5 0 13-5 17-13 5-7 9-8 9-2s7 11 15 11c10 0 14-6 10-16-3-11 0-10 10 3 11 14 15 16 15 5s2-12 9 0c6 9 11 10 15 2 4-6 2-11-4-11s-8-5-4-11c3-6 9-7 13-2 5 8 14 9 38 4 4 0-1-7-11-14-16-12-16-13 4-14 11-1 18 2 15 8-4 5-1 9 5 9 13 0 9-32-5-42-6-5-5-8 3-8 7 0 10-4 7-10-3-5-11-10-16-10-6 0-8 4-5 9 3 4-6 19-19 31-14 13-25 20-25 16 0-5-7-3-15 4s-15 9-15 5c0-5-9 0-20 10s-20 15-20 11-16 2-36 14c-19 12-38 20-41 17-11-11-42 37-32 49 6 8 4 14-5 17-9 4-18 2-21-3-8-12-70 47-70 68-1 9 4 20 10 24 14 10 17 10 10-1zm567-7c-21-14-21-16-6-39 9-14 13-25 10-25-4 0-4-6 1-12 14-24 11-37-8-35-10 1-19 5-19 10 0 4-5 5-11 1-8-4-7-9 2-16 10-6 7-7-8-3-14 4-23 2-23-4s3-10 8-10c18 3 35-2 28-8-12-12-36-12-36 0 0 7-9 1-20-13s-20-20-20-14c0 5 6 16 13 23 10 11 9 12-2 6-10-6-12-4-6 5s4 11-5 5c-7-4-16-2-22 6-7 10-7 7-3-8 4-14 2-23-5-23-6 0-8 5-4 12s3 8-5 4c-15-10-3-29 14-22 16 6 29-21 15-29-6-4-10-3-10 2 0 10-52 35-58 28-3-3 0-5 7-5s9-5 5-12c-5-7-3-8 6-3 9 6 11 4 5-5-6-10-4-12 9-7 9 4 14 3 11-2s-1-12 4-15c5-4 13-2 16 4 5 8 12 7 23-2 9-7 13-8 9-2-4 7 1 18 10 25 14 12 15 11 10-11-4-14-4-19-1-11 5 11 8 11 16 0 7-11 8-10 6 3-2 9 2 17 7 16 6 0 9-3 8-7-3-11 35-7 44 5 5 5 4 6-1 2-11-10-46 9-46 25 0 7 3 8 8 2 10-14 42-18 42-6 0 5-5 13-12 17s-8 3-4-4c5-8 1-10-10-5-16 6-16 7 1 19 10 7 22 11 26 8 4-2 6 5 4 16-5 25-1 25 25 3 11-10 25-19 30-19 6-1 13-3 18-4 4-2 21-3 39-4 23-1 29 2 22 11-7 8-3 15 13 24 20 11 22 10 10-3-7-9-10-22-7-31 4-9-2-21-15-30-12-8-18-17-13-19 4-3 3-4-3-2-6 1-17-3-24-9-10-10-10-7-1 10 9 18 8 24-6 31-29 14-78 9-79-8-1-8-3-19-4-25-1-5-2-12-2-15s-11-7-26-7c-56-4-80-9-95-21-11-9-17-10-22-2-4 6-14 9-23 8-9-2-16 2-15 9 3 16-24 37-31 24-4-6-13-8-21-4-17 6-21-12-5-22 6-4 7-13 1-23-5-9-9-21-10-27-1-5-4-10-8-10-5 0-14-4-20-8-7-5-13-4-13 2 0 5 5 11 11 13s12 20 14 41c3 30 0 39-18 49-12 7-25 12-29 13-5 0-7 5-5 10 1 6 26 10 55 9 28 0 52 3 52 8 0 4 3 7 8 7 22-4 34 3 29 16-8 20 8 28 23 10 6-7 18-11 26-8s14 0 14-6 10-1 23 12c12 12 21 25 20 29-2 4 6 10 17 13 16 5 17 9 7 20-6 7-16 10-21 7s-6 0-2 7c4 6 2 19-6 28-8 10-8 14-1 10 6-4 14-4 17 1 2 4 14 8 27 9l22 2zm-622-44c0-5-4-10-10-10-5 0-10 5-10 10 0 6 5 10 10 10 6 0 10-4 10-10zm910-4c0-2-8-10-17-17-16-13-17-12-4 4s21 21 21 13zm-50-34c0-5-7-9-15-9s-12 4-9 9c3 4 9 8 15 8 5 0 9-4 9-8zm-280-84c0-6-6-8-12-5-7 2-22-3-33-12-20-16-20-16-2 5 17 21 47 28 47 12zm260-118c0-5-4-10-10-10-5 0-10 5-10 10 0 6 5 10 10 10 6 0 10-4 10-10zm1415-40c3-5 1-10-4-10-6 0-11 5-11 10 0 6 2 10 4 10 3 0 8-4 11-10zm-1840-31c13-20 0-16-25 8-23 23-23 24-3 14 12-6 25-16 28-22zm1786-22c-10-9-11-8-5 6 3 10 9 15 12 12s0-11-7-18zm664 3c3-6-1-7-9-4-18 7-21 14-7 14 6 0 13-4 16-10zm-1112-63c-3-4-6-7-7-5s-8 12-16 22c-14 18-14 18 7 6 12-8 19-18 16-23zm418 15c-7-2-18 1-23 6-8 8-4 9 13 5 13-4 18-8 10-11zm97-29c-7-9-7-17 2-28 20-24 2-37-24-18l-23 17 21 19c15 13 17 20 9 23-7 3-13 10-13 15s9 4 19-3c15-9 17-15 9-25zm-546-3c-2-19 0-21 13-10 9 7 15 8 15 2 0-17-28-21-41-6-12 14-14 14-26-2-19-26-16-8 3 22 20 29 40 26 36-6zm428-33c0-5-9 1-20 14l-20 24-31-34-32-34-19 24c-14 17-18 19-14 6 3-11 2-16-4-12-6 3-10 2-10-3 0-6-7-13-16-16-11-4-10 1 5 20 11 15 18 31 15 38-3 6 6-1 19-16l25-27 26 30c14 16 26 34 26 39 0 6 11-1 25-16s25-31 25-37zm-10 53c0-5-2-10-4-10-3 0-8 5-11 10-3 6-1 10 4 10 6 0 11-4 11-10zm-364-9c-3-5 3-20 14-32 20-25 26-20 11 10-7 13-6 18 4 18 8 0 11-7 7-16-5-13-3-14 10-3 13 10 17 10 22-3s10-14 27-5c11 7 23 9 27 6 3-3 0-6-7-6s-9-5-6-11c5-7 14-4 26 7 17 15 19 16 14 2-4-11 1-20 14-28 22-11 28-30 10-30-5 0-8 4-5 9 12 19-51 34-70 16-18-15-5-26 16-15 34 18 35 10 1-11-18-11-38-18-45-15-6 2-3 5 7 5 10 1 16 5 12 11-3 5-13 6-23 3-9-4-3 6 13 21 17 15 23 25 14 23-9-3-22 0-28 6s-14 7-18 2c-5-4-2-10 5-12 6-3 12-9 12-15s-7-4-17 3c-15 12-16 12-10-6 5-14 1-12-14 8-11 15-25 25-30 22-5-4 0-16 11-27 24-26 25-32 3-49-15-13-15-12-5 8 10 19 8 24-13 41-21 16-22 21-9 26 8 3 12 10 9 16-6 10 1 30 11 30 3 0 3-4 0-9zm400-8c-3 9-1 17 4 17 14 0 13-27-1-36-6-3-15 0-20 7-15 24-10 34 7 13 13-16 15-16 10-1zm-113-10c-3-7-9-13-13-13s-10 6-13 13 3 13 13 13 16-6 13-13zm237-3c0-5-4-10-10-10-5 0-10 5-10 10 0 6 5 10 10 10 6 0 10-4 10-10zm-658-14c17-8 21-46 5-46-5 0-7 6-4 14s0 19-6 23c-16 13-57 14-57 2 0-5 5-9 12-9 6 0 8-3 5-6-4-4-13-1-22 6-18 15-20 0-2-19 9-10 7-10-11 0l-23 14 21 17c21 17 50 18 82 4zm305-8c-3-8-6-5-6 6-1 11 2 17 5 13 3-3 4-12 1-19zm40 16c-3-3-12-4-19-1-8 3-5 6 6 6 11 1 17-2 13-5zm-289-28c-2-22-28-27-28-4 0 5 5 6 10 3 6-3 10 1 10 9 0 9 2 16 5 16s4-11 3-24zm427 14c3-6-1-7-9-4-18 7-21 14-7 14 6 0 13-4 16-10zm-145-4c0-3-4-8-10-11-5-3-10-1-10 4 0 6 5 11 10 11 6 0 10-2 10-4zm-350-16c0-5-2-10-4-10-3 0-8 5-11 10-3 6-1 10 4 10 6 0 11-4 11-10zm139-33c0-9-2-9-6 1-2 6-9 10-14 6-5-3-9 0-9 5 0 6-7 11-15 11s-15 5-15 10c0 6 13 4 30-5s30-21 29-28zm346 33c3-5 13-7 23-4 14 5 14 4 3-4-10-7-21-7-35 0-29 15-32 18-13 18 9 0 18-4 22-10zm89-6c3-8 11-12 17-8 8 4 7 9-2 16-11 8-11 9 1 5 8-2 20-14 26-26s15-22 20-22c5 1 9-9 9-21 0-14-5-22-14-20s-11-3-7-15c6-14 4-15-5-6-13 13-3 37 12 28 5-4 9 3 9 15s-5 18-10 15c-6-3-14 4-19 17-8 20-10 21-16 6-4-10-12-18-19-18-6 0-12-9-13-20s2-18 8-15c14 10 22-22 10-42-9-15-10-13-5 10 5 20 3 27-7 25-18-4-20 42-2 49 11 5 11 9-3 24-9 11-12 19-7 19 6 0 14-7 17-16zm-597-10c-3-4-2-14 3-23 5-10 5-23 0-31-7-12-9-10-8 5 0 11-3 28-7 38-5 11-3 17 6 17 7 0 9-3 6-6zm432-3c9-6 6-8-13-8-14 0-23 3-20 8 7 11 15 11 33 0zm56-1c3-5 2-10-4-10-5 0-13 5-16 10-3 6-2 10 4 10 5 0 13-4 16-10zm85 0c0-5-3-9-7-8-5 1-18-3-29-10-12-6-24-9-27-6-3 4-5-3-4-14 1-13 8-20 19-19s16 7 13 15c-2 7 0 10 5 7 6-3 10-1 10 6s3 10 6 7c12-13-16-45-38-44-30 1-33 48-4 52 10 1 23 7 29 13 14 14 27 14 27 1zm117 3c-4-3 0-18 9-32l15-26-20 24c-24 26-27 41-9 41 6 0 8-3 5-7zm543-3c0-5-2-10-4-10-3 0-8 5-11 10-3 6-1 10 4 10 6 0 11-4 11-10zm-1165-10c-3-5-14-10-23-9-14 0-13 2 3 9 27 11 27 11 20 0zm35-11c0-5-4-8-9-5s-8-6-8-19c0-20 2-23 13-14 8 6 14 8 14 5 0-11-30-39-31-29-5 32-6 59-2 66 6 11 23 9 23-4zm138-29c9 7 9 7 2-2-6-7-6-16 1-24 12-14 3-38-11-29-5 3-11-4-13-15-4-17-4-17-3 2 1 13 7 22 14 21 17-4 15 12-3 27-8 7-15 20-15 29 0 14-2 14-10 1-11-18-13-9-3 16 6 16 8 15 18-9 8-19 14-24 23-17zm88 25c5-12 9-12 29 1 22 14 24 14 35-6 6-12 9-24 6-28-3-3-6 0-6 7s-4 9-10 6c-6-4-7 1-3 11 5 14 3 15-15 5-12-7-22-16-22-22s3-8 8-5c11 6 47-22 38-31-4-4-12 0-17 10-6 9-14 15-20 12-5-4-12 1-15 9-3 9-10 13-15 10s-6 2-3 11c5 11 2 14-12 8-12-4-15-3-10 5 10 16 25 15 32-3zm154-29c0-5-7-1-15 10-8 10-14 24-14 29 0 6 6 1 14-9 8-11 15-24 15-30zm-332 17c2-7-1-13-8-13-6 0-8 5-4 12 5 8 2 9-9 5-10-3-17-2-17 4 0 14 32 7 38-8zm276-15c-3-4-1-8 5-8 5 0 12 5 14 10 3 6 4 5 3-2-5-23-29-14-33 12-2 18-1 21 6 10 5-8 7-18 5-22zm-373-1c-10-9-11-8-5 6 3 10 9 15 12 12s0-11-7-18zm271-22c2 2 5-6 5-17 2-21 1-21-15 2-9 14-25 26-35 28-15 3-16 0-5-17 6-11 17-19 22-18 17 3 13-46-4-50-9-3-11-1-5 4 13 11 19 47 7 39-6-3-17 5-26 19-15 23-15 26-1 31 8 3 12 11 9 18-3 6 6-1 19-16 14-15 27-25 29-23zm308 35c0-5-4-10-10-10-5 0-10 5-10 10 0 6 5 10 10 10 6 0 10-4 10-10zm595-8c-3-3-11 0-18 7-9 10-8 11 6 5 10-3 15-9 12-12zm-1195-12c0-5 6-10 14-10 21 0 30-20 16-33-10-9-12-8-6 7 4 13 2 17-7 13-7-3-19 4-25 14-8 12-8 19-2 19 5 0 10-4 10-10zm173-13c4 3 7 1 7-5 0-17-20-15-26 2-3 8-12 12-19 10-16-7-8-34 8-31 7 1 12-8 12-20 0-13-4-23-10-22-5 0-13-10-17-23-7-22-7-22-5 2 1 14 8 24 15 23 6-2 12 6 12 18 0 11-4 18-9 14-6-3-15 3-21 14-13 26 18 49 36 26 6-8 14-12 17-8zm484 4c0-11-5-18-9-15s-5 11-1 19c7 21 12 19 10-4zm-707 5c0-2-7-7-16-10-8-3-12-2-9 4 6 10 25 14 25 6zm146-32c-3-8-10-13-15-10-5 4-12 1-14-4-3-6-4-5-2 2 1 7 8 12 14 11 6-2 11 7 12 20 0 12 3 16 6 9s2-20-1-28zm449 16c3-5 2-10-4-10-5 0-13 5-16 10-3 6-2 10 4 10 5 0 13-4 16-10zm-552-29c-2-6 4-11 12-11s15-5 15-10c0-7-7-7-20 0-11 6-18 15-15 21 4 5-3 9-14 9s-22 4-25 9c-4 6 5 6 21 2 16-5 27-13 26-20zm507 19c0-5-2-10-4-10-3 0-8 5-11 10-3 6-1 10 4 10 6 0 11-4 11-10zm-93-7c-9-2-14-9-11-15 4-7 2-8-5-4-15 10-4 26 17 25 15-1 15-2-1-6zm65-7c-2-5 2-13 10-17 10-7 10-9 0-9-7 0-10-5-6-12 4-6 3-8-4-5-5 4-9 15-8 25 2 10-5 20-18 24-19 6-18 7 4 5 14-1 23-6 22-11zm161 1c-3-5-13-7-23-4-12 3-22-4-31-19-7-13-14-22-16-20-11 11 28 51 51 51 13 0 22-4 19-8zm-293-7c0-5-8-10-17-10-15 0-16 2-3 10 19 12 20 12 20 0zm34-5c3-8 1-15-4-15-6 0-10 7-10 15s2 15 4 15 6-7 10-15zm-403-20c5 4 9 1 9-5 0-17-25-6-26 11-1 9 1 10 3 1 3-7 9-10 14-7zm76 3c-3-8-6-5-6 6-1 11 2 17 5 13 3-3 4-12 1-19zm73 12c0-5-4-10-10-10-5 0-10 5-10 10 0 6 5 10 10 10 6 0 10-4 10-10zm125 0c3-6-1-7-9-4-18 7-21 14-7 14 6 0 13-4 16-10zm195-5c0-8-2-15-4-15s-6 7-10 15c-3 8-1 15 4 15 6 0 10-7 10-15zm110 7c0-4-11-8-25-8-33-2-33 11 0 14 14 1 25-2 25-6zm650 4c0-3-4-8-10-11-5-3-10-1-10 4 0 6 5 11 10 11 6 0 10-2 10-4zm-1104-43c-3-4-6-1-6 6s-4 10-9 6c-5-3-13 0-17 6-4 8-3 9 4 5s12-1 12 6c0 8 5 6 11-5 6-10 8-21 5-24zm139 18c3-5 0-13-6-17-8-5-9-3-4 6 6 10 4 12-8 7-10-3-17-2-17 3 0 13 27 13 35 1zm65-11c-14-11-29-20-35-20-5 0 4 9 20 20 38 25 48 25 15 0zm53 0c-4-4-19-10-33-14-23-5-23-5 3 7 15 7 24 17 20 22-5 4-2 5 5 0 8-4 10-11 5-15zm67 7c0-5-7-7-15-3-8 3-15 0-15-6s-3-9-6-5c-3 3-4 10 0 15 7 12 36 11 36-1zm210 9c0-2-7-6-15-10-8-3-15-1-15 4 0 6 7 10 15 10s15-2 15-4zm-601-26c-6-5-19-6-27-2-11 4-13 1-7-8 5-9 4-11-4-6-17 11-5 24 25 24 17 0 22-3 13-8zm18-15c-18-13-18-14 0-24 10-6 13-11 8-11-6 0-16 5-23 12-9 9-8 16 6 29 9 9 19 14 22 12 3-3-3-11-13-18zm133 21c0-3-4-8-10-11-5-3-10-1-10 4 0 6 5 11 10 11 6 0 10-2 10-4zm285-6c3-6-1-7-9-4-18 7-21 14-7 14 6 0 13-4 16-10zm-263-7c-6-2-9-10-6-15 4-7 2-8-5-4-13 9-5 26 12 25 9 0 8-2-1-6zm41-14c-8-8-13-7-18 2-5 8-4 10 3 5 7-4 12-2 12 5s3 9 7 6c4-4 2-12-4-18zm272 12c3-5 0-13-6-17-7-4-9-3-5 4 3 6-2 13-11 15-16 4-16 5-1 6 9 0 19-3 23-8zm-428-8c-9-2-14-9-11-15 4-7 2-8-5-4-15 10-4 26 17 25 15-1 15-2-1-6zm373-18c14-19 14-19-2-6-10 7-18 18-18 24s1 8 3 6c1-2 9-13 17-24zm-271-19c-3-3-11 5-18 17-13 21-12 21 5 5 10-10 16-20 13-22zm111 30c0-3-4-8-10-11-5-3-10-1-10 4 0 6 5 11 10 11 6 0 10-2 10-4zm35-17c-4-5-1-9 6-9s10-3 6-6c-3-3-14-1-24 5-11 6-13 11-5 11 7 0 10 5 6 12s-3 8 5 4c6-4 9-12 6-17zm81-7c-17-16-18-16-5 5 7 12 15 20 18 17 3-2-3-12-13-22zm-296 6c0-6-3-8-7-5-3 4-13 1-22-6-14-11-14-10-2 6 15 20 31 22 31 5zm96-3c-1-8-5-17-8-21-5-4-4 16 1 34 3 9 9-1 7-13zm174 6c0-5-7-12-16-15-14-5-15-4-4 9 14 17 20 19 20 6zm160 3c0-8-19-13-24-6-3 5 1 9 9 9s15-2 15-3zm-275-13c3-5 0-13-6-17-8-5-9-3-4 6 6 9 1 10-16 5-19-5-21-4-9 4 19 13 27 14 35 2zm243-16c-3-3-9 2-12 12-6 14-5 15 5 6 7-7 10-15 7-18zm-344-1c3-8 2-12-4-9s-10 10-10 16c0 14 7 11 14-7zm260 4c-5-8-2-9 11-4 15 5 16 4 5-9-10-12-15-13-21-3-7 12-3 28 7 28 3 0 2-5-2-12zm-194-12c0-3-4-8-10-11-5-3-10-1-10 4 0 6 5 11 10 11 6 0 10-2 10-4zm70-11c11-13 10-14-5-9-14 6-16 4-10-7 5-8 4-11 0-6-12 10-15 37-5 37 4 0 13-7 20-15zm59 1c9-11 9-16 0-22-8-5-9-3-4 6 6 9 4 12-7 8-9-4-15 0-15 8 0 18 11 18 26 0zm-2089-111c47-3 99-8 115-10 17-2 66-7 110-10 44-4 94-8 110-10 17-2 62-6 100-10 67-6 105-9 212-20 27-2 83-7 125-11 43-3 86-7 95-9 10-2 28-4 39-4 13-1 24-10 29-23 11-36 12-58 3-52-12 7-10-10 2-22 7-7 6-11-4-11-8 0-13 4-11 8 3 4-2 9-10 13-8 3-15 0-15-7 0-8-4-6-10 3-6 10-10 11-10 3 0-7-5-13-11-13-5 0-7 5-4 10 4 6-7 10-25 10-22 0-29-4-24-12 4-7-1-5-12 4-16 14-23 15-32 6-7-7-12-8-12-2s-7 11-15 11c-16 0-19-8-7-23 4-5 0-1-10 8-20 22-26 22-52 1-17-15-18-15-8-2 11 14 8 17-18 21-33 5-37 0-17-22 6-8 2-6-10 4s-37 20-55 22-39 6-45 9c-7 2-13 0-13-6s-5-7-12-3c-6 4-36 9-65 10s-57 5-63 9c-5 3-10 1-10-5 0-8-6-7-21 1-17 9-23 8-30-2-6-10-9-11-9-2 0 7-11 12-25 11s-25-6-25-11-7-1-16 7c-19 19-31 20-37 4-4-9-8-9-14-3-4 6-19 11-32 13-17 3-21 0-15-10s5-11-7-2c-8 6-31 14-52 17-34 5-36 4-27-13 5-10 10-22 10-27-1-4-8 5-16 21-14 25-20 28-52 22-20-3-41-1-49 6-9 7-13 7-13 0 0-6 8-16 18-21 9-6 12-11 5-11-6 0-19 10-27 21-9 13-25 22-41 22-18 0-23 2-14 8 7 4 17 5 23 2 6-4 6 1 1 13-4 10-7 27-7 37 0 9-3 17-9 17-5 0-9 6-9 14 0 10 8 13 23 11 12-2 60-6 107-10zm-884-14c-3-5 1-14 9-21s15-17 15-22c0-6-9 0-19 13-17 21-19 39-5 39 3 0 3-4 0-9zm759-19c-3-3-11 0-18 7-9 10-8 11 6 5 10-3 15-9 12-12zm-754-34c11-21 11-22-4-9-10 7-17 17-17 22 0 15 9 10 21-13zm754 1c-6-9-40-7-51 4-4 3 6 4 21 1 19-3 24-1 19 7-4 8-3 9 5 5 6-4 9-12 6-17zm-718-9c-1-11-5-20-9-20-10 0-10 4-2 24 8 22 13 20 11-4zm-17-46c0-8 5-14 10-14 6 0 10-6 10-12-1-7-12 1-26 17-21 25-25 26-19 8 6-23-9-40-21-22-5 8-3 9 6 4 10-6 12-4 7 9-4 10-5 22-2 26 8 13 35 0 35-16zm680 16c0-5-4-10-10-10-5 0-10 5-10 10 0 6 5 10 10 10 6 0 10-4 10-10zm-639-20c6 0 7 6 3 13-4 6 2 3 14-7 12-11 22-24 22-30s-5-4-10 4-17 15-26 15c-10 0-18 6-20 13-1 7 0 8 3 2 2-5 9-10 14-10zm676-2c0-13-1-17-4-10-3 6-9 10-14 6-5-3-9-1-9 5 0 5 6 12 13 14 6 3 12 6 12 6 1 1 1-9 2-21zm53 18c0-2-7-6-15-10-8-3-15-1-15 4 0 6 7 10 15 10s15-2 15-4zm-148-38c-8-8-9-4-5 13 4 13 8 18 11 10 2-7-1-18-6-23zm248 22c-8-5-19-10-25-10-5 0-3 5 5 10s20 10 25 10c6 0 3-5-5-10zm-190-21c0-5-4-9-8-9-5 0-9 7-9 15s4 12 9 9c4-3 8-9 8-15zm212-11c-7-7-16-6-29 1-16 11-15 11 6 5 17-4 21-3 16 6-6 9-4 11 4 5 9-5 9-11 3-17zm-832-3c0-8-4-15-10-15-5 0-7 7-4 15 4 8 8 15 10 15s4-7 4-15zm740 11c0-3-4-8-10-11-5-3-10-1-10 4 0 6 5 11 10 11 6 0 10-2 10-4zm280-15c0-5-10-11-22-14-21-5-21-5-6 7 10 7 14 17 10 21-4 5-1 5 6 1 6-4 12-11 12-15zm-1086-6c-4-8-8-15-10-15s-4 7-4 15 4 15 10 15c5 0 7-7 4-15zm122-3c1-7 0-8-3-2-7 14-24 13-20-2 1-7-9-14-23-15l-25-2 25 8c14 5 21 9 17 10-5 1-5 6-2 12 8 13 28 7 31-9zm475-5c-10-9-11-8-5 6 3 10 9 15 12 12s0-11-7-18zm135-4c-6-6-36 9-36 18 0 5 9 4 20-3 10-7 18-14 16-15zm259 18c-3-2-16-6-28-8-15-2-18 0-9 5 14 9 45 12 37 3zm180 0c-9-8-36-10-30-2 2 4 11 8 20 8 8 0 13-3 10-6zm110-1c3-5 1-10-4-10-6 0-11 5-11 10 0 6 2 10 4 10 3 0 8-4 11-10zm122-10c1-11-2-20-5-20-4 0-8 9-9 20s2 20 5 20c4 0 8-9 9-20zm57 12c3-5-1-9-9-9s-12 4-9 9c3 4 7 8 9 8s6-4 9-8zm1636-6c212-3 388-5 393-5 13-1 7-16-18-43-22-24-30-26-95-24-42 1-70-3-71-9 0-5-3-4-6 3-4 10-8 10-19 1-8-6-14-7-14-2s-11 9-25 9-25-5-25-10c0-6-5-4-10 4-8 12-11 13-19 1-6-9-11-10-15-2-4 6-12 11-17 11-6 0-7-6-3-12 6-9 3-9-9 1-18 14-52 8-42-8 3-5 1-12-4-16-6-3-8 3-6 14 3 15-2 19-18 18-12-1-28-8-35-17-11-13-12-13-7 1 5 13-5 15-57 16-37 0-66-4-70-11-6-8-8-8-8 0 0 18-460 19-472 2-6-10-8-8-8 5 0 14-4 16-19 8-10-6-22-7-26-3-3 4-12 7-18 7-11 0-47 56-41 66 2 3 92 4 201 3 109-2 371-6 583-8zm-2315-6c4-6-1-7-11-3-13 5-15 3-9-7 5-9 4-11-4-6-6 4-9 12-6 17 8 12 22 12 30-1zm60 0c4-6-1-7-11-3-13 5-15 3-9-7 5-9 4-11-4-6-6 4-9 12-6 17 8 12 22 12 30-1zm-187-32c3 2 7-1 9-7 1-7 0-8-4-1-2 5-9 8-14 4-5-3-12 2-15 10-3 9-11 13-17 9s-7-1-2 7c6 10 11 9 22-6 8-10 17-18 21-16zm27 23c-3-5-1-12 5-16 5-3 10-11 10-18 0-6-7-2-15 9-17 23-19 34-4 34 5 0 8-4 4-9zm239-7c3-8 2-12-4-9s-10 10-10 16c0 14 7 11 14-7zm80 4c-5-8-1-9 12-4 14 5 16 4 7-5-13-13-37-3-28 12 4 5 8 9 11 9s2-5-2-12zm120 0c-5-7-2-9 8-6 8 4 15 0 15-7 0-10-5-11-19-4-16 9-17 29-2 29 3 0 2-5-2-12zm123 6c-3-3-12-4-19-1-8 3-5 6 6 6 11 1 17-2 13-5zm90 0c-3-3-12-4-19-1-8 3-5 6 6 6 11 1 17-2 13-5zm-760-36c-3-7-5-2-5 12s2 19 5 13c2-7 2-19 0-25zm727 2c-6-6-10-3-10 10s4 16 10 10c7-7 7-13 0-20zm171-8c-17-15-18-15-6 0 7 9 9 23 5 30-6 10-4 11 7 0 11-10 10-15-6-30zm109 8c-6-6-10-3-10 10s4 16 10 10c7-7 7-13 0-20zm102 18c5 4 5 3 1-2-12-15-34-15-34 0 0 9 4 11 12 4 7-5 16-6 21-2zm159 3c3-5 2-12-3-15s-9 1-9 9c0 17 3 19 12 6zm-1840-10c-3-2 3-10 13-18 16-13 15-13-3-4-43 22-51 30-28 28 12 0 20-3 18-6zm40 1c-3-3 3-10 12-17 13-10 14-13 2-20-8-5-11-5-7 0 4 4-2 15-14 25-17 14-18 17-5 17 10 0 15-3 12-5zm105 0c0-4-9-8-20-9s-20 2-20 5c0 4 9 8 20 9s20-2 20-5zm40-2c0-5-4-10-10-10-5 0-10 5-10 10 0 6 5 10 10 10 6 0 10-4 10-10zm350 0c0-5-8-10-17-10-15 0-16 2-3 10 19 12 20 12 20 0zm258-4c-7-8-15-12-17-11-5 6 10 25 20 25 5 0 4-6-3-14zm77 5c-9-8-36-10-30-2 2 4 11 8 20 8 8 0 13-3 10-6zm175-1c0-5-5-10-11-10-5 0-7 5-4 10 3 6 8 10 11 10 2 0 4-4 4-10zm332-1c2-2 1-3-1-1-2 1-14-6-25-15-15-14-18-14-8-2 6 9 9 18 6 22-3 3 1 4 10 3 8-1 17-4 18-7zm360 0c2-2 1-3-1-1-2 1-14-6-25-15-15-14-18-14-8-2 6 9 9 18 6 22-3 3 1 4 10 3 8-1 17-4 18-7zm-1639-39c-7-25-16-27-11-2 2 9-3 23-12 30-13 11-12 12 7 3 15-8 20-17 16-31zm147 35c0-2-10-9-22-15-22-11-22-10-4 4 21 17 26 19 26 11zm719-8c8-10 7-14-4-14-8 0-11 5-8 10 4 6-1 8-11 4s-15-3-11 3c8 14 20 12 34-3zm-462-12c5-4 2-4-6 0-11 6-13 4-8-8 8-22 4-21-16 1-16 18-16 19 3 17 11-1 23-5 27-10zm1113 11c0-2-8-10-17-17-16-13-17-12-4 4s21 21 21 13zm266-22c1-9 0-13-4-10-3 4-7 14-8 22-1 9 0 13 4 10 3-4 7-14 8-22zm-1695-7c-10-9-11-8-5 6 3 10 9 15 12 12s0-11-7-18zm155 14c-4-5-1-11 6-13 8-3 6-6-4-10-11-5-15-2-13 10 5 23 4 22 11 22 3 0 3-4 0-9zm68-7c4-9 4-19 1-22s-5 0-5 7-4 10-8 7c-5-3-9 1-9 9 0 20 13 19 21-1zm39 3c3-8-1-14-8-14s-11 6-8 14c3 7 6 13 8 13s5-6 8-13zm630 0c4 3 7 1 7-5 0-17-16-15-31 6-12 15-12 16 2 5 9-7 19-10 22-6zm64 0c0-8-6-14-14-14-9 0-10 4-2 14 6 7 12 13 14 13 1 0 2-6 2-13zm141-12c-3-3-9 2-12 12-6 14-5 15 5 6 7-7 10-15 7-18zm99 11c0-8-6-12-15-9-11 5-11 7 0 14 7 5 13 9 14 9 0 0 1-6 1-14zm63 11c0-2-8-11-18-20-15-14-19-15-19-2 0 8 4 12 8 9 4-2 10 0 14 6 6 10 15 14 15 7zm60-1c0-2-8-10-17-17-16-13-17-12-4 4s21 21 21 13zm159-9c8-10 7-14-2-14-8 0-14 6-14 14 0 7 1 13 2 13 2 0 8-6 14-13zm-1649-17c6-11 8-20 6-20-3 0-10 9-16 20s-8 20-6 20c3 0 10-9 16-20zm226 8c4-7 3-8-4-4s-12 2-12-5-3-10-6-6c-6 5 3 27 11 27 2 0 7-5 11-12zm321-3c0-8-6-16-13-19s-10 2-7 15c6 22 20 26 20 4zm123 1c-7-7-13-7-20 0-6 6-3 10 10 10s16-4 10-10zm511-9c-10-9-11-8-5 6 3 10 9 15 12 12s0-11-7-18zm-1056 4c3-5 0-13-6-17-8-4-9-3-5 4s2 12-3 12c-6 0-11-5-11-12 0-6-3-9-6-5-7 7 4 27 16 27 5 0 11-4 15-9zm-77-26c-3-3-9 2-12 12-6 14-5 15 5 6 7-7 10-15 7-18zm93 2c-10-9-11-8-5 6 3 10 9 15 12 12s0-11-7-18zm104 13c-3-5 0-10 7-11 10 0 10-2 0-6-6-2-10-9-7-14 4-5-2-6-11-2-13 5-15 3-9-7 6-9 4-11-5-5-10 6-9 11 5 22 11 7 15 13 11 13s-4 5-1 10c3 6 8 10 11 10s2-4-1-10zm261-15c1-8-1-17-5-19-4-3-7 6-7 19 0 25 8 25 12 0zm719 7c-3-3-11 0-18 7-9 10-8 11 6 5 10-3 15-9 12-12zm240 0c-3-3-11 0-18 7-9 10-8 11 6 5 10-3 15-9 12-12zm83-2c-7-10-14-17-17-15-4 4 18 35 25 35 2 0-1-9-8-20zm1057 10c3-5 1-10-4-10-6 0-11 5-11 10 0 6 2 10 4 10 3 0 8-4 11-10zm45 0c0-5-2-10-4-10-3 0-8 5-11 10-3 6-1 10 4 10 6 0 11-4 11-10zm40 6c0-3-4-8-10-11-5-3-10-1-10 4 0 6 5 11 10 11 6 0 10-2 10-4zm74-8c-3-4-11-5-19-1-21 7-19 12 4 10 11 0 18-5 15-9zm46 2c0-5-2-10-4-10-3 0-8 5-11 10-3 6-1 10 4 10 6 0 11-4 11-10zm164 2c3-5-1-9-9-9s-12 4-9 9c3 4 7 8 9 8s6-4 9-8zm-2676-15c-1-2 3-11 9-19 10-12 10-15-2-15-8 0-11 5-8 10 4 6 0 8-9 5-8-4-15-1-15 7s7 11 15 7c11-4 13-1 7 9-4 8-5 11-1 7 4-3 6-8 4-11zm179-9c-3-8-6-5-6 6-1 11 2 17 5 13 3-3 4-12 1-19zm946 7c-3-9-8-14-10-11-3 3-2 9 2 15 9 16 15 13 8-4zm-1334-18c0-9-2-8-6 1-2 6-10 9-15 6-7-4-8-2-4 5 9 13 26 5 25-12zm277 11c5-7 3-8-6-3-10 6-12 4-6-11 5-14 4-16-5-7-6 6-8 16-5 22 9 14 13 14 22-1zm254 8c0-2-8-10-17-17-16-13-17-12-4 4s21 21 21 13zm955-6c-3-5-12-10-18-10-7 0-6 4 3 10 19 12 23 12 15 0zm140 0c3-6-1-7-9-4-18 7-21 14-7 14 6 0 13-4 16-10zm852-9c0-11-5-18-9-15s-5 11-1 19c7 21 12 19 10-4zm159 4c-1-8-5-17-8-21-5-4-4 16 1 34 3 9 9-1 7-13zm200-11c1-9 0-13-4-10-3 4-7 14-8 22-1 9 0 13 4 10 3-4 7-14 8-22zm119 16c3-5 1-10-4-10-6 0-11 5-11 10 0 6 2 10 4 10 3 0 8-4 11-10zm-278-15c0-8-4-12-9-9s-6 10-3 15c9 13 12 11 12-6zm-1092-5c3-6-1-7-9-4-18 7-21 14-7 14 6 0 13-4 16-10zm855 0c0-5-5-10-11-10-5 0-7 5-4 10 3 6 8 10 11 10 2 0 4-4 4-10zm-2427-15c-3-9-8-14-10-11-3 3-2 9 2 15 9 16 15 13 8-4zm82 5c3-6-1-7-9-4-18 7-21 14-7 14 6 0 13-4 16-10zm-130-10c3-6-1-7-9-4-18 7-21 14-7 14 6 0 13-4 16-10zm79 1c3-5-1-11-9-14-9-4-12-1-8 9 6 16 10 17 17 5zm133-11c-1-11-5-20-9-20-10 0-10 4-2 24 8 22 13 20 11-4zm198 10c-3-5-1-10 6-10s10-3 6-6c-9-9-28 6-22 17 4 5 8 9 11 9s2-4-1-10zm92-12c-3-8-6-5-6 6-1 11 2 17 5 13 3-3 4-12 1-19zm1268 4c-3-3-11 0-18 7-9 10-8 11 6 5 10-3 15-9 12-12zm-1473-9c-9-3-10-9-3-17 8-9 6-13-4-13-8 0-13 3-10 5 3 3 1 10-5 16-6 8-2 12 13 13 12 0 16-1 9-4zm163-3c3-6-1-7-9-4-18 7-21 14-7 14 6 0 13-4 16-10zm73-10c-7-10-14-17-17-15-4 4 18 35 25 35 2 0-1-9-8-20zm2011-6c-6-8-17-14-23-14s-3 5 7 11c9 6 14 15 11 21-4 7-2 8 5 4 9-6 9-11 0-22zm-2153-10c1-9 0-13-4-10-3 4-7 14-8 22-1 9 0 13 4 10 3-4 7-14 8-22zm2057 11c-3-9-8-14-10-11-3 3-2 9 2 15 9 16 15 13 8-4zm-2296-17c-3-8-6-5-6 6-1 11 2 17 5 13 3-3 4-12 1-19zm183-3c14-19 14-19-2-6-10 7-18 18-18 24s1 8 3 6c1-2 9-13 17-24zm110 21c0-2-8-10-17-17-16-13-17-12-4 4s21 21 21 13zm2230 0c0-3-4-8-10-11-5-3-10-1-10 4 0 6 5 11 10 11 6 0 10-2 10-4zm-723-21c0-8-4-12-9-9s-6 10-3 15c9 13 12 11 12-6zm-1738-29c-3-3-11 5-18 17-13 21-12 21 5 5 10-10 16-20 13-22zm1701 24c0-5-5-10-11-10-5 0-7 5-4 10 3 6 8 10 11 10 2 0 4-4 4-10zm154-2c-3-4-11-5-19-1-21 7-19 12 4 10 11 0 18-5 15-9zm46 2c0-5-5-10-11-10-5 0-7 5-4 10 3 6 8 10 11 10 2 0 4-4 4-10zm-1781-27c2-1-5-1-16 0-11 0-20 7-20 14 0 10 4 10 16 1 9-7 18-13 20-15zm2599 14c12-2 22 1 22 6 0 7 4 7 12-1 7-7 17-8 30-1 10 5 18 6 18 2s45-8 100-8l100 1-23-24c-68-73-278-277-284-276-4 0-28 10-53 22-59 27-132 34-189 16-25-7-46-12-46-11-1 1-50 63-109 137-97 121-106 135-87 140 25 6 474 3 509-3zm-902-12c-1-8-5-17-8-21-5-4-4 16 1 34 3 9 9-1 7-13zm1394-1c0-11-6-16-170-145-107-85-122-96-143-114-89-77-61-37 68 94 88 89 168 166 177 169 26 11 68 8 68-4z"/><path d="m1555 3080c-3-5-1-10 4-10 6 0 11 5 11 10 0 6-2 10-4 10-3 0-8-4-11-10z"/><path d="m1616 3038c3-5 10-6 15-3 13 9 11 12-6 12-8 0-12-4-9-9z"/><path d="m1595 2941c-3-5-2-12 3-15s9 1 9 9c0 17-3 19-12 6z"/><path d="m1450 2920c0-5 5-10 11-10 5 0 7 5 4 10-3 6-8 10-11 10-2 0-4-4-4-10z"/><path d="m1426 2862c-3-5 1-9 9-9s12 4 9 9c-3 4-7 8-9 8s-6-4-9-8z"/><path d="m1469 2856c4-6 7-23 6-39-1-15 1-25 4-22 12 12 7 72-6 72-7 0-9-5-4-11z"/><path d="m1510 2846c0-2 7-7 16-10 8-3 12-2 9 4-6 10-25 14-25 6z"/><path d="m1336 2813c-6-14-5-15 5-6 7 7 10 15 7 18s-9-2-12-12z"/><path d="m1505 2800c-3-6 1-7 9-4 18 7 21 14 7 14-6 0-13-4-16-10z"/><path d="m1364 2782c4-3 14-7 22-8 9-1 13 0 10 4-4 3-14 7-22 8-9 1-13 0-10-4z"/><path d="m1434 2783c3-4 0-13-6-22-10-12-7-12 8 2 11 9 23 16 25 15 2-2 3-1 1 1-1 3-10 6-18 7-9 1-13 0-10-3z"/><path d="m1324 2738c-12-14-13-18-3-10 9 6 18 10 21 7 2-3 5 2 5 10 0 19 0 19-23-7z"/><path d="m1373 2747c0-8 6-14 14-14 9 0 10 4 2 14-6 7-12 13-14 13-1 0-2-6-2-13z"/><path d="m1335 2709c-4-6-5-12-2-15 2-3 7 2 10 11 7 17 1 20-8 4z"/><path d="m909 2663c-13-16-12-17 4-4 9 7 17 15 17 17 0 8-8 3-21-13z"/><path d="m973 2653c0-9 4-10 14-2 7 6 13 12 13 14 0 1-6 2-13 2-8 0-14-6-14-14z"/><path d="m999 2633c-13-16-12-17 4-4 9 7 17 15 17 17 0 8-8 3-21-13z"/><path d="m894 2629c-3-6-2-15 3-20s9-1 9 11c0 23-2 24-12 9z"/><path d="m830 2622c0-4 11-8 25-8 28 0 24 8-5 13-11 2-20-1-20-5z"/><path d="m805 2599c-4-6-13-8-19-6-7 3-13-1-13-8 0-8 7-11 16-7 13 5 14 3 4-9-10-13-10-16 1-16 8 0 13 7 11 16-1 9 2 22 8 29 5 6 7 12 4 12s-9-5-12-11z"/><path d="m1070 2594c6-6 7-13 4-17-3-3 1-4 10-3 8 1 19 6 23 11 5 4 2 5-6 0-10-6-13-4-9 6s-1 15-13 15-15-4-9-12z"/><path d="m674 2575c0-13 3-22 7-19 8 4 6 30-2 38-3 3-5-5-5-19z"/><path d="m930 2591c-8-6-19-7-25-4-5 4-6 2-2-2 13-15 35-14 41 1 6 16 6 17-14 5z"/><path d="m974 2580c0-10 5-16 11-12 5 4 16 7 23 8 8 2 17 6 20 10 4 4 0 4-8 2-8-3-22-2-30 3-11 5-16 2-16-11z"/><path d="m821 2574c0-11 3-14 6-6 3 7 2 16-1 19-3 4-6-2-5-13z"/><path d="m878 2551c5-13 3-14-9-4s-15 8-15-6c0-12 5-17 15-13s12 1 6-9c-4-8-6-12-2-9 3 3 6 10 7 15 1 6 6 17 10 26 6 11 5 16-5 16-8 0-11-7-7-16z"/><path d="m1026 2557c3-10 9-15 12-12s0 11-7 18c-10 9-11 8-5-6z"/><path d="m677 2538c-6-3 11-5 37-3 25 1 49 4 51 7 8 8-75 4-88-4z"/><path d="m945 2539c-11-16-1-19 13-3 7 8 8 14 3 14s-13-5-16-11z"/><path d="m976 2532c-2-4 4-8 14-8s16 4 14 8c-3 4-9 8-14 8s-11-4-14-8z"/><path d="m763 2522c-7-4-9-13-4-21 6-9 10-7 14 8 3 12 4 21 4 21-1 0-7-4-14-8z"/><path d="m830 2521c0-10 29-36 34-30 1 2-6 12-16 22-10 9-18 13-18 8z"/><path d="m694 2495c1-8 6-18 11-22 4-4 5-2 1 5-4 6-3 12 3 12 5 0 12-6 14-12 4-10 6-10 6-1 1 7-8 17-18 23-15 7-19 7-17-5z"/><path d="m801 2496c-9-10-8-15 3-19 9-4 18-1 22 5 5 7 2 8-6 3-10-6-12-4-7 8 8 21 3 22-12 3z"/><path d="m890 2500c0-5 5-10 10-10 6 0 10 5 10 10 0 6-4 10-10 10-5 0-10-4-10-10z"/><path d="m766 2463c-8-20 9-40 19-22 6 8 4 10-5 4-9-5-10-2-5 14 8 25 0 29-9 4z"/><path d="m835 2470c-3-6 1-7 9-4 18 7 21 14 7 14-6 0-13-4-16-10z"/><path d="m665 2460c-3-6 1-7 9-4 18 7 21 14 7 14-6 0-13-4-16-10z"/><path d="m676 2433c-6-14-5-15 5-6 7 7 10 15 7 18s-9-2-12-12z"/><path d="m816 2441c-3-4 6-6 19-3 14 2 25 6 25 8 0 8-39 4-44-5z"/><path d="m701 2424c0-11 3-14 6-6 3 7 2 16-1 19-3 4-6-2-5-13z"/><path d="m740 2426c0-2 7-7 16-10 8-3 12-2 9 4-6 10-25 14-25 6z"/><path d="m660 2406c0-2 7-6 15-10 8-3 15-1 15 4 0 6-7 10-15 10s-15-2-15-4z"/><path d="m775 2400c-3-5-1-10 4-10 6 0 11 5 11 10 0 6-2 10-4 10-3 0-8-4-11-10z"/><path d="m699 2388c-1-7-1-16 0-20 0-4-8-6-19-5-12 1-18 7-16 14 3 7 1 13-5 13s-9-8-7-17c5-27 50-23 54 5 2 12 2 22-1 22s-6-6-6-12z"/><path d="m730 2380c-8-5-10-10-5-10 6 0 17 5 25 10s11 10 5 10c-5 0-17-5-25-10z"/><path d="m770 2371c0-6 4-13 10-16s7 1 4 9c-7 18-14 21-14 7z"/><path d="m750 2363c0-6 8-17 18-24 16-13 16-13 2 6-8 11-16 22-17 24-2 2-3 0-3-6z"/><path d="m723 2342c10-4 18-12 17-17s6-12 15-15 16-9 16-13c-2-21 0-27 10-27 8 0 7 5-2 16-11 14-10 15 7 12 14-2 18 2 17 19-2 17 1 21 15 17 14-5 14-4 2 4-19 14-32 5-25-18 5-17 3-18-24-7-16 6-29 15-28 21 1 5-7 11-18 13-18 3-18 2-2-5z"/><path d="m668 2333c7-3 16-2 19 1 4 3-2 6-13 5-11 0-14-3-6-6z"/><path d="m630 2320c0-5 5-10 10-10 6 0 10 5 10 10 0 6-4 10-10 10-5 0-10-4-10-10z"/><path d="m696 2322c-2-4 0-14 6-22 8-12 9-12 5 2-3 9-1 19 6 22 9 3 9 5 0 5-6 1-14-3-17-7z"/><path d="m853 2304c0-23 1-24 9-10 7 12 7 21 0 28-6 6-9 0-9-18z"/><path d="m830 2313c0-5-11-22-25-38-14-15-20-25-14-23 18 6 54 56 46 65-4 3-7 2-7-4z"/><path d="m672 2296c7-8 15-12 17-11 5 6-10 25-20 25-5 0-4-6 3-14z"/><path d="m884 2295c-10-8-14-15-9-15 6 0 3-5-5-11-10-7-11-9-2-7 8 2 13 7 12 12-1 4 7 14 17 22 10 7 15 14 12 14s-14-7-25-15z"/><path d="m703 2275c-35-19-39-24-23-28 11-3 18-1 14 4-3 5-2 9 3 9 4 0 19 9 33 20 32 25 25 24-27-5z"/><path d="m646 2274c-11-8-16-14-10-14 13 0 39 18 34 24-3 2-14-2-24-10z"/><path d="m750 2265c0-8 4-15 10-15 5 0 7 7 4 15-4 8-8 15-10 15s-4-7-4-15z"/><path d="m982 2264c10-10 20-16 22-13 3 3-5 11-17 18-21 13-21 12-5-5z"/><path d="m3789 2265c-1-3-2-8-3-12-4-21-28-53-35-49-5 3-16-3-26-14s-15-20-10-20c4 0 2-6-5-14-6-8-17-13-25-10-9 4-12-3-11-19 1-17 5-22 12-16 6 5 14 6 17 2 4-3 7-2 7 4 0 13 54 11 57-2 1-6-6-8-15-7-9 2-14 1-10-4 4-4 2-14-5-22-10-13-9-15 5-9 21 7 45-27 28-38-8-5-8-11 0-20s8-15 0-20c-5-3-10-4-10 0 0 3-10 1-21-6-12-6-19-7-15-1 3 5-1 12-9 16-17 6-19-2-6-23 6-10 13-11 27-3 13 7 26 6 46-4 25-13 28-13 28 2 0 11-5 14-17 10-15-5-15-4 1 9 17 13 18 15 3 15-22 0-21 8 1 33 9 11 11 17 3 12-8-4-17-2-22 6-14 22-11 27 15 25 17-2 23 1 19 10-3 8-9 11-14 8s-9 0-9 5v19c0 4 8 7 17 7s17 8 19 18c1 9-2 17-7 17s-9 5-9 11c0 5 6 7 13 3 9-5 9-4 0 6-14 15-6 43 10 33 6-4 7-1 2 7-6 10-11 10-20-4-11-14-13-15-18-2-4 9-2 18 3 21 13 8 13 25 0 25-5 0-11-2-11-5zm16-88c2-26-22-41-66-42-29-1-36 2-28 11 6 7 16 11 24 8 7-3 16 0 20 6s1 9-7 8c-7-2-13 4-13 12s6 14 12 13c7-2 18 6 25 17 12 18 13 18 22 2 6-9 11-25 11-35z"/><path d="m3771 2196c-6-7-8-16-4-19 3-4 0-13-6-21-10-12-9-14 3-12 21 3 29 13 31 37 2 25-9 33-24 15z"/><path d="m624 2235c-7-18 2-45 15-45 12 0 24 37 16 50-9 15-25 12-31-5zm26-9c0-8-4-18-10-21-5-3-10 3-10 14 0 12 5 21 10 21 6 0 10-6 10-14z"/><path d="m810 2239c0-5-4-7-10-4-17 10-11-2 8-16 9-7 14-9 10-5-4 5-3 15 3 23 9 9 8 13 0 13-6 0-11-5-11-11z"/><path d="m830 2222c0-4 9-13 20-20 19-12 20-11 8 8-13 20-28 27-28 12z"/><path d="m3720 2111c-8-6-17-8-21-5-4 2-9-2-12-10-6-16 15-50 32-52 6-1 17-2 24-3 8-1 8-4-2-10-9-6-22-6-34 1-14 7-22 7-27-2-4-6-11-11-16-11s-9-6-9-14c0-16-13-21-23-9-4 4-1 4 5 0 9-5 11-2 6 10-4 11-8 13-11 6-2-7-12-12-23-12-10 0-19-7-19-15 0-18 17-20 23-2 2 6 8 8 13 4s2-13-6-18c-11-8-9-9 10-4 14 4 29 11 35 16 18 17 25 9 8-9-23-23-72-21-90 3-12 18-13 17-11-9 3-35 23-53 41-37 8 6 17 8 20 4 4-3 7-1 7 6s4 10 9 7 14 1 21 9 16 12 22 9c5-3 8 7 6 23-2 21 1 27 12 24 40-10 62-9 51 2-6 6-7 15-1 22 5 6 5 16 0 25-8 12-10 12-10 1s-3-11-15-1c-8 6-20 8-26 4-8-4-9-3-5 4s1 12-6 12c-9 0-9 3 2 10 20 13 39 12 20-1-12-8-12-10-1-7 8 2 15 12 17 21 3 20 3 19-16 8zm-20-85c0-2-6-9-14-15-11-9-16-9-22 0-4 7-3 9 4 5 6-3 13-2 17 4 6 10 15 14 15 6z"/><path d="m611 2071c-10-6-9-10 4-15 10-3 15-12 11-21-3-8-1-17 3-19 9-6 9 49 1 58-3 3-11 1-19-3z"/><path d="m1773 2003c8-13-17-36-27-25-4 4-6 0-4-8 2-9-3-14-12-12-8 2-12 0-8-4s3-13-3-21c-9-10-15-10-25-2-8 6-14 8-14 4s-6-2-14 4c-9 8-16 8-20 2-4-5-15-8-26-6-12 2-19 1-16-3 2-4-3-18-13-31l-17-23-25 36c-23 34-41 43-40 21 0-6-9-19-20-31-15-16-16-23-7-32 7-7 8-12 4-12-5 0-3-7 4-15 10-12 16-13 26-4 19 16 18 33-2 25-10-4-13-2-8 6 4 6 3 8-3 5-5-3-10 1-10 9 0 10 4 11 11 4 18-18 27-11 15 13-8 16-8 19 0 11 6-6 13-21 16-33 2-13 9-29 15-36 8-10 7-16-6-23-11-6-13-11-5-16 6-4 11-2 11 4s5 8 11 5c6-4 8-13 5-21-3-7-1-16 4-19 6-4 11-1 11 4 3 26 4 30 11 36 4 4 4 13 1 21s0 14 6 14c7 0 9 12 6 33-4 23-3 28 5 17 9-13 10-13 10 0 0 12 2 13 9 1 5-7 11-9 13-5 3 5 3 2 1-6-2-11 1-10 11 3 12 16 14 16 20 2 4-11 2-14-6-9-7 4-8 3-4-4 13-21 28-13 21 11-3 13 2 8 14-13 21-36 30-35 10 2-8 15-8 23 1 32 8 8 10 7 5-6-4-11-2-18 4-18s10-3 10-7c-3-20 2-33 12-33 8 0 8 4 0 14-9 10-7 17 5 27 21 17 17 17 38-1 16-12 20-11 37 10 14 19 18 20 12 6-5-16-3-18 13-13 18 7 18 6 2-6-23-18-12-30 14-16 17 9 18 8 9-9-6-11-7-22-4-26 3-3 1-6-6-6-8 0-11 7-7 18 5 15 4 15-6 1-10-15-13-15-29 4-14 18-19 19-33 8-9-7-16-18-16-23 0-6 7-5 15 2 11 9 19 10 26 3s5-14-6-23-15-9-15-1c0 7-5 9-11 6-6-5-4-12 8-21 13-11 14-14 3-12-8 2-20 9-26 17-9 12-11 11-11-1 0-7 6-19 14-26 8-9 13-9 13-2 0 6 5 8 10 5 6-3 13 1 16 9 3 9 10 13 15 10s6 2 3 10c-4 11 0 14 15 11 12-2 26-7 33-11s8-3 4 4-3 12 3 12c5 0 11-6 14-12 3-10 7-10 19 0 11 9 17 9 20 2 4-14 62-18 66-5 2 5-2 11-9 14-8 2-9-1-3-10 7-12 5-12-9-1-9 8-21 11-26 8-5-4-12-2-16 4s-11 8-16 5c-5-4-9-2-9 4 0 5-9 8-19 6-14-3-18 1-14 12 3 8 9 11 12 6 8-11 41-16 41-6 0 5 9 9 20 10s20-2 20-8c0-5-3-8-7-8-20 3-34-2-28-11 10-16 52 10 51 31-1 17-6 22-21 18-3-1-13-2-22-3-10-1-24-5-31-10-16-10-54 22-45 38 3 6 3 8-2 4-4-4-14-3-22 3-10 9-10 15-2 25 12 14 11 16-18 18-25 2-44 16-38 26 3 5 0 12-6 16-7 4-9 3-6-3zm50-48c13 3 15 0 8-8-5-7-9-14-8-17 0-3-4-14-10-25-10-17-13-17-29-5-21 18-17 18-37 1-10-7-18-11-18-7-5 25-2 34 20 58 21 24 27 26 40 14 9-7 24-12 34-11zm-236-74c9 9 11 7 8-7-2-11-4-21-6-24-1-3-3-11-3-17-1-7-6-12-11-10-6 1-9 6-7 11s-2 12-8 16c-6 3-12 17-15 30-2 12-10 30-17 39-7 10 1 2 17-16 23-25 33-31 42-22zm95 44c3 0 9-2 12-5s-15-6-39-6-41 4-39 8c3 5 9 6 14 3s11-1 15 5 12 7 18 3c7-4 15-8 19-8zm-162-71c0-8-19-13-24-6-3 5 1 9 9 9s15-2 15-3z"/><path d="m1755 1950c-22-24-31-57-12-41 15 12 29 12 44 0 7-7 14-6 19 3 10 16 15 42 7 34-4-3-14 1-23 9-15 14-19 13-35-5zm49-32c-4-5-10-5-17 0s-20 8-30 6c-18-2-18-2-1 17 16 18 19 18 35 3 10-9 16-21 13-26z"/><path d="m1764 1938c-4-7-4-10 1-6 4 4 15 2 24-5 14-11 14-10 2 6-16 20-18 21-27 5z"/><path d="m1550 1877c0-2 6-10 14-16 11-9 16-9 22 1 4 7 4 10-1 6-4-4-14-3-22 3-7 6-13 9-13 6z"/><path d="m3535 1970c-3-5-15-10-26-10s-17-5-14-10c4-7 12-7 25 0 10 5 25 8 32 7 7-2 10-2 5 0-4 3-5 9-1 14 3 5 1 9-5 9-5 0-13-4-16-10z"/><path d="m3448 1936c-16-5-28-14-28-19s6-7 14-4c7 3 19 0 26-6 10-9 12-8 7 5-3 10-1 20 5 24 7 4 8 3 4-4s-3-12 3-12c5 0 12 4 15 9 9 14-17 18-46 7z"/><path d="m3499 1920c-19-16-29-30-23-30s21 11 34 25c16 17 27 22 35 15 7-5 16-6 20-2 5 4 5 1 1-6-6-10-11-10-22-1-15 12-19 2-6-18 5-8 12-7 27 3 20 15 20 15 1 30-26 19-28 18-67-16z"/><path d="m3430 1900c-16-10-22-60-8-60 8 0 12 15 9 37-1 6 3 14 9 18 7 4 9-2 6-19l-4-25 44 21c24 12 44 26 44 30 0 13-12 9-32-9-17-15-19-15-36 0-12 11-22 13-32 7z"/><path d="m2076 1888c-9-5-16-5-16-1s-5 1-10-7c-8-13-13-13-31-2-11 8-18 9-14 3 3-6 0-11-7-11-9 0-9-3 2-10s12-10 2-10-10-4 2-15c8-9 12-23 9-33-3-9 4-5 15 10 25 30 29 46 8 29-10-8-16-9-21-1-6 10-5 11 14 14 5 0 13 4 17 8s13 3 21-4c7-6 17-8 20-4 4 4 2 10-5 14-6 5 11 8 40 8 28 0 46-2 39-4-6-2-8-8-5-13 3-6 12-2 21 8 8 10 11 11 7 3-7-13-6-13 11 0 10 8 16 10 12 4-4-8 3-11 23-9 18 2 27-1 23-8-3-6-1-7 5-3 8 5 10 1 5-11-7-17-6-17 11 0 20 20 27 22 24 6-2-6 3-14 11-17s11 0 7 7c-4 6-2 11 3 11 6 0 11 4 11 9 0 4-12 7-27 7-16-1-34 3-40 7-7 5-19 7-28 4-8-4-17-2-20 2-3 5-20 9-37 10-18 0-45 2-59 4-15 2-34 0-43-5z"/><path d="m1618 1884c-4-3-4-12-2-19 3-7 0-16-5-20-6-3-8-11-5-17 4-6 1-14-6-18-8-5-7-9 5-13 10-5 14-3 9 5-4 7-3 8 4 4 6-4 8-14 5-24-6-15-5-15 11-3 16 14 16 16 2 27-18 13-22 29-4 18 7-4 8-3 4 4s-3 12 3 12c5 0 11-5 13-11 3-9 9-9 25 0 26 13 41-2 23-24-8-10-9-15-2-15 6 0 17 8 24 19 7 10 21 17 31 15 9-1 14 2 11 8-3 5 2 18 12 29 9 10 15 19 13 20-2 0-12 2-21 4-20 4-33-10-19-20 6-3 8-12 4-21-4-12-8-12-21-2-8 7-17 12-19 11-9-7-23-2-18 7 3 5 0 7-8 4s-18 0-22 5c-3 6-11 8-17 5-6-4-13-1-17 5s-10 9-13 5zm162-10c0-8-19-13-24-6-3 5 1 9 9 9s15-2 15-3zm-103-36c-6-4-17-2-24 4-8 6-18 7-26 2-7-5-5-1 6 8 15 14 22 15 37 6 14-9 16-14 7-20z"/><path d="m1816 1881c-3-5 2-15 12-22 15-12 16-12 5 2-7 9-10 19-6 22 3 4 4 7 0 7-3 0-8-4-11-9z"/><path d="m3355 1870c-3-5-4-14 0-19 3-6-1-13-9-18-27-15-21-39 17-73l38-33-7 29c-4 16-10 31-13 34-13 11-11 31 4 36 8 3 12 11 9 16-4 6-9 6-14-2s-9-7-13 5c-4 9-3 13 3 10s10-2 10 4c0 15-18 23-25 11zm12-55c0-8-4-12-9-9-4 3-8 1-8-5 0-5 8-15 18-20 9-6 12-11 6-11s-17 7-24 15c-10 12-10 18 0 30 15 19 17 19 17 0z"/><path d="m3390 1866c0-9 5-16 10-16 6 0 10 4 10 9 0 6-4 13-10 16-5 3-10-1-10-9z"/><path d="m2093 1851c-6-10-8-23-3-30 5-9 10-10 14-2 4 6 2 11-4 11s-8 5-4 11c4 8 9 7 15-2 5-8 9-10 9-6s10 3 21-4c12-6 19-7 16-2-4 5 0 10 7 10 9 0 12-7 8-16-5-14-4-14 14-1 10 8 22 20 26 25 5 6 8 6 8-1 0-6 7-11 15-11 9 0 14 5 12 11-4 13-45 16-67 5-9-5-22-1-32 8-13 12-18 13-18 3 0-9-4-10-13-2s-16 6-24-7z"/><path d="m2326 1837c-16-28-19-30-28-14-6 12-14 15-21 9-7-5-20-8-29-7-10 2-18 0-18-4 0-15 13-20 30-11 19 10 22-3 6-28-5-9-12-7-27 10l-19 23 4-25c2-14 9-24 15-22 6 1 11-3 11-9s7-3 16 5c8 9 19 14 24 11s11 4 15 15 10 18 15 15c4-3 13 2 20 11 10 12 15 12 21 2 4-7 2-19-4-27-10-11-9-13 3-9 14 5 17 16 9 48-3 10 2 14 16 12 11-1 36-3 56-4 28-1 36-5 31-17-4-10-2-12 9-5 21 13 40 14 33 2-4-7-2-8 4-4 18 11 14 25-5 25-10 0-40 3-68 7-27 3-59 6-70 7-11 0-22 4-25 8s-14-7-24-24z"/><path d="m2056 1849c3-9-2-22-11-29-20-17-19-32 3-29 9 1 19 0 22-1 21-8 50-8 45-1-3 5 0 13 6 17 8 4 9 3 5-4-3-6 2-16 13-21 24-13 41-14 41-2 0 5-8 8-17 7-12-1-17 5-15 18 2 11-1 15-7 11-6-3-11-1-11 5s-8 4-17-5c-18-19-16-20-50 32-9 12-11 13-7 2zm14-23c0-2-8-10-17-17-16-13-17-12-4 4s21 21 21 13z"/><path d="m2384 1811c17-32 50-56 65-46 5 3 17 2 26-1 13-5 14-8 3-15-9-6-9-9-1-9 7 0 17 9 23 19 9 17 7 19-9 16-11-2-25 3-32 11-6 8-16 14-21 14-6 0-5-7 2-15 20-24 2-17-27 9l-27 25 34-6c19-2 39-12 46-21 10-14 12-14 21 2 9 17 11 17 16 2 5-13 11-15 26-6 11 5 22 6 25 1 8-13-4-20-22-14-10 4-13 2-8-5 10-16 46-10 46 8 0 9-6 22-12 29-10 11-10 13 0 7 6-4 12-2 12 3 0 16-19 13-37-4-11-12-19-13-28-5-10 8-15 8-21-1-5-9-10-8-19 4-6 9-20 15-31 15-10-1-29 2-42 6-23 8-23 8-8-23z"/><path d="m1690 1823c0-6-11-10-25-8-19 2-23-1-15-10s6-18-6-30c-17-16-18-16-31 1-7 9-16 14-20 10s-2-11 6-15c7-5 11-12 9-16-1-5 14-10 36-12 30-2 37 0 32 12-3 8-1 15 5 15s9 6 6 14c-3 7 0 19 6 25s8 14 4 18c-4 3-7 1-7-4zm-23-53c-1-11-5-20-9-20-10 0-10 4-2 24 8 22 13 20 11-4z"/><path d="m2196 1817c-16-12-17-17-6-37 10-18 14-20 21-9 6 9 3 18-8 27-16 11-16 12 0 12 9 0 17 5 17 10 0 13-3 13-24-3z"/><path d="m2576 1814c-3-8-1-14 4-14s7-7 4-15c-4-8 1-17 10-21 9-3 16-12 16-20s5-14 11-14 8 7 5 16c-3 8-2 23 3 33 5 9 6 23 2 29-11 19-49 23-55 6zm37-31c-3-7-10-10-15-7-6 4-5 10 3 15 11 7 11 9 1 9-7 0-10 5-6 11 9 15 24-9 17-28z"/><path d="m2675 1810c6-30 16-42 31-36 16 6 29-10 14-19-12-8-13-25-1-25 14 0 23 32 12 43-5 5-7 17-4 26 6 14 4 14-14-2-20-17-20-17-18 8 2 16-2 25-10 25s-12-8-10-20z"/><path d="m1712 1787c-26-27-31-57-7-37 8 7 15 9 15 6 0-4 10-1 22 5 20 11 20 12 4 24-13 10-14 14-4 18 7 3 8 6 2 6-6 1-20-9-32-22zm15-10c0-8-6-14-14-14-9 0-10 4-2 14 6 7 12 13 14 13 1 0 2-6 2-13z"/><path d="m2155 1800c-3-5-1-10 4-10 6 0 11 5 11 10 0 6-2 10-4 10-3 0-8-4-11-10z"/><path d="m3280 1785c-20-24-6-28 15-5 10 11 13 20 8 20-6 0-16-7-23-15z"/><path d="m2675 1761c-10-10-4-19 10-17 25 4 37 22 14 22-11 0-22-2-24-5z"/><path d="m3392 1708c-16-16-15-29 1-22 8 3 14 11 14 19 0 18 0 18-15 3z"/><path d="m1344 1998c-4-7-4-10 1-6 4 4 15 2 24-5 14-11 14-10 2 6-16 20-18 21-27 5z"/><path d="m1675 2100c3-5 8-10 11-10 2 0 4 5 4 10 0 6-5 10-11 10-5 0-7-4-4-10z"/><path d="m1723 2058c1-7-4-12-11-10-8 1-11-2-7-8 5-8 11-8 19-1 7 6 17 7 22 3 4-4 2 1-5 11-16 20-22 22-18 5z"/><path d="m1814 2032c4-3 14-7 22-8 9-1 13 0 10 4-4 3-14 7-22 8-9 1-13 0-10-4z"/><path d="m1438 2013c35-28 71-22 59 10-4 8-6 8-6-2-1-11-4-11-16-1-13 11-14 10-9-5 7-17 6-17-22 0l-29 17z"/><path d="m1576 1971c-4-5-2-12 3-15 5-4 12-2 15 3 4 5 2 12-3 15-5 4-12 2-15-3z"/><path d="m1463 1955c0-8 4-12 9-9s6 10 3 15c-9 13-12 11-12-6z"/><path d="m3320 1695c7-9 15-13 17-11 7 7-7 26-19 26-6 0-6-6 2-15z"/><path d="m2770 1740c0-5 5-10 10-10 6 0 10 5 10 10 0 6-4 10-10 10-5 0-10-4-10-10z"/><path d="m1990 3161c0-6 4-13 10-16s7 1 4 9c-7 18-14 21-14 7z"/><path d="m1940 3140c-9-6-10-10-3-10 6 0 15 5 18 10 8 12 4 12-15 0z"/><path d="m2013 3115c0-8 4-12 9-9s6 10 3 15c-9 13-12 11-12-6z"/><path d="m1854 3082c4-3 14-7 22-8 9-1 13 0 10 4-4 3-14 7-22 8-9 1-13 0-10-4z"/><path d="m1974 3076c1-8 5-18 8-22 4-3 5 1 4 10-1 8-5 18-8 22-4 3-5-1-4-10z"/><path d="m1910 3059c0-5 5-7 10-4 6 3 10 8 10 11 0 2-4 4-10 4-5 0-10-5-10-11z"/><path d="m2076 3053c-6-14-5-15 5-6 7 7 10 15 7 18s-9-2-12-12z"/><path d="m2120 3060c-9-6-10-10-3-10 6 0 15 5 18 10 8 12 4 12-15 0z"/><path d="m1800 3040c-12-7-10-9 7-7 12 0 19 5 17 9-6 10-6 10-24-2z"/><path d="m1815 2951c-3-5-2-12 3-15s9 1 9 9c0 17-3 19-12 6z"/><path d="m1990 2943c0-6 8-17 18-24 16-13 16-13 2 6-8 11-16 22-17 24-2 2-3 0-3-6z"/><path d="m2034 2936c1-8 5-18 8-22 4-3 5 1 4 10-1 8-5 18-8 22-4 3-5-1-4-10z"/><path d="m2069 2937c6-8 7-18 3-22-4-5-1-5 6-1 10 6 10 11 1 22-6 8-14 14-16 14-3 0 0-6 6-13z"/><path d="m1813 2905c0-8 4-15 9-15 4 0 8 4 8 9 0 6-4 12-8 15-5 3-9-1-9-9z"/><path d="m1976 2898c3-5 10-6 15-3 13 9 11 12-6 12-8 0-12-4-9-9z"/><path d="m1830 2860c0-5 5-10 11-10 5 0 7 5 4 10-3 6-8 10-11 10-2 0-4-4-4-10z"/><path d="m1876 2861c-3-4 6-7 19-7 14 0 22 2 19 5-8 8-34 10-38 2z"/><path d="m1774 2829c-3-6-2-15 3-20s9-1 9 11c0 23-2 24-12 9z"/><path d="m1899 2813c-13-16-12-17 4-4 9 7 17 15 17 17 0 8-8 3-21-13z"/><path d="m2746 2738c3-5 10-6 15-3 13 9 11 12-6 12-8 0-12-4-9-9z"/><path d="m2790 2740c0-6 4-9 9-6 5 4 12 1 14-4 3-6 4-5 3 2-3 15-26 23-26 8z"/><path d="m2695 2731c-3-5-2-12 3-15s9 1 9 9c0 17-3 19-12 6z"/><path d="m1757 2717c4-6 0-8-9-4-12 4-14 1-11-14 3-11 6-18 7-17 1 2 9 12 19 24 14 17 14 21 2 21-8 0-11-5-8-10z"/><path d="m2765 2719c-5-8-4-11 0-6 5 4 16-5 26-20 16-25 18-25 16-5 0 11-3 19-6 17-2-3-9 3-16 12-10 13-13 14-20 2z"/><path d="m2830 2721c0-6 6-8 14-5 9 3 13-2 12-17 0-12 6-24 14-26 9-3 11-1 5 4-6 4-11 17-10 28 0 11-8 21-17 23-10 2-18-1-18-7z"/><path d="m2674 2706c1-8 5-18 8-22 4-3 5 1 4 10-1 8-5 18-8 22-4 3-5-1-4-10z"/><path d="m2918 2713c7-3 16-2 19 1 4 3-2 6-13 5-11 0-14-3-6-6z"/><path d="m2734 2693c3-19 36-32 36-14 0 6-7 8-15 5-11-5-13-2-9 10 3 9 2 16-4 16s-9-8-8-17z"/><path d="m2634 2667-19-22 22 19c22 18 22 18 20-3-1-12-7-21-14-21s-13-5-13-10c0-20 36 8 37 29 2 30-12 34-33 8z"/><path d="m2918 2683c12-2 20-8 17-13-8-14 16-23 28-11 8 8 16 6 31-7 21-17 21-17 2 6-13 15-23 19-30 12-14-14-27-13-23 2 1 7-9 13-23 14-22 2-22 2-2-3z"/><path d="m2781 2662c-1-13-5-20-11-17s-13-1-16-10c-5-12-9-13-20-4-20 16-17 29 4 23 14-5 15-4 2 5-24 17-36-6-15-29 10-11 16-22 13-25s-11 1-18 10c-7 8-17 15-22 15-6 0 0-9 13-20 21-16 26-17 35-5 6 8 14 12 18 8s4 1 0 11c-5 14-4 17 4 12 14-8 27 17 19 36-3 7-6 3-6-10z"/><path d="m2681 2654c0-11 3-14 6-6 3 7 2 16-1 19-3 4-6-2-5-13z"/><path d="m2828 2663c7-3 16-2 19 1 4 3-2 6-13 5-11 0-14-3-6-6z"/><path d="m2880 2660c-13-8-13-10 2-10 9 0 20 5 23 10 8 13-5 13-25 0z"/><path d="m2814 2638c-4-5-3-12 0-15 3-4 6-2 6 3s10 10 23 11c21 2 21 1 3-13-11-8-15-14-9-14 7 0 14 4 17 9s16 7 29 4c20-4 20-4-3 9-29 17-58 19-66 6z"/><path d="m2910 2640c0-5 5-10 11-10 5 0 7-4 4-10-3-5-1-10 4-10 13 0 13 3 5 24-7 18-24 22-24 6z"/><path d="m2960 2638c-12-8-12-9 2-5 9 3 19 1 22-6 3-9 5-9 5 0 1 18-13 23-29 11z"/><path d="m2585 2620c-3-5-1-10 4-10 6 0 11 5 11 10 0 6-2 10-4 10-3 0-8-4-11-10z"/><path d="m2660 2620c-9-6-10-10-3-10 6 0 15 5 18 10 8 12 4 12-15 0z"/><path d="m2785 2620c-3-5-1-10 4-10 6 0 11 5 11 10 0 6-2 10-4 10-3 0-8-4-11-10z"/><path d="m3001 2614c0-11 3-14 6-6 3 7 2 16-1 19-3 4-6-2-5-13z"/><path d="m2944 2595c-9-14-21-25-26-25-6 0-5 8 3 18 11 14 11 15-1 5-20-18-35-16-20 2 9 10 9 15 1 15-6 0-11-5-11-11 0-8-5-8-15 1-12 10-16 9-21-4-4-9-4-20 0-23 3-4 6 1 6 11 0 9 5 14 10 11 6-4 8-11 5-16-4-5-1-17 5-26 9-15 10-14 4 7-6 23-6 24 18 8 23-15 25-15 46 18 12 19 20 34 17 34-2 0-12-11-21-25z"/><path d="m2622 2591c12-19 28-19 28 0 0 6-4 7-10 4-5-3-10-1-10 4 0 6-5 11-10 11-6 0-5-8 2-19z"/><path d="m2800 2598c-12-8-12-9 2-4 10 3 18-1 21-12 4-16 5-16 6 0 1 22-11 29-29 16z"/><path d="m2973 2598c-6-7-16-24-22-38-11-24-11-24 3-5 8 11 20 26 27 33 6 7 9 15 6 18-2 2-9-1-14-8z"/><path d="m2770 2589c0-5-4-8-9-4-5 3-13 0-17-6-4-8-3-9 4-5s12 3 12-3c0-5-6-12-12-14-10-4-10-6 0-6 7-1 15 6 18 14 4 8 10 12 15 9s6 2 3 10c-7 18-14 21-14 5z"/><path d="m305 2580c-3-6 1-7 9-4 18 7 21 14 7 14-6 0-13-4-16-10z"/><path d="m2990 2580c-13-8-12-10 3-10 9 0 17 5 17 10 0 12-1 12-20 0z"/><path d="m2587 2564c2-7 11-10 19-7 18 7 18-2 0-20-12-12-10-14 15-14 19 0 25 3 17 9-7 4-9 8-4 8 14 0-13 28-34 33-12 3-17 0-13-9z"/><path d="m277 2547c2-4-1-16-9-25-12-15-11-16 4-4 9 8 21 11 25 9 5-3 9 2 9 12 0 9-8 17-17 17-10 0-15-4-12-9z"/><path d="m370 2556c0-2 8-10 18-17 15-13 16-12 3 4s-21 21-21 13z"/><path d="m2822 2551c-11-7-11-9 2-14 9-4 23-4 32 0 13 5 13 7 2 14-7 5-15 9-18 9s-11-4-18-9z"/><path d="m2665 2540c-7-12 2-30 16-30 5 0 9 5 9 11 0 5-5 7-12 3-8-5-9-2-5 9 7 19 2 23-8 7z"/><path d="m319 2500c-3-20-4-25-13-40-7-12-6-13 4-3 13 12 25 53 15 53-3 0-6-4-6-10z"/><path d="m2610 2499c0-5-4-7-10-4-5 3-27-6-47-20-21-14-33-25-28-25 6 0 21 9 35 20 27 21 51 27 32 8-15-15-15-28-1-28 5 0 7 4 4 10-3 5 3 15 15 22 21 14 27 28 10 28-5 0-10-5-10-11z"/><path d="m235 2480c-11-5-14-9-7-9 7-1 11-5 7-10-3-5 0-13 7-17s10-4 6 1c-4 4-3 16 3 26 5 11 8 19 7 18-2 0-12-4-23-9z"/><path d="m364 2475c-4-8-10-12-15-9s-9 1-9-4c0-6 8-13 17-16 10-4 14-4 11 0-4 4-3 15 3 25 5 11 7 19 4 19s-8-7-11-15z"/><path d="m203 2435c-3-9-3-18-1-21 3-3 8 4 11 16 6 23-1 27-10 5z"/><path d="m2475 2439c-4-6-5-12-2-15 2-3 7 2 10 11 7 17 1 20-8 4z"/><path d="m302 2432c2-8 7-13 12-12s13-4 18-12c8-11 9-11 6 0-2 8-7 13-12 12s-13 4-18 12c-8 11-9 11-6 0z"/><path d="m237 2411c-10-12-9-13 3-6 8 5 21 10 28 11 24 4 25 13 3 11-12-1-28-8-34-16z"/><path d="m360 2415c-7-9-11-17-9-20 3-2 10 5 17 15 14 24 10 26-8 5z"/><path d="m2437 2404c2-7-3-11-14-11-10 1-18-5-18-13s8-15 18-15 22-7 27-15c6-9 10-10 10-3 0 6-4 15-10 18-5 3-10 12-10 18 1 7 9 2 19-10 15-18 21-20 30-9 8 9 7 18-4 32-8 10-15 14-15 9 0-6 5-16 12-23 8-8 8-12 1-12-15 0-36 27-29 38 3 5-1 9-8 9-8 0-12-6-9-13zm-7-24c0-5-4-10-10-10-5 0-10 5-10 10 0 6 5 10 10 10 6 0 10-4 10-10z"/><path d="m285 2385c11-9 19-19 18-23s1-9 4-12c4-3 3 0 0 7-4 6-2 13 4 15s-2 9-17 16c-27 12-28 11-9-3z"/><path d="m233 2375c0-7 6-11 14-8 7 3 13 6 13 8s-6 5-13 8c-8 3-14-1-14-8z"/><path d="m351 2372c-1-7-6-10-13-6-6 4-8 3-5-4 8-12 32-10 44 3 4 4 3 5-4 2-6-4-14-1-16 5-4 10-6 10-6 0z"/><path d="m273 2344c0-17 2-22 7-13 5 6 6 18 3 26-8 19-10 16-10-13z"/><path d="m210 2338c0-6 3-8 7-5 3 4 12 2 20-4 8-7 13-8 13-1 0 5-7 13-16 16-22 8-24 8-24-6z"/><path d="m315 2340c-3-5-1-18 4-27 6-11 11-13 11-5 0 7 5 10 12 6s8-3 4 5c-4 6-12 8-18 5-7-5-9-1-5 9 7 19 2 23-8 7z"/><path d="m3976 2341c-4-5-2-13 4-16 8-5 7-14-2-28-8-12-13-40-13-62 1-22-4-44-10-48-6-5-2-6 10-3 18 6 18 5 3-7-19-15-19-37 1-61 7-9 10-16 5-16-12 0 18-20 30-20 5 0-1 11-14 25-15 16-19 25-10 25s7 5-6 15c-12 10-14 13-3 10 12-4 15 1 15 24 0 17-3 28-6 26-4-2-7 2-7 10 0 11 4 12 14 4 7-6 13-8 13-5 0 4 10 1 23-5 17-9 20-9 10 1-6 7-9 20-5 29 5 14 4 14-12 2-12-10-20-11-27-4-13 13 23 37 36 25 5-4 5-1 0 7-5 10-4 12 4 7 6-4 9-12 6-17-4-5-1-9 4-9 15 0 14 13-1 30-11 12-10 12 5 0 10-7 16-19 13-26s-1-16 5-19c5-4 9-3 8 2-5 31 16 42 33 18 4-6 8-2 8 8 0 9 5 17 10 17 7 0 7-7 0-20-8-16-8-20 2-18 7 2 12-4 10-14-1-9 2-19 8-23 5-3 10-1 10 5s5 8 11 5c6-5 4-12-8-20-10-7-15-17-10-21 4-4 7-2 7 4 0 7 5 12 12 12 9 0 9-3 0-12-10-10-8-16 10-31l23-18-25 6c-19 5-22 4-10-4 8-6 11-11 7-11s-3-10 4-21c7-15 8-19 0-15-7 5-9 1-5-8 4-10 1-16-7-16-9 0-10-3-3-8 6-4 4-13-8-24-10-10-18-14-18-10s5 13 11 19c9 9 7 12-10 10-24-2-24-1-10-30 9-20 9-21-4-4-11 13-16 15-19 5-4-11-8-10-21 1-10 7-17 9-17 3 0-16 28-34 42-26 10 5 11 4 1-7-10-10-16-10-25-1-19 19-29 14-16-8 12-18 14-18 38-3 40 25 80 65 74 75-3 4 0 8 6 8s8 5 5 10c-3 6-2 10 4 10 5 0 8 15 7 33-2 17 2 35 8 39 8 5 7 8-1 8-7 0-10 6-7 14s0 17-5 21c-6 3-8 11-5 17 5 7 2 8-5 4-8-5-11-3-9 5 3 17-41 69-58 69-6 0-17 7-24 15s-16 13-20 10c-5-3-10-1-12 4-1 6-15 12-30 15-15 2-32 7-37 10-5 4-12 2-15-3zm44-16c0 3 10 0 23-7 12-7 25-12 29-13 8 0 34-25 28-26-3 0-13-2-22-4s-22 3-29 11c-9 11-17 9-44-12-33-25-40-18-18 21 6 11 15 16 19 12 5-5 2-12-6-17-10-6-11-10-3-10 7 0 17 10 24 21 6 12 7 19 1 16-5-4-18 0-28 9-18 14-18 15 4 4 12-6 22-8 22-5zm140-85c8-5 7-9-5-13-9-4-13-3-10 2s1 12-5 16c-5 3-10 12-10 18 0 8 3 7 9-2 5-7 14-17 21-21zm27-70c-2-23-10-17-12 10-1 10 2 17 6 14 4-2 7-13 6-24z"/><path d="m4047 2300c7-8 20-15 29-16s13 1 9 4c-4 4-10 7-13 7-4 0-14 4-22 9-12 7-13 6-3-4z"/><path d="m250 2306c0-2 7-7 16-10 8-3 12-2 9 4-6 10-25 14-25 6z"/><path d="m290 2300c0-5 5-10 10-10 6 0 10 5 10 10 0 6-4 10-10 10-5 0-10-4-10-10z"/><path d="m250 2280c0-5 5-10 11-10 5 0 7 5 4 10-3 6-8 10-11 10-2 0-4-4-4-10z"/><path d="m281 2264c0-11 3-14 6-6 3 7 2 16-1 19-3 4-6-2-5-13z"/><path d="m310 2275c0-5 5-17 10-25s10-10 10-5c0 6-5 17-10 25s-10 11-10 5z"/><path d="m4000 2250c-9-6-10-10-3-10 6 0 15 5 18 10 8 12 4 12-15 0z"/><path d="m4071 2243c3-20-2-24-15-14-9 8-16 8-20 2-4-5-2-12 4-16 17-11 11-24-10-22-11 1-20 5-20 10 0 4-5 5-11 1-8-4-7-9 2-15 12-8 11-11-1-19-13-9-13-10 0-10s13-2 0-11c-12-9-11-9 5-4 11 4 26 8 33 8 6 0 11 7 10 16-2 9 3 16 10 17 6 1 17 2 23 3 5 0 7 6 4 11-4 6-10 8-15 5s-11-1-15 4c-3 6 3 8 15 6 11-2 19 0 17 5-2 7 3 10 19 10 4 0 1-6-5-14-8-10-9-16-1-21 5-3 10-1 10 5s5 8 11 4c8-4 7-9-2-15-7-4-16-6-20-3-4 2-10-3-13-11-4-13-2-13 14-5 15 8 18 8 14-3-7-18 21-42 31-27 4 6 1 17-5 25s-9 19-6 24c4 5 1 13-5 16-5 4-8 14-5 22s2 11-3 8-12-1-16 5c-7 12-36 14-34 3zm-50-76c-10-9-11-8-5 6 3 10 9 15 12 12s0-11-7-18z"/><path d="m330 2226c0-2 7-7 16-10 8-3 12-2 9 4-6 10-25 14-25 6z"/><path d="m4054 2161c1-9-3-16-9-17-26-4-55-17-55-25s40-39 51-39c3 0 6 7 6 15 0 9-6 14-12 11-6-2-12 2-12 9s6 11 14 8c7-3 13-1 13 5s8 9 18 8c9-2 21 2 25 8 6 7 7 6 4-4-2-8-10-14-16-12-6 1-11-2-11-8 0-14 23-12 39 3 11 10 13 10 7 0-7-12 4-17 29-14 6 1-1-8-14-19s-18-20-12-20c7 0 9-5 5-11-4-8-1-8 13-1 12 7 19 20 17 34-1 13-3 27-3 31-1 5-5 6-10 3-4-3-16 3-26 14s-24 16-33 13c-11-5-14-2-10 9 4 8 1 15-7 15-7 0-12-7-11-16z"/><path d="m4053 2104c0-15 24-27 31-16 3 5-3 13-13 19-14 9-18 8-18-3z"/><path d="m4093 2091c-9-14-9-22 0-32 7-8 3-7-8 2-13 10-38 15-73 14-62-2-85-17-52-35 20-11 21-10 15 10-5 17-3 21 6 18 8-3 13-12 11-20-1-8 5-15 13-15 9 0 14 6 11 13-3 8 0 16 6 20s8 3 5-3c-3-5 0-10 8-10s15 4 15 9c0 4 5 8 11 8 5 0 7-4 4-10-3-5-1-10 5-10s9-4 5-9c-3-5-1-12 4-15 13-8 23 11 28 51 4 38 2 40-14 14z"/><path d="m4025 2033c-8-23-6-29 6-13 9 13 10 13 6 0-2-8-10-14-17-12-14 3-40-16-40-30 0-6 7-5 16 3 12 10 17 10 23 0 6-8 13-1 25 22 20 43 20 44 1 44-8 0-17-7-20-14z"/><path d="m3955 2020c-3-5-1-10 4-10 6 0 11 5 11 10 0 6-2 10-4 10-3 0-8-4-11-10z"/><path d="m3968 2008c-20-20-23-38-7-38 6 0 1-9-12-20-13-10-19-19-12-20 6 0 15 5 19 11 4 8 9 7 15-2 14-23 20-3 8 24-11 23-9 29 11 45 14 12 18 19 9 18-8 0-22-8-31-18z"/><path d="m4036 1974c-5-13-9-14-20-5-15 13-32-1-22-17 8-14 64-2 62 14-3 22-13 26-20 8z"/></g></svg>