<svg fill="none" height="70" viewBox="0 0 70 70" width="70" xmlns="http://www.w3.org/2000/svg"><g clip-rule="evenodd" fill="#40addc" fill-rule="evenodd"><path d="m0 35c0-19.3298 15.6702-35 35-35 19.3206.0216472 34.9784 15.6794 35 35 0 19.3298-15.6702 35-35 35s-35-15.6702-35-35zm2.33333 0c0 18.0412 14.62547 32.6667 32.66667 32.6667 18.0326-.0205 32.6462-14.6341 32.6667-32.6667 0-18.0412-14.6255-32.66667-32.6667-32.66667s-32.66667 14.62547-32.66667 32.66667z"/><path d="m61.7989 33.7052v-.1401l-.0006-.0093c-.0243-.3701-.0487-.7417-.0848-1.0982-.0359-.3588-.0735-.7291-.1168-1.0721-.0393-.3007-.0792-.6015-.1305-.8163-.0501-.3503-.1168-.7001-.1914-1.0687l-.0347-.1566c-.061-.2775-.1254-.5623-.1914-.8164-.18-.7377-.4108-1.517-.7001-2.3498-.0781-.2472-.1681-.4808-.2484-.6859-.1168-.3173-.2404-.6334-.3749-.9337-.1726-.4078-.3497-.8015-.528-1.1666-.1635-.3498-.3396-.6916-.515-1.0055-.4261-.8163-.8995-1.6081-1.4162-2.3709l-.0233-.0325v-.0057c-.0063-.0092-.0127-.0183-.0192-.0273l-.0172-.0239-.0002-.0002c-.0107-.0148-.0215-.0298-.0324-.0454-.1595-.2336-.3218-.4666-.4876-.6893l-.1629-.2245c-.2256-.3127-.4671-.6146-.7901-.9986-.053-.0592-.1026-.1219-.1482-.1874-.1834-.2182-.3782-.4392-.5833-.671-.0376-.0407-.0769-.0807-.116-.1206v-.0001h-.0001v-.0001h-.0001v-.0001c-.0337-.0343-.0673-.0685-.0997-.103l2.0474-2.048-1.6498-1.6491-2.0485 2.0485c-.0368-.035-.0722-.0697-.1075-.1043l-.0001-.0001-.0001-.0001c-.0532-.0521-.1061-.1039-.1629-.1559l-.0836-.0736-.0001-.0001c-.1808-.1592-.3663-.3227-.5907-.5096l-.0061-.0044c-.0227-.0163-.0468-.0337-.0777-.0583-.0342-.0273-.0746-.062-.1333-.1167-.3019-.2524-.6044-.4911-.8949-.7002l-.0171-.0131-.2336-.1691c-.2706-.1971-.5389-.392-.8163-.576-.7571-.5138-1.5432-.9838-2.3533-1.4082-.3395-.188-.679-.3651-.9986-.5132-.3959-.1971-.7912-.3697-1.1832-.5367-.3173-.1401-.6346-.2671-.9587-.38391-.2222-.08545-.4449-.17033-.6489-.23356-.867-.29964-1.6463-.53093-2.3612-.70012-.3011-.07912-.6125-.14687-1.0074-.23279v-.00001l-.0009-.00019c-.3498-.07348-.7001-.13786-.9753-.17374-.2882-.06324-.5765-.1014-.8926-.14242-.3263-.0457-.665-.0805-1.0101-.11595l-.0746-.00767c-.3714-.03873-.7388-.05981-1.1809-.08431-.8841-.04785-1.7699-.04785-2.654 0h-.1316l-.0034.00023c-.3737.02442-.748.04888-1.1194.08522-.372.03589-.7252.07349-1.1046.1259-.2871.0376-.5753.07576-.7816.12362-.3503.05126-.7001.11678-1.1507.2102l-.1439.03217c-.2558.05708-.5139.11465-.7493.17747-.7366.17659-1.517.4073-2.351.70011-.2336.07463-.4586.16007-.687.24723-.3173.11682-.6346.24152-.9337.37602-.4096.1726-.8049.3497-1.1667.5286-.3497.1618-.6904.3395-1.0065.5144-.0696.0366-.1382.0758-.2066.1151h-.0001c-.0531.0305-.1062.0609-.1596.09-.6848.3737-1.3604.7759-2.0024 1.2111h-.0159l-.1277.0911c-.2329.1556-.4591.3151-.6784.4791l-.2267.1658c-.1573.1168-.3128.2336-.4734.3572-.1533.1175-.3147.254-.4918.4037l-.0001.0001v.0001h-.0001l-.0276.0233c-.0233.0228-.049.0444-.0757.0638l-.1168.09c-.1847.1547-.3698.318-.5883.5108l-.0001.0001-.0821.0725c-.7246.6648-1.4281 1.3671-2.1003 2.0997-.196.2193-.3908.4398-.6113.707-.0564.078-.1185.1515-.1851.2204-.2513.3025-.4899.6044-.7001.8938l-.0109.0131v.008l-.1652.2262-.0708.0978h-.0001v.0001.0001l-.0001.0001c-.1732.2391-.3454.4767-.5123.7188-.5138.7559-.9838 1.5409-1.4082 2.351-.188.3395-.364.679-.5133 1.0009-.1976.3953-.3703.7884-.5383 1.1831-.1384.3173-.2655.6335-.36857.9212-.09058.2335-.18058.4671-.24837.6864-.29737.8631-.52865 1.6412-.70012 2.3624-.07121.2752-.13501.56-.19596.8374l-.03703.1658c-.07576.3503-.139.7069-.17375.9764-.06665.3025-.10652.6033-.14469.8949-.04785.3504-.08545.7178-.11678 1.0795-.0319.3612-.06095.736-.08659 1.1861l-.00602.1052c-.02379.4153-.04753.8295-.04753 1.2471 0 .4529.0114.9052.03475 1.2949v.1401l.00063.0096c.02429.37.04867.7415.08482 1.0978.03589.3589.07349.7292.11678 1.0721.03931.3008.07918.6016.13045.8164.05013.3503.11678.7001.19141 1.0687l.03475.1566c.06095.2774.12533.5623.19141.8163.18001.7377.41072 1.517.70011 2.3499.07804.2472.16805.4808.24837.6859.11683.3173.24043.6334.37483.9336.1726.4079.3498.8015.5281 1.1667.1635.3498.3395.6916.5161 1.0077.1339.2581.2808.5264.4278.7827l.5833 1.0163 9.1106-5.25-.5878-.9986c-2.9179-5.0535-2.9179-11.2799 0-16.3333 1.4378-2.4809 3.4994-4.5425 5.9803-5.9803 5.0682-2.862 11.265-2.862 16.3333 0 .8904.528 1.7283 1.1404 2.5025 1.828l-7.4563 7.4563c-2.5054-1.6583-5.859-1.1496-7.7599 1.1769-1.901 2.3265-1.7306 5.7149.3936 7.8391 2.1243 2.1243 5.5126 2.2946 7.8391.3937 2.3265-1.901 2.8352-5.2546 1.177-7.76l7.4563-7.4562c4.5817 5.2386 5.3172 12.8139 1.828 18.8358l-.5833 1.0129 9.1106 5.25.5833-1.0163c.147-.2569.2939-.5252.4164-.7594.188-.3395.364-.679.5133-1.0014.1971-.3954.3697-.7884.5377-1.1827.139-.3173.2661-.6334.3686-.9217.0912-.2335.1812-.4665.249-.6858.2973-.8636.528-1.6418.6995-2.363.0712-.2751.1356-.56.1965-.8374l.0371-.1658c.0757-.3497.139-.7069.1737-.9764.0667-.3019.1065-.6032.1447-.8949.0479-.3498.0855-.7172.1168-1.0789.0313-.3618.0604-.7366.0866-1.1866.0256-.4506.0359-.9064.0359-1.3593 0-.4528-.0114-.9052-.0348-1.2948zm-3.0198-4.62c.0375.1454.071.2936.1044.4419.024.1062.0479.2124.0734.3175l.0324.1504c.0644.2996.1168.5998.1761.9838.0432.1967.0711.3938.1003.6006l.0164.1155c.0324.2292.0581.4645.0842.7027l.0001.0005v.0005.0001.0002c.0107.097.0213.1945.0325.2923.0188.1794.0325.3617.0456.5366.0075.0984.0143.1943.0206.2843l.0096.1344v.1225.0644h-5.8464c-.1521-2.4832-.8016-4.9105-1.9095-7.1379l5.0597-2.9167.0523.0986v.0001l.0001.0001c.0875.1645.1751.3292.2615.5153.1749.3498.3287.6996.4876 1.079.1168.2672.2239.5332.3315.8283l.0251.0649v.0001c.0642.1663.1291.3343.1931.5348.2729.7907.4842 1.5017.6494 2.1852zm-21.4181-18.4637-.0461-.0047c-.3076-.0362-.6189-.0579-.9357-.0799l-.0954-.0067h-.1168v5.8869c2.4809.1436 4.9082.7799 7.1401 1.8725l2.9167-5.062c-.05-.0261-.1-.0525-.1501-.0789-.1447-.0764-.2893-.1527-.4332-.2196-.3817-.1914-.7338-.3441-1.0955-.4973-.2837-.1237-.5497-.2308-.8169-.3265l-.0828-.0319-.0001-.0001c-.1937-.0748-.3492-.135-.5118-.185-.8283-.286-1.5381-.4956-2.2006-.6568-.2928-.0746-.5742-.1379-.8482-.1983-.3777-.0803-.6791-.1355-.9787-.1771-.2858-.0597-.4992-.0881-.709-.1159l-.0492-.0066c-.3473-.0478-.6681-.0801-.9867-.1121zm-11.0315 1.4616.0751-.0289c.1517-.0587.3063-.1185.4946-.1761.7964-.2758 1.5062-.4854 2.1886-.6512.2729-.07.5543-.1333.9052-.2102.3008-.0638.6021-.1168.9832-.176.1769-.0382.3527-.0636.5483-.0918l.0001-.0001c.0551-.0079.1118-.0161.1706-.0249.2964-.0409.6039-.0717.9123-.1025l.0794-.008c.2816-.0287.5745-.049.8234-.0662l.1365-.0096h.1869v5.8858c-2.4792.1413-4.9054.7759-7.1368 1.8662l-2.9166-5.0609.1062-.0562h.0001v-.0001c.1623-.086.3246-.1722.5089-.2587.3498-.176.6996-.3287 1.0801-.4876.2637-.1237.5298-.2307.8539-.3487zm-15.6033 19.5858-.002.0157c-.0467.3333-.0826.6648-.1168 1.002-.0336.3373-.0558.6802-.078 1.03v.1168h5.843c.1521-2.4843.8015-4.9128 1.9095-7.1413l-5.0597-2.9167c-.0233.0444-.0468.0889-.0704.1335-.0794.1499-.1592.3006-.2281.4499-.1903.3828-.3441.7337-.4985 1.0954-.1225.2837-.2284.5497-.3253.8169l-.0288.0748c-.0714.1847-.135.3494-.1893.5234-.2837.8214-.4951 1.5324-.6557 2.1983-.0655.2672-.1259.5252-.1823.777l-.0348.1595c-.0621.2905-.1156.5907-.1589.8904-.0646.3158-.0944.5461-.1239.7744zm2.496 14.5535-.0523-.0985c-.0875-.1646-.1752-.3294-.2616-.5156-.1749-.3498-.3287-.6996-.4876-1.079-.1168-.2671-.2239-.5332-.3316-.8283l-.025-.0649h-.0001c-.0642-.1663-.1291-.3343-.1931-.5349-.2728-.7918-.4842-1.5028-.6494-2.1864-.0375-.1453-.0709-.2935-.1043-.4417l-.0001-.0001c-.0239-.1062-.0479-.2124-.0733-.3175l-.0325-.1504c-.0644-.2997-.1168-.5999-.176-.9838-.0433-.1967-.0711-.3938-.1004-.6005l-.0164-.1156c-.0323-.2292-.0581-.4645-.0842-.7028v-.0001c-.0106-.0974-.0213-.1952-.0326-.2934-.0188-.1795-.0324-.3618-.0455-.5366-.0076-.0984-.0143-.1943-.0207-.2843l-.0095-.1344v-.1168-.0644h5.8698c.1418 2.4814.7804 4.9088 1.8781 7.139zm1.1655-24.463 5.0643 2.9167c1.3808-2.0673 3.1576-3.8407 5.2278-5.217l-2.9167-5.0518c-.0678.0439-.139.0842-.2102.1246-.0843.0478-.1687.0957-.2478.1495l-.1601.1113c-.2652.1842-.5352.3719-.8049.5757-.2928.2113-.5509.4153-.8084.6312-.0398.0415-.082.0808-.1264.1167l-.1937.1504c-.1.0852-.2271.1972-.3621.3161l-.0001.0001-.0002.0002-.1577.1388c-.6933.6369-1.3478 1.2914-1.9648 1.9636l-.1054.118c-.1334.149-.2752.3073-.4067.4653-.09.1237-.1886.2404-.2951.3498-.1413.1715-.3463.4307-.54.7001-.2473.3253-.4575.6289-.6665.9331l-.0302.041c-.0599.0901-.1159.1804-.1716.2702h-.0001c-.0408.0658-.0815.1314-.1234.1964zm30.9366-2.3077 2.9167-5.0643c.0539.0346.1084.0685.1628.1024h.0001c.0961.0598.1922.1196.286.1836l.0013.0009c.3214.2213.6446.4438.9893.706.2683.1914.5252.3954.7104.5458.0609.0586.1247.1167.1857.1646.0604.0478.1168.0923.1572.1225.1451.1221.2903.2495.4437.3842l.0002.0002.1457.1277c.0228.0213.0452.043.0676.0648l.0002.0002c.0279.0271.0558.0543.0849.0808l-4.1346 4.1346c-.6363-.5634-1.3103-1.0823-2.0172-1.554zm-10.324 19.0483c1.9329 0 3.5-1.5671 3.5-3.5-.0023-.5201-.1225-1.0322-.3509-1.4993l-.9035.9029c.0559.1943.0849.3948.0878.5964 0 1.2886-1.0448 2.3334-2.3334 2.3334-1.2885 0-2.3333-1.0448-2.3333-2.3334 0-1.2885 1.0448-2.3333 2.3333-2.3333.2017.0023.4022.0313.5965.0866l.9029-.9035c-.4671-.2279-.9798-.3475-1.4994-.3498-1.9328 0-3.5 1.5672-3.5 3.5 0 1.9329 1.5672 3.5 3.5 3.5zm14-15.8445 4.1346-4.1346c.024.0265.0491.0523.074.078.0201.0207.04.0413.0593.0621.1783.2005.3566.4011.4865.5543.0781.1105.1641.2153.2575.3133.2148.2581.4187.515.6301.8078l.0153.0222c.233.3099.4501.6204.6739.9462.0569.0829.1065.1705.1561.2581.0384.0677.0768.1355.1185.2011l-5.0517 2.9166c-.4711-.7098-.9901-1.3865-1.5541-2.0251zm10.2781 15.6894.0037-.0294h-.0056c.0467-.3333.0826-.6648.1167-1.0021.0336-.3372.0559-.6801.0781-1.0299v-.1168h-5.8721c-.1401 2.4815-.7764 4.9099-1.8725 7.1413l5.0575 2.9167c.0277-.0533.0559-.1064.084-.1596.0749-.1412.1496-.2822.2151-.4238.1896-.3828.344-.7337.4978-1.0954.1225-.2837.2285-.5498.3253-.8169.0098-.0253.0194-.0502.0289-.0748.0714-.1847.135-.3494.1893-.5234.2837-.8214.495-1.5324.6557-2.1983.0655-.2672.1264-.5252.1823-.777l.0347-.1595c.0621-.2906.1157-.5908.1589-.8904.0639-.3095.0933-.5368.1222-.7607z"/><path d="m47.8337 54.8334h-25.6667v-7h25.6667zm-2.3334-4.6667h-21v2.3333h21z"/></g></svg>