<svg fill="none" height="20" viewBox="0 0 20 20" width="20" xmlns="http://www.w3.org/2000/svg" xmlns:xlink="http://www.w3.org/1999/xlink"><mask id="a" height="20" maskUnits="userSpaceOnUse" width="20" x="0" y="0"><path clip-rule="evenodd" d="m10 0c-5.52 0-10 4.48-10 10s4.48 10 10 10 10-4.48 10-10-4.48-10-10-10zm0 3c1.66 0 3 1.34 3 3s-1.34 3-3 3-3-1.34-3-3 1.34-3 3-3zm-6 10.98c1.29 1.94 3.5 3.22 6 3.22s4.71-1.28 6-3.22c-.03-1.99-4.01-3.08-6-3.08-2 0-5.97 1.09-6 3.08z" fill="#fff" fill-rule="evenodd"/></mask><g mask="url(#a)"><path d="m-2-2h24v24h-24z" fill="#80868b"/><path d="m-2-2h24v24h-24z" fill="#80868b"/><path d="m-2-2h24v24h-24z" fill="#40addc"/></g></svg>