<svg xmlns="http://www.w3.org/2000/svg" viewBox="0 0 100 100"><defs><style>.cls-1,.cls-2{fill:#71d0ff;}.cls-2{stroke:#40ADDC;stroke-linecap:round;stroke-linejoin:round;stroke-width:2px;}</style></defs><title>5. User 2</title><g id="Layer_18" data-name="Layer 18"><circle class="cls-1" cx="50" cy="50" r="45"/><path class="cls-2" d="M61.73,31.16s-1.32,8-3.34,11.24l-.24.35-.1.14c0,.07-.09.12-.13.19a9.57,9.57,0,0,1-.88,1v0l-.42.4a1.17,1.17,0,0,1-.2.19l-.21.18c-.14.13-.27.24-.41.35l-.06,0-.4.3-.17.12-.1.08h0l-.07.06-.26.17c-.17.12-.35.23-.53.34a3.72,3.72,0,0,1-.38.22l-.25.15-.3.16a4,4,0,0,1-.46.24l-.32.16-.15.07-.12.05-.23.11-.43.19-.71.27-.13,0-.15.05-.08,0-.09,0H49.6l-.08,0-.09,0L49.28,48l-.13,0-.33-.12-.31-.13-.2-.08a1.76,1.76,0,0,0-.2-.09l-.13,0h0c-.25-.1-.5-.23-.78-.37L46.94,47l-.09,0-.36-.2-.72-.42L45.18,46l-.25-.17a15.48,15.48,0,0,1-1.45-1.17A10.74,10.74,0,0,1,41.6,42.4c-2-3.24-3.33-11.24-3.33-11.24S36.07,19.86,45,16.83a15.74,15.74,0,0,1,5-.74,15.42,15.42,0,0,1,5,.74A10,10,0,0,1,57.44,18h0l.41.29h0c.12.09.25.2.37.31h0q.38.33.69.66C63.17,23.72,61.73,31.16,61.73,31.16Z"/><path class="cls-2" d="M76.21,73.31c0,13.39-52.43,13.39-52.43,0,0,0,4-17,5.4-18.68S42.6,49.39,42.6,49.39l.88-4.76a15.48,15.48,0,0,0,1.45,1.17l.25.17.59.38.72.42.36.2.09,0,.25.13c.28.14.53.27.78.37h0l.13,0a1.76,1.76,0,0,1,.2.09l.2.08.31.13.33.12.13,0,.15.05.09,0,.08,0h.79l.09,0,.08,0,.15-.05.13,0,.71-.27.43-.19.23-.11.12-.05.15-.07.32-.16a4,4,0,0,0,.46-.24l.3-.16.25-.15a3.72,3.72,0,0,0,.38-.22c.18-.11.36-.22.53-.34l.26-.17.07-.06h0l.1-.08.17-.12,2.07,3.79s12,3.53,13.41,5.24S76.21,73.31,76.21,73.31Z"/><path class="cls-2" d="M42.6,49.39c0,5.57,14.8,5.57,14.8,0"/></g></svg>
