<svg xmlns="http://www.w3.org/2000/svg" viewBox="0 0 100 100"><defs><style>.cls-1,.cls-2{fill:#deF2fa;}.cls-2{stroke:#40ADDC;stroke-linecap:round;stroke-linejoin:round;stroke-width:2px;}</style></defs><title>6. Wand 2</title><g id="Layer_19" data-name="Layer 19"><circle class="cls-1" cx="50" cy="50" r="45"/><line class="cls-2" x1="63.85" y1="15" x2="63.85" y2="25.63"/><line class="cls-2" x1="63.85" y1="48.68" x2="63.85" y2="57.31"/><line class="cls-2" x1="85" y1="36.15" x2="74.37" y2="36.15"/><line class="cls-2" x1="51.46" y1="36.15" x2="42.69" y2="36.15"/><line class="cls-2" x1="78.8" y1="21.2" x2="71.29" y2="28.71"/><line class="cls-2" x1="56.41" y1="43.59" x2="48.89" y2="51.11"/><line class="cls-2" x1="78.8" y1="51.11" x2="71.29" y2="43.59"/><line class="cls-2" x1="56.41" y1="28.71" x2="48.89" y2="21.2"/><path class="cls-2" d="M59.21,46.23,27.4,78C23.74,81.7,18.3,76.26,22,72.6L53.77,40.79C55.86,38.7,61.3,44.14,59.21,46.23Z"/><path class="cls-2" d="M66.59,38.85l-7.38,7.38c2.09-2.09-3.35-7.53-5.44-5.44l7.38-7.38C64.2,30.36,69.64,35.8,66.59,38.85Z"/></g></svg>
