<svg fill="none" height="64" viewBox="0 0 60 64" width="60" xmlns="http://www.w3.org/2000/svg"><g fill="#40addc"><path clip-rule="evenodd" d="m47.8833 38.8531c3.0186 2.0607 5.3638 3.7564 6.9713 5.0393 2.3223 1.8536 3.3928 2.9821 2.8003 4.0073-.2314.401-.5901.6091-1.1918.6091-.8771 0-2.2712-.4429-4.5394-1.3765-2.2887-.9424-5.4145-2.3862-9.2917-4.2914-.4644-.2285-.6558-.7903-.4278-1.2547.2285-.4648.7903-.6563 1.2547-.4278 6.2799 3.0859 9.5514 4.4497 11.2519 5.0417-1.2605-1.088-3.7651-3.0113-8.7371-6.3783-4.324-2.9284-8.992-5.9212-12.0379-7.8484-.0142 1.4233-.7875 2.6678-1.934 3.3475 2.1406 1.1227 5.0159 2.6137 8.0974 4.1652.4264.2149.6266.7348.4517 1.1792-.1998.5063-.8069.7406-1.2947.4955-2.5586-1.2883-4.9764-2.5357-6.9518-3.5658l1.6309 25.274c.0331.5165-.3586.9624-.8751.9955-.0205.0015-.041.002-.0614.002-.4902 0-.9025-.3811-.9346-.8771l-1.704-26.4128-.2027-.1067c-.011-.0058-.0257-.0154-.042-.0261-.0388-.0254-.0866-.0567-.1154-.0567-.0313 0-.0866.0358-.1309.0645-.0183.0119-.0348.0226-.0469.029-.0365.0195-.0732.0387-.11.058l-.0723.038-1.7039 26.4133c-.0322.496-.4444.877-.9346.877-.0205 0-.0405-.0009-.0614-.0019-.5165-.0336-.9083-.4795-.8751-.996l1.6308-25.2735c-3.423 1.7853-8.1548 4.2124-12.5812 6.3418-3.3066 1.5904-5.95777 2.7798-7.88052 3.5341-1.78047.6988-2.93578 1.0379-3.70079 1.0379-.5969 0-.95553-.2061-1.18796-.6091-.5316-.9209.15593-1.9003 2.83005-4.0316 1.62211-1.2923 3.9873-3.0001 7.02982-5.0754 5.2045-3.5502 11.2061-7.3655 13.9382-9.0865.1442-3.7544.4439-10.5839.9093-16.7352.2753-3.64035.5705-6.5162.878-8.54712.4439-2.93432.8859-4.42438 2.0694-4.42438 1.0642 0 1.569 1.08807 2.0777 4.477.309 2.05529.6052 4.96378.8815 8.6441.4707 6.2697.7733 13.3477.898 16.5856 3.1814 2.0036 8.936 5.6713 14.026 9.1464zm-16.7181-24.5621c-.4337-6.07569-.8503-9.24146-1.1651-10.88988-.3118 1.63478-.7245 4.76156-1.1538 10.73938-.3747 5.2152-.633 10.7637-.7792 14.3651.5716-.3236 1.2309-.5092 1.933-.5092.7027 0 1.3619.1856 1.9335.5096-.1462-3.594-.4-9.0504-.7684-14.215zm-25.87434 31.9086c1.26786-1.0948 3.79483-3.0342 8.82434-6.4377 4.2958-2.9066 8.9082-5.8638 11.9493-7.7885.0141 1.4238.7874 2.6683 1.9339 3.348-3.1896 1.6728-8.0861 4.2042-12.7678 6.4777-5.43156 2.6381-8.36246 3.8514-9.93974 4.4005zm22.64714-14.2661c0 1.1373.9253 2.0621 2.0621 2.0621 1.1373 0 2.0626-.9248 2.0626-2.0621s-.9253-2.0621-2.0626-2.0621c-1.1368 0-2.0621.9248-2.0621 2.0621z" fill-rule="evenodd"/><path d="m39.9955 3.71148c-.4878-.1725-1.0238.08283-1.1963.57058-.1729.48825.0824 1.02375.5706 1.19673 11.1789 3.95952 18.6896 14.59071 18.6896 26.45461 0 1.5456-.1291 3.1044-.383 4.6339-.0848.5107.2602.9931.7709 1.0784.0521.0082.1038.0126.1549.0126.4503 0 .8474-.325.9234-.7835.2714-1.6309.4083-3.2934.4083-4.9414 0-12.6562-8.0126-23.99781-19.9384-28.22192z"/><path d="m37.3662 11.135c8.7883 3.1132 14.6935 11.4713 14.6935 20.7985 0 1.2153-.1014 2.4407-.3012 3.6433-.0847.5107.2602.9935.7709 1.0783.0521.0088.1038.0127.155.0127.4502 0 .8473-.325.9233-.7835.2169-1.304.3265-2.6327.3265-3.9508 0-10.1195-6.4066-19.188-15.9424-22.56529-.4882-.17298-1.0237.08235-1.1967.57059-.1725.4878.0828 1.0233.5711 1.1962z"/><path d="m35.3629 16.7912c6.3988 2.2663 10.698 8.3518 10.698 15.1423 0 .8849-.0741 1.7771-.2193 2.6527-.0853.5107.2602.9935.7709 1.0783.0521.0088.1037.0132.1549.0132.4498 0 .8474-.3255.9234-.784.1622-.9765.2446-1.9725.2446-2.9602 0-7.5828-4.801-14.3782-11.9463-16.9091-.4883-.173-1.0238.0828-1.1967.5706-.173.4878.0828 1.0233.5705 1.1962z"/><path d="m2.4053 37.0469c-2.160538-11.6613 3.291-23.4814 13.5655-29.41335 1.3385-.77231 2.753-1.44036 4.2046-1.98512.4848-.18175.7299-.72213.5482-1.20647-.1818-.48483-.7221-.73041-1.207-.54866-1.5475.58082-3.0561 1.29272-4.4833 2.11668-10.96057 6.32812-16.7761 18.93812-14.471327 31.37852.083809.4512.477517.7664.920447.7664.05701 0 .11451-.0048.172-.0156.5092-.0945.84541-.5837.75088-1.0924z"/><path d="m6.46187 36.295c.0838.4512.47752.7664.92093.7664.05652 0 .11402-.0048.17152-.0156.50919-.094.8454-.5832.75087-1.0924-1.69812-9.1679 2.58791-18.4606 10.66531-23.1242 1.0525-.6076 2.1649-1.1329 3.3056-1.5612.4848-.1817.7304-.7221.5486-1.207-.1822-.48479-.7221-.72988-1.2069-.54813-1.2372.46436-2.4432 1.03353-3.5848 1.69273-8.764 5.0598-13.41398 15.1423-11.57113 25.0894z"/><path d="m12.3618 35.2016c.0833.4512.4775.767.9204.767.0565 0 .114-.0054.172-.0161.5092-.0941.8454-.5833.7509-1.0925-1.2367-6.6745 1.8838-13.4402 7.7646-16.8355.766-.442 1.5758-.8245 2.4071-1.1363.4843-.1818.7299-.7221.5481-1.207-.1817-.4848-.7226-.7304-1.2069-.5481-.9273.3479-1.8312.7742-2.6858 1.2678-6.5669 3.7919-10.0514 11.3475-8.6704 18.8007z"/></g></svg>