<svg enable-background="new 0 0 512 512" viewBox="0 0 512 512" xmlns="http://www.w3.org/2000/svg"><path d="m506.703 145.655s-5.297-37.959-20.303-54.731c-19.421-22.069-41.49-22.069-51.2-22.952-71.503-5.296-179.2-6.179-179.2-6.179s-107.697.883-179.2 6.179c-9.71.883-31.779 1.766-51.2 22.952-15.89 16.773-20.303 54.731-20.303 54.731s-5.297 45.021-5.297 90.042v41.49c0 45.021 5.297 89.159 5.297 89.159s5.297 37.959 20.303 54.731c19.421 22.069 45.021 21.186 56.497 23.835 40.606 4.412 173.903 5.295 173.903 5.295s107.697 0 179.2-6.179c9.71-.883 31.779-1.766 51.2-22.952 15.007-16.772 20.303-54.731 20.303-54.731s5.297-45.021 5.297-89.159v-41.49c0-45.02-5.297-90.041-5.297-90.041" fill="#d8362a"/><path d="m194.207 166.841v191.559l167.724-93.572z" fill="#fff"/></svg>